<?xml version="1.0" encoding="utf-8"?>
<svg viewBox="0 0 300 96.13" xmlns="http://www.w3.org/2000/svg">
  <defs>
    <style>.cls-1{fill:#082742;}.cls-2{fill:#0f4c81;}</style>
  </defs>
  <g id="Layer_2" data-name="Layer 2">
    <g id="Layer_1-2" data-name="Layer 1">
      <polygon class="cls-1 customColor" points="84.2 86.53 81.3 86.53 81.4 58.93 93.2 16.63 96 17.43 84.2 59.53 84.2 86.53"/>
      <polygon class="cls-1 customColor" points="71.5 49.63 47 2.53 0.5 30.23 31.3 40.83 32.2 38.13 7.2 29.53 45.9 6.63 67.6 48.63 26.7 49.93 26.7 52.73 68.6 51.53 69.4 78.13 72.2 78.03 71.5 51.43 71.5 49.63"/>
      <rect class="cls-1 customColor" x="78.21" y="47.55" width="38.4" height="2.8" transform="translate(-8.65 74.19) rotate(-40.07)"/>
      <path class="cls-2 customColor" d="M112,33.63,99.4,16a10.48,10.48,0,0,0-6.1-4.2L52.9.73a20.69,20.69,0,0,0-13,.7L13.4,11.63a1.5,1.5,0,0,0-.9.7L.5,27.13a2,2,0,0,0-.4,2l7.2,23.4a2.25,2.25,0,0,0,2.1,1.6H21.3a2.26,2.26,0,0,1,2,3.3l-1.5,2.7a2.34,2.34,0,0,0,.7,2.9l12.8,8.7a1.83,1.83,0,0,0,1.6.3l15.4-2.6a2.22,2.22,0,0,1,2.3,1.2l12.7,24.3a2.27,2.27,0,0,0,2,1.2h5.5a2.21,2.21,0,0,0,2.1-2.9l-2.1-6.5a1.33,1.33,0,0,1,2-1.5l3.8,2.7a2,2,0,0,0,2.2.2l17.1-7.2a2.31,2.31,0,0,0,1.4-2.1v-8a6.25,6.25,0,0,1,1.7-4.2l8.1-7.9a7.87,7.87,0,0,0,2.3-5.6V38.63A7.35,7.35,0,0,0,112,33.63ZM96,52l1.2,9.2a2.17,2.17,0,0,1-3,2.3l-6.4-2.7a2.22,2.22,0,0,1-.9-3.5l5.2-6.5A2.21,2.21,0,0,1,96,52Zm-12.3,4.7a2.2,2.2,0,0,1-3,.5l-7.1-4.8a2.33,2.33,0,0,1-1-2l.7-13.3a2.28,2.28,0,0,1,3.3-1.9l15,7.3a2.29,2.29,0,0,1,.8,3.4Zm10.4-34.2.6,14.7a2.32,2.32,0,0,1-3.3,2.1L78.6,33a2.17,2.17,0,0,1-.2-3.8l12.3-8.4A2.13,2.13,0,0,1,94.1,22.53ZM56.2,4.63l33.2,9a2.24,2.24,0,0,1,.7,4L74.2,28.43a2.27,2.27,0,0,1-2.9-.3L54,8.23A2.2,2.2,0,0,1,56.2,4.63ZM47.1,16l2.8,18.3a2.33,2.33,0,0,1-1.7,2.6l-10.4,2a2.32,2.32,0,0,1-2.6-3l7.6-20.3A2.21,2.21,0,0,1,47.1,16Zm-28.8-3.4L40,4.33a2.25,2.25,0,0,1,2.9,2.9l-10,27a2.29,2.29,0,0,1-4,.5L17.1,15.93A2.36,2.36,0,0,1,18.3,12.63Zm2.1,38.5h-9a2.36,2.36,0,0,1-2.1-1.5L4.8,35.33a.8.8,0,0,1,1.3-.8l15.7,12.8A2.16,2.16,0,0,1,20.4,51.13ZM5.5,30a2.79,2.79,0,0,1-.3-4.1l6.4-8a2.25,2.25,0,0,1,3.6.2L29.5,41a2.33,2.33,0,0,1,.2,2l-1,2.7a2.18,2.18,0,0,1-3.5.9Zm46.1,36.7-11.5,2a8.14,8.14,0,0,1-5.9-1.3l-7.9-5.3a2.23,2.23,0,0,1-.7-2.9l3.1-5.9v-.2l.9-2a.1.1,0,0,1,.1-.1l2.3-6.2h0l.3-1a2.08,2.08,0,0,1,1.6-1.4l14.2-2.8a2.43,2.43,0,0,1,2.7,2l2.6,22.7A2.14,2.14,0,0,1,51.6,66.73ZM53,35.93,49.7,14a2.25,2.25,0,0,1,4-1.7l16.5,19.1a3.14,3.14,0,0,1,.6,1.6l-.7,12.6a2.22,2.22,0,0,1-3.6,1.6l-12.6-9.8A2.65,2.65,0,0,1,53,35.93Zm2.8,23.3L54.3,46a2.21,2.21,0,0,1,3.6-2l8.8,6.9a2.21,2.21,0,0,1,.1,3.5l-7.3,6.3A2.24,2.24,0,0,1,55.8,59.23Zm2.8,6L70,55.43a2.12,2.12,0,0,1,2.7-.1l6.1,4a2.62,2.62,0,0,1,.8,3.7L72,75.33a2.32,2.32,0,0,1-3.3.7l-10-7.2A2.25,2.25,0,0,1,58.6,65.23Zm13.3,28.1a2.37,2.37,0,0,1-2.7-1L62.2,79a1.74,1.74,0,0,1,2.6-2.2l4.3,3.1a2.14,2.14,0,0,1,.8,1.2l3.1,9.5A2,2,0,0,1,71.9,93.33Zm26.6-16.2a2.43,2.43,0,0,1-1.4,2.1L83.2,85a2.46,2.46,0,0,1-2.2-.2l-6.4-4.7a2.22,2.22,0,0,1-.6-3l8.3-13.5a2.33,2.33,0,0,1,2.8-.9l12.1,5a2.31,2.31,0,0,1,1.4,2.1l-.1,7.3Zm12.3-22.8a2,2,0,0,1-.7,1.6l-6.3,6.2a2.18,2.18,0,0,1-3.7-1.3l-2.3-17.6V43l-.7-18.5a2.29,2.29,0,0,1,4.1-1.4l9.3,13a2.54,2.54,0,0,1,.5,1.3v16.9Z"/>
      <path class="cls-2 customColor" d="M127.9,74.13V22.23h10.9c6.5,0,11.1,1.9,13.7,5.7s3.8,10.5,3.8,20.3-1.3,16.5-3.8,20.3-7.2,5.7-13.7,5.7H127.9Zm7.1-6.3h3.7c4,0,6.6-1.4,8-4.1s2.1-7.9,2.1-15.5-.7-12.7-2.2-15.5-4.2-4.2-8-4.2H135Z"/>
      <path class="cls-2 customColor" d="M171.5,67.83h15.7v6.3H164.3V22.23h22.6v6.3H171.5v15.9h14.7v6.1H171.5v17.3Z"/>
      <path class="cls-2 customColor" d="M202.4,74.13l-12-51.9h7.5l6.9,33.4a72.86,72.86,0,0,1,1.5,11.1h.3c.7-5.1,1.3-8.8,1.7-11.1l6.8-33.4h7.5l-12.1,51.9Z"/>
      <path class="cls-2 customColor" d="M229.3,68.63c-2.3-4.1-3.5-10.8-3.5-20.4s1.2-16.4,3.5-20.5,6.2-6.2,11.5-6.2a16.14,16.14,0,0,1,10.5,3.4l-2.7,5.7a12,12,0,0,0-7.1-2.6,6.41,6.41,0,0,0-6.5,4.3c-1.2,2.9-1.7,8.1-1.7,15.7s.6,12.8,1.9,15.7a6.79,6.79,0,0,0,6.6,4.4,13.81,13.81,0,0,0,8.4-2.9l2.2,5.8a17.67,17.67,0,0,1-11.4,3.6C235.5,74.73,231.7,72.63,229.3,68.63Z"/>
      <path class="cls-2 customColor" d="M258.7,74.13V22.23h7.2v51.9Z"/>
      <path class="cls-2 customColor" d="M300,22.23v6.3H289.5v45.6h-7.2V28.43H271.8v-6.3C271.8,22.23,300,22.23,300,22.23Z"/>
    </g>
  </g>
</svg>