<?xml version="1.0" encoding="utf-8"?>
<!-- Generator: Adobe Illustrator 23.0.6, SVG Export Plug-In . SVG Version: 6.00 Build 0)  -->
<svg version="1.1" id="Layer_1" xmlns="http://www.w3.org/2000/svg" xmlns:xlink="http://www.w3.org/1999/xlink" x="0px" y="0px"
	 viewBox="0 0 79.1 15.3" style="enable-background:new 0 0 79.1 15.3;" xml:space="preserve">
<style type="text/css">
	.st0y{fill:#b62349;}
	
</style>
<g id="Group-Copy" transform="translate(38.085938, 7.910156)">
	<g>
		<path class="st0y customColor" d="M-30.1,1h-5v6.2H-38V-7.7h8.8v2.3h-5.9v4.1h5L-30.1,1z"/>
		<path class="st0y customColor" d="M-21.6,4h-3.9l-0.8,3.2h-2.9L-25-7.7h3l4.2,14.9h-2.9L-21.6,4z M-24.9,1.7h2.7l-1.3-5.3h-0.1L-24.9,1.7z"/>
		<path class="st0y customColor" d="M-6.3,7.2h-2.9l-4.5-9.5h-0.1v9.5h-2.9V-7.7h2.9l4.5,9.5h0.1v-9.5h2.9L-6.3,7.2z"/>
		<path class="st0y customColor" d="M2.8,4h-3.9l-0.8,3.2h-2.9l4.2-14.9h3L6.6,7.2h-3L2.8,4z M-0.5,1.7h2.7L0.9-3.6H0.8L-0.5,1.7z"/>
		<path class="st0y customColor" d="M15.2-5.4h-3.4V7.2H8.9V-5.4H5.6v-2.3h9.6L15.2-5.4z"/>
		<path class="st0y customColor" d="M17.4,7.2h-2.9V4.5h2.9V7.2z"/>
		<path class="st0y customColor" d="M24.1,1h-1.3v6.2h-2.9V-7.7h2.9v6h0.9l2.9-6h3.6l-4.1,6.8l4.4,8.1H27L24.1,1z"/>
		<path class="st0y customColor" d="M41,5c-0.4,0.6-1,1.2-1.8,1.7s-1.8,0.7-3.1,0.7c-1.6,0-2.9-0.5-3.8-1.4c-1-0.9-1.4-2.3-1.4-4v-4.5c0-1.7,0.5-3,1.4-4
			c0.9-0.9,2.2-1.4,3.7-1.4c1.6,0,2.9,0.4,3.7,1.2s1.3,2,1.3,3.5v0.1h-2.7C38.2-4,38-4.6,37.7-5c-0.4-0.4-0.9-0.6-1.6-0.6
			c-0.7,0-1.3,0.3-1.7,0.8s-0.6,1.3-0.6,2.3V2c0,1,0.2,1.8,0.6,2.3c0.4,0.5,1,0.8,1.8,0.8c0.6,0,1-0.1,1.3-0.2
			c0.3-0.2,0.5-0.4,0.7-0.7V1.5h-2v-2H41V5z"/>
	</g>
</g>
</svg>
