<?xml version="1.0" encoding="utf-8"?>
<!-- Generator: Adobe Illustrator 23.0.6, SVG Export Plug-In . SVG Version: 6.00 Build 0)  -->
<svg version="1.1" id="Layer_1" xmlns="http://www.w3.org/2000/svg" xmlns:xlink="http://www.w3.org/1999/xlink" x="0px" y="0px"
	 viewBox="0 0 500 168.4" style="enable-background:new 0 0 500 168.4;" xml:space="preserve">
<style type="text/css">
	.st0a{fill:#004922;}
	.st1a{fill:#961200;}
</style>
<g>
	<g>
		<polygon class="st0a customColor" points="114.4,74.6 127.4,61.4 71.9,61.4 84.7,74.6 84.7,102.3 42.3,102.3 42.3,74.6 55.1,61.4 0,61.4 
			12.8,74.6 12.8,154.8 0,168.1 55.1,168.1 42.3,154.7 42.3,127 84.7,127 84.7,154.7 71.9,168.1 127.4,168.1 114.4,154.8 		"/>
	</g>
	<g>
		<path class="st1a customColor" d="M114.4,50.5h-40L104,20C110.5,28.5,114.4,39,114.4,50.5z"/>
		<path class="st1a customColor" d="M95.7,11.3L69.3,38.4V0.1C79.2,1.2,88.2,5.2,95.7,11.3z"/>
		<path class="st1a customColor" d="M57.5,0.1v38.3L31.2,11.3C38.5,5.3,47.5,1.2,57.5,0.1z"/>
		<path class="st1a customColor" d="M22.7,20l29.4,30.4H12.6C12.6,39,16.4,28.5,22.7,20z"/>
	</g>
	<polygon class="st1a customColor" points="75.7,78.1 63.5,65.8 51.1,78.1 51.1,94.1 75.7,94.1 	"/>
	<polygon class="st1a customColor" points="75.7,135.5 51.1,135.5 51.1,151.4 63.5,163.8 75.7,151.4 	"/>
	<g>
		<g>
			<path class="st0a customColor" d="M206.3,74.2v33.9c0,6.7,2.4,10.7,4.5,12.2v0.2h-20.6v-0.2c1.9-1.5,4.3-5.5,4.3-12.2V93.2H172v14.6
				c0,7,2.3,11.2,4.3,12.7v0.2h-20.6v-0.2c2.1-1.5,4.5-5.5,4.5-12.7V74.2c0-7-2.4-11.2-4.5-12.7v-0.2h20.6v0.2
				C174.4,63,172,67,172,74.2v10.5h22.6V74.2c0-7-2.3-11.2-4.3-12.7v-0.2H211v0.2C208.8,63,206.3,67.2,206.3,74.2z"/>
			<path class="st0a customColor" d="M277.1,120.2v0.2h-19.2v-0.2c1.5-1.1,2.1-4.5,0-10.4l-0.6-1.2h-22.5l-0.5,1.2c-2.1,5.9-1.4,9.3-0.2,10.4v0.2
				h-17.9v-0.2c2.3-2,6-7.2,8.3-13.8l12.2-35c1.7-5,0.1-8.6-1.6-10v-0.2h22.5v0.2c-1.7,1.5-3.3,5-1.6,10l12.6,35.1
				C271.2,113.1,274.8,118.3,277.1,120.2z M241.2,90.5l-3.5,9.8h16.9l-3.4-9.8c-1.9-5.5-4.1-11.2-5-17.8H246
				C245.1,79.1,243.1,84.9,241.2,90.5z"/>
			<path class="st0a customColor" d="M397.6,120.2v0.2h-19.2v-0.2c1.5-1.1,2.1-4.5,0-10.4l-0.6-1.2h-22.5l-0.5,1.2c-2.1,5.9-1.4,9.3-0.2,10.4v0.2
				h-17.9v-0.2c2.3-2,6-7.2,8.3-13.8l12.2-35.1c1.7-5,0.1-8.6-1.6-10v-0.2h22.6v0.2c-1.7,1.5-3.3,5-1.6,10l12.6,35.1
				C391.6,113.1,395.2,118.3,397.6,120.2z M361.7,90.5l-3.5,9.8H375l-3.4-9.8c-1.9-5.5-4.1-11.2-5-17.8h-0.3
				C365.6,79.1,363.6,84.9,361.7,90.5z"/>
			<path class="st0a customColor" d="M335.5,118.9v0.2l-17.4,3.1c-1.1-3.3-2.5-6.3-4.3-9.4l-13.1-22.5h4.1c7.4,0,11.4-3.1,11.4-10.5
				c0-6.2-4.1-10.2-11.4-10.1l-6,0.1V108c0,6.7,2.4,10.7,4.3,12.2v0.2h-20.5v-0.2c2.1-1.5,4.5-5.5,4.5-12.7V73.6
				c0-6.7-2.4-10.7-4.5-12.2v-0.2h24.1c13.6,0,21.5,6.9,21.5,18c0,9-4.4,14.6-11.5,16.9l7.9,12.8
				C327.7,114.1,331.4,117.6,335.5,118.9z"/>
			<path class="st0a customColor" d="M444.7,76.2l-0.2,0.1c-1.9-3.4-6-6.3-11.1-6.3H427v37c0,7.4,2.4,11.8,5.2,13.2v0.2h-22.1v-0.2
				c2.5-1.5,5.2-6,5.2-13.2V70h-6.4c-5.1,0-9,2.9-11.1,6.3l-0.2-0.1l1.5-15.5c4,0.6,7.5,0.7,11.7,0.7h20.8c4.2,0,7.8-0.2,11.7-0.7
				L444.7,76.2z"/>
			<path class="st0a customColor" d="M462.3,118.3l-1.5-14.3l0.2-0.1c5.1,6.6,10.6,9,17.5,8.9c6.9-0.2,9.8-3.1,9.8-7.7c0-5.9-5.2-8-11-10.4
				c-7.5-3.1-15.6-6.6-15.6-18.4c0-8.4,7.2-16.2,20.4-16.2c4.4,0,8.4,0.6,13.3,1.8l1.1,13.9h-0.2C492.9,70.3,488,69,483,69
				c-6.4,0-9.8,2.1-9.8,6.6c0,5,4.8,6.9,10.3,9.2c7.6,3.1,16.5,6.9,16.5,19.7c0,9.4-6.9,17.2-20.8,17.4
				C472.6,121.8,466.2,120.7,462.3,118.3z"/>
		</g>
		<path class="st1a customColor" d="M450.6,76.2c0,0.3,0.1,2.4,0.1,2.7l5.7-1.1v-1.7l0.7-10.2c0.2-2.1,0.3-3.5,0.7-4.6h-8.5
			c0.3,1.2,0.6,2.6,0.7,4.6L450.6,76.2z"/>
		<path class="st1a customColor" d="M160.3,168.2v-23.6h3.7v23.6H160.3z"/>
		<path class="st1a customColor" d="M206.3,168.2l-3.1-9.7h-2.1v9.7h-3.7v-23.6h6c4.3,0,6,2.1,6,6.9c0,2.9-0.6,5-2.7,6.1l3.5,10.4L206.3,168.2
			L206.3,168.2z M203.4,147.9h-2.3v7.2h2.3c2,0,2.3-1.7,2.3-3.6C205.8,149.6,205.4,147.9,203.4,147.9z"/>
		<path class="st1a customColor" d="M243.8,168.2v-23.6h3.6v23.6H243.8z"/>
		<path class="st1a customColor" d="M291.6,166.9c-0.9,0.9-2.6,1.6-4.5,1.6c-2,0-3.6-0.6-4.5-1.6c-1.1-1.1-1.6-2.6-1.6-5h3.7c0,1.2,0.1,2,0.7,2.6
			c0.3,0.3,0.9,0.7,1.7,0.7s1.5-0.2,1.8-0.7c0.5-0.6,0.7-1.4,0.7-2.6c0-2.5-0.3-3.1-2.1-3.8l-2.8-1.2c-2.4-1-3.3-2.3-3.3-6
			c0-2.1,0.7-3.8,1.9-5c1-0.9,2.4-1.5,4.1-1.5c1.9,0,3.3,0.5,4.2,1.5c1.2,1.2,1.7,2.9,1.7,5.1h-3.7c0-1.1-0.1-1.9-0.6-2.5
			c-0.3-0.5-0.8-0.7-1.7-0.7c-0.7,0-1.2,0.2-1.6,0.7c-0.5,0.5-0.7,1.2-0.7,2.3c0,1.9,0.2,2.5,1.9,3.2l2.7,1.1
			c2.8,1.2,3.6,2.6,3.6,6.6C293.2,164.1,292.8,165.7,291.6,166.9z"/>
		<path class="st1a customColor" d="M335,168.2v-10.3h-4.5v10.3h-3.7v-23.6h3.7v10h4.5v-10h3.7v23.6H335z"/>
		<path class="st1a customColor" d="M399.8,158.9h-2.3v9.3h-3.6v-23.6h6c4.3,0,6,2.3,6,7.2C405.9,156.8,404.1,158.9,399.8,158.9z M399.7,147.9
			h-2.1v7.7h2.1c2,0,2.5-1.5,2.5-3.8C402.1,149.4,401.7,147.9,399.7,147.9z"/>
		<path class="st1a customColor" d="M449.8,166.7c-1.1,1.2-2.6,1.7-4.4,1.7s-3.3-0.6-4.4-1.7c-1-1.1-1.7-2.6-1.7-4.3v-17.8h3.7v18
			c0,1.7,1.1,2.6,2.3,2.6c1.2,0,2.3-0.8,2.3-2.6v-18h3.6v17.8C451.5,164.2,450.8,165.7,449.8,166.7z"/>
		<path class="st1a customColor" d="M495.4,166.7c-1,1-2.4,1.5-4.6,1.5h-5.9v-23.6h5.9c2.1,0,3.6,0.5,4.5,1.5c1.1,1.1,1.5,2.3,1.5,4.9
			c0,1.7-0.2,3.1-1.4,4.1c-0.3,0.3-0.7,0.7-1.2,0.8c0.5,0.2,0.9,0.6,1.2,0.8c1.1,1.1,1.4,2.6,1.4,4.8
			C496.9,164.2,496.5,165.6,495.4,166.7z M490.5,147.9h-1.8v6.4h1.8c1.9,0,2.6-0.9,2.6-3.2C493.2,148.8,492.4,147.9,490.5,147.9z
			 M490.4,157.5h-1.8v7.4h1.8c2,0,2.8-0.9,2.8-3.6C493.2,158.6,492.4,157.5,490.4,157.5z"/>
	</g>
</g>
</svg>
