<?xml version="1.0" encoding="utf-8"?>
<!-- Generator: Adobe Illustrator 23.0.6, SVG Export Plug-In . SVG Version: 6.00 Build 0)  -->
<svg version="1.1" id="Layer_1" xmlns="http://www.w3.org/2000/svg" xmlns:xlink="http://www.w3.org/1999/xlink" x="0px" y="0px"
	 viewBox="0 0 245.3 100" style="enable-background:new 0 0 245.3 100;" xml:space="preserve">
	 <style type="text/css">
	.st0x{fill:#82c1ae;}
	.st1x{fill:#00fcd7;}
</style>
<g>
	<g>
		<g>
			<g>
				<g>
					<path class="st0x st1x customColor" d="M35,43.2C30.3,53.6,25.6,64,21,74.5c0.2,0.1,0.5,0.1,0.6,0.2c1.2,0.5,2.4,1,3.4,2c2,1.9,2,4.5,1,6.4
						c-0.7,1.5-2.1,2-3.6,2.2c-1,0.1-2-0.1-2.9-0.6c-1.9-1-2.2-2.4-2-4.1c0-0.4,0.1-0.6,0.2-1c0.1-0.2,0.2-0.6,0.5-0.9
						c-0.5-0.2-1-0.6-1.4-0.9c-1.9-1.2-3.7-2.5-5.4-4.1c-0.6-0.6-1.1-1.2-1.6-2c-1.4-2-0.7-4.9,1-6.2c1.5-1.2,4-1.1,5.4,0.2
						c1.6,1.6,0.7,3.9-0.4,4.6c-0.2,0.1-0.6,0.2-0.9,0.4c0.4,0.7,1,1,1.6,1.5c0.1-0.1,0.1-0.2,0.2-0.4c5-11.1,10-22.2,15-33.3
						c0.4-0.7,0.6-1.4,1-2.1c0.6-1.1,1.5-1.5,2.7-1.2c0.6,0.1,1.1,0.5,1.5,1c3.9,6.1,7.9,12.2,11.7,18.3c0.1,0.1,0.1,0.2,0.2,0.4
						c0.1-0.1,0.1-0.2,0.2-0.4c3.9-6.1,7.9-12.2,11.7-18.3c1-1.5,3.2-1.5,4.1,0.1c0.7,1.5,1.5,3.1,2.2,4.7
						c4.6,10.2,9.2,20.6,13.9,30.8c0,0.1,0.1,0.2,0.1,0.4c0.6-0.4,1.2-0.9,1.6-1.5c-1.2-0.2-1.9-1.1-2.1-2.2c-0.4-1.6,0.4-3,2-3.6
						C84.6,64,87,65,88,67.3c0.7,1.6,0.6,3.2-0.5,4.7c-0.9,1.2-1.9,2.2-3,3.1c-1.6,1.2-3.2,2.4-4.9,3.5c-0.1,0.1-0.2,0.1-0.4,0.2
						c0.9,1,0.9,2.2,0.7,3.5c-0.1,0.7-0.6,1.4-1.1,1.9c-2.6,2.1-5.9,1.1-7.2-1c-1.1-1.7-1.2-4.7,0.9-6.6c1.1-1,2.4-1.5,3.7-1.9
						c0.1,0,0.1,0,0.2-0.1c-4.4-10.6-9-21-13.6-31.4c-0.1,0.1-0.1,0.2-0.2,0.4c-3.5,5.2-7,10.5-10.4,15.7c-0.1,0.2-0.1,0.4,0,0.6
						c1,1.7,2.1,3.5,3.1,5.2c2.1,3.5,0.5,8.2-3.4,9.5c-2.2,0.7-4.6,0.7-6.9-0.4c-2-1-3-2.6-3.4-4.7c-0.1-1-0.1-2,0.1-3
						c0.1-0.4,0.4-0.9,0.5-1.2c1.1-1.7,2.1-3.6,3.2-5.4c0.1-0.2,0.1-0.4,0-0.5c-3.5-5.2-7-10.6-10.5-15.9
						C35.1,43.4,35.1,43.3,35,43.2z M17.5,74.2c-1.2-0.6-2.4-1.4-3.4-2.4c-0.6-0.7-1-1.5-0.5-2.5c0.1-0.4,0-0.7-0.2-1
						c-0.2-0.1-0.6-0.2-0.9-0.1c-0.2,0.1-0.5,0.4-0.7,0.6c-0.4,0.6-0.4,1.4-0.1,2.1c0.2,0.7,0.7,1.4,1.4,1.9c1.1,1.1,2.5,2,4,2.7
						c1.1,0.6,2.2,1.2,3.2,2.2c0.9,1,1.4,2,0.9,3.2c-0.1,0.4,0.1,0.9,0.4,1.1c0.2,0.1,0.7,0.1,1-0.2c0.2-0.2,0.5-0.6,0.5-1
						c0.2-0.9,0-1.6-0.4-2.4c-0.6-1-1.4-1.7-2.4-2.5c-0.5-0.4-1-0.7-1.6-1.1C24.1,63.1,29.5,51.3,35,39.3c0.1,0.1,0.1,0.2,0.2,0.4
						c4.2,6.5,8.4,13,12.6,19.5c0.1,0.2,0.1,0.4,0,0.6c-1,1.5-2,3-3,4.6c-0.7,1.1-1.1,2.2-1.2,3.5c-0.1,2.4,1,4.5,3.5,5.1
						c0.7,0.1,1.6,0.2,2.4,0.2c3-0.1,5.2-2.9,4.6-5.9c-0.2-1.1-0.7-2.2-1.4-3.2c-0.9-1.5-1.9-3-2.9-4.4c-0.1-0.2-0.1-0.4,0-0.6
						c4.2-6.5,8.5-13,12.7-19.5c0-0.1,0.1-0.1,0.2-0.2c5.5,11.9,11,23.7,16.5,35.7c-0.1,0.1-0.4,0.2-0.5,0.4c-1,0.7-2,1.5-2.7,2.4
						c-0.5,0.6-1,1.4-1.1,2.2c-0.1,0.7,0,1.5,0.6,2.1c0.2,0.2,0.7,0.4,1,0.2c0.4-0.2,0.5-0.5,0.5-0.9c0-0.1-0.1-0.2-0.1-0.5
						c0-0.4-0.1-0.7-0.1-1.2c0.1-0.7,0.5-1.4,1.1-2c0.9-0.9,2-1.6,3.1-2.1c1.5-0.7,2.9-1.6,4.1-2.9c0.6-0.6,1.1-1.4,1.4-2.2
						c0.1-0.7,0.1-1.4-0.4-2c-0.2-0.4-1-0.5-1.4-0.2c-0.2,0.1-0.5,0.7-0.2,1.1c0.4,0.9,0.1,1.6-0.5,2.4c-0.9,1.1-2.1,1.7-3.2,2.4
						c0,0-0.2,0-0.2-0.1c-0.1-0.1-0.1-0.2-0.1-0.2c-5.6-12-11.1-24.1-16.7-36.1c-0.1-0.4-0.4-0.7-0.6-1.2
						c-4.7,7.2-9.4,14.4-14.1,21.6c-4.7-7.2-9.4-14.4-14.1-21.6C29.1,49.2,23.3,61.6,17.5,74.2z"/>
				</g>
				<g>
					<path class="st0x st1x customColor" d="M12.5,58c-0.4-0.5-0.6-1-0.9-1.5c-0.6-1.2-1.1-2.5-1.1-3.9c0.1-1.9,1.9-3.6,3.9-3.5c1.5,0.1,2.7,1.7,2.2,3.1
						c-0.1,0.5-0.5,0.9-0.9,1.1c-0.4,0.2-0.6,0.1-0.9-0.1c-0.2-0.2-0.2-0.6,0-0.9c0.5-0.5,0.6-0.9,0.4-1.2c-0.2-0.5-0.7-0.7-1.5-0.6
						c-1.4,0.4-2.1,1.5-1.7,3c0.1,0.9,0.6,1.7,1,2.5c0.9,1.4,1.9,2.6,3,3.9c0.1,0.1,0.1,0.1,0.2,0.2c0.1-0.1,0.1-0.2,0.1-0.4
						c1-2.2,2.1-4.6,3.1-6.9c0.6-1.2,0.5-2.4-0.1-3.6c-0.2-0.5-0.6-0.9-0.9-1.2c-0.1-0.2-0.4-0.4-0.5-0.6c-0.2-0.4-0.2-0.7,0-1.1
						c0.2-0.4,0.6-0.4,1.1-0.2c0.9,0.4,1.6,0.9,2.2,1.6c0.1,0.1,0.1,0.1,0.2,0.4c0.2-0.6,0.5-1.1,0.7-1.6c0.7-2.5,1.2-5,1.5-7.6
						c0.1-1.1,0.1-2.2-0.2-3.2c-0.1-0.6-0.5-1.1-0.7-1.7c-0.1-0.2-0.2-0.5,0-0.9c0.1-0.2,0.6-0.4,0.9-0.4c0.1,0,0.2,0.1,0.4,0.1
						c0.6,0.4,1.2,0.6,1.7,1s1.1,0.9,1.6,1.2c0.2-0.6,0.5-1.2,0.7-1.9c0-0.1,0-0.2-0.1-0.4c-1.2-1.6-2.1-3.5-2.5-5.5
						c-0.1-0.9-0.2-1.9-0.1-2.7c0-0.2,0-0.5-0.2-0.9c-0.7-0.9-1.1-1.9-1.2-3.1c-0.2-2.2,1.7-4.4,4.1-4.2c0.9,0,1.6,0.2,2.4,0.7
						c0.1,0.1,0.4,0.2,0.5,0.4c0.2,0.4,0.2,0.6-0.1,1c-0.6,0.5-1.2,1-1.7,1.6c-1.2,1.4-2,3-2.1,4.9c-0.1,1.5,0.2,2.7,0.7,4.1
						c0.5,1.1,1.1,2.2,1.9,3.2c0.4,0.4,0.4,0.7,0.1,1.1c-2,4.4-4,8.7-5.9,13.1c-2.4,5.1-4.6,10.4-7,15.5c-0.1,0.4-0.2,0.6-0.7,0.6
						c-0.4,0-0.6-0.4-0.7-0.7c-0.1-0.4-0.4-0.6-0.5-0.9c-1.5-1.5-3.4-2.1-5.4-1.9c-3.4,0.4-5.4,2.4-6.5,5.4
						c-0.1,0.4-0.2,0.6-0.6,0.7c-0.4,0-0.7-0.1-1-0.4C0.5,63.6,0,62.4,0,60.9c0-2.4,1.9-4.2,4.2-4.1c1.1,0,2.1,0.4,3,1
						c0.1,0.1,0.2,0.1,0.4,0.1C9.2,57.8,10.9,57.6,12.5,58z M5.5,58.9c-1-0.5-2.4-0.4-3.1,0.5s-1,2.4-0.2,3.6
						C2.6,61.1,3.9,59.8,5.5,58.9z M26.2,22.1c0.5-1.6,1.4-3,2.7-4c-1-0.4-2.1-0.1-2.7,0.7C25.6,19.7,25.5,21.1,26.2,22.1z
						 M25.3,39.9C25.5,39.9,25.5,39.9,25.3,39.9c0.5-0.9,0.9-1.7,1.2-2.6c0.1-0.2,0.2-0.6,0-1c-0.4-0.5-0.9-0.9-1.5-1.2
						C25.6,36.7,25.6,38.3,25.3,39.9z"/>
				</g>
				<g>
					<path class="st0x st1x customColor" d="M76.4,48.2c0.4-0.4,0.7-0.7,1.1-1.1c0.5-0.4,1-0.6,1.5-0.9c0.5-0.2,0.9,0,1.1,0.2c0.2,0.4,0.2,0.6-0.1,1.1
						c-0.1,0.2-0.4,0.4-0.5,0.6c-1.1,1.2-1.5,2.6-1.1,4.2c0,0.1,0.1,0.2,0.1,0.4c1.1,2.4,2.2,4.9,3.2,7.2c0,0.1,0.1,0.1,0.1,0.4
						c0.7-0.7,1.4-1.5,2-2.4c0.9-1.1,1.7-2.4,2.2-3.7c0.5-1.5,0.1-2.6-1.4-3.4c-0.6-0.4-1.2-0.1-1.7,0.4c-0.4,0.5-0.4,0.9,0.1,1.4
						c0.4,0.2,0.4,0.6,0.1,1c-0.2,0.2-0.6,0.4-1,0.1c-0.7-0.6-1-1.4-0.9-2.2c0.2-1,0.7-1.6,1.7-1.9c2.1-0.5,4.4,1.4,4.2,3.7
						c0,1.4-0.6,2.6-1.2,3.9c-0.2,0.4-0.5,0.7-0.7,1.1c0.2,0,0.5-0.1,0.6-0.1c1.4-0.2,2.6-0.2,4,0.1c0.2,0.1,0.5,0,0.7-0.1
						c1.2-0.9,2.6-1.1,4-0.7c2,0.5,3.2,2.5,3,4.5c-0.1,1.2-0.6,2.4-1.4,3.4c-0.2,0.4-0.5,0.5-0.9,0.5s-0.6-0.2-0.6-0.6
						c-0.5-1.6-1.5-3.1-2.9-4.1c-2.2-1.6-5.7-2.2-8.6,0.1c-0.5,0.4-0.9,0.7-1,1.4c-0.1,0.4-0.5,0.6-0.7,0.6c-0.4,0-0.5-0.2-0.6-0.5
						c-4.4-9.6-8.6-19.2-13-28.7c-0.2-0.5-0.1-0.7,0.1-1.1c1.4-1.6,2.2-3.4,2.6-5.4c0.5-2.5-0.2-4.6-1.7-6.5
						c-0.5-0.6-1.2-1.2-1.9-1.7c-0.5-0.5-0.5-1,0-1.2c2.1-1.4,5.9-1.4,6.6,2.2c0.2,1.1,0,2.1-0.5,3.1c0,0.1-0.1,0.2-0.1,0.2
						c-0.6,0.7-0.7,1.5-0.6,2.5c0.1,2.1-0.7,4.1-1.7,6c-0.2,0.5-0.6,1-1,1.5c0,0.1-0.1,0.2-0.1,0.4c0.2,0.6,0.5,1.2,0.9,1.9
						c1-1.1,2.2-1.7,3.5-2.4c0.2-0.1,0.6-0.1,0.9,0c0.5,0.1,0.6,0.6,0.4,1c-1,1.5-1.1,3.1-1,4.9c0.1,2.7,0.7,5.4,1.5,8.1
						C75.9,47.2,76.3,47.5,76.4,48.2z M96.2,62.9c0.6-1.1,0.6-2.7-0.1-3.5c-0.7-0.9-2.2-1.1-3.2-0.6C94.5,59.8,95.5,61.1,96.2,62.9z
						 M72,22.1c0.7-1.1,0.7-2.5,0-3.2c-0.6-0.7-1.9-1.1-2.9-0.7C70.7,19.2,71.5,20.4,72,22.1z M73,35.2C73,35,72.9,35,73,35.2
						c-0.5,0.2-1,0.6-1.4,1c-0.2,0.2-0.4,0.5-0.1,0.9c0.4,0.9,0.7,1.7,1.1,2.7c0,0.1,0.1,0.1,0.1,0.2C72.7,38.4,72.7,36.8,73,35.2z"
						/>
				</g>
				<g>
					<path class="st0x st1x customColor" d="M61.5,97c0.5-0.1,1-0.2,1.5-0.4c1.9-0.6,3.7-1.4,5.4-2.5c0.7-0.5,1.4-1,1.9-1.7c0.7-1.1,1-2.4,0.5-3.6
						c-0.6-1.7-2-2.7-3.9-2.9c-1.1-0.1-2,0.4-2.7,1.1c-0.6,0.7-1,1.6-1.1,2.6c-0.1,0.9,0.4,1.4,1,1.5c0.7,0.1,1.6-0.6,1.7-1.4
						c0-0.4-0.1-0.6-0.6-0.7c-0.5-0.2-0.7-0.7-0.4-1.1c0.2-0.2,0.5-0.4,0.9-0.2c1.1,0.4,1.9,1.5,1.5,2.7c-0.4,1.4-1.5,2.2-2.9,2.2
						c-1.5,0-2.5-0.9-2.7-2.4c-0.2-1.4,0.1-2.5,1-3.6c1.2-1.5,2.9-2.4,4.9-2.2c0.5,0,1,0.1,1.4,0.4c2.1,1.1,3.5,2.7,3.6,5.1
						c0.1,1.5-0.5,2.7-1.4,3.9c-1,1.2-2.4,2.1-3.7,2.9c-2.7,1.5-5.6,2.2-8.6,2.7c-4,0.6-8,0.7-12.1,0.6c-3.2-0.1-6.4-0.5-9.5-1.2
						c-2.7-0.7-5.5-1.9-7.7-3.6c-1-0.7-1.7-1.6-2.4-2.7c-1-2.1-0.2-4.7,1.5-6.4c2.5-2.4,7.5-2,8.9,2.7c0.1,0.6,0.2,1.2,0.1,1.9
						c-0.2,1.7-1.7,2.6-3.5,2.1c-1.2-0.4-2-1.1-2.1-2.4c-0.1-1.1,0.6-2.2,1.6-2.5c0.5-0.1,0.9,0,1,0.5s0,0.7-0.5,0.9
						c-0.6,0.2-0.7,0.6-0.5,1.1l0,0c0.4,0.6,1.1,1.1,1.7,1c0.6-0.1,1-1,0.9-1.7C36,87.6,34,86,31.8,86.1c-0.2,0-0.4,0-0.6,0.1
						c-1.7,0.6-3.2,2.7-3,4.6c0.1,1,0.6,1.9,1.4,2.5c1,1,2.2,1.9,3.6,2.4c1.4,0.5,2.7,1,4,1.5c0.1,0,0.2,0,0.4,0.1
						c0-0.4,0-0.9,0.1-1.2c0.4-1.7,1.6-3,3.5-3.2c0.1,0,0.4,0,0.5-0.1c0.4,0,0.7,0.1,0.7,0.5c0.1,0.4-0.1,0.9-0.5,0.9
						c-0.5,0.1-0.6,0.4-0.7,0.9c-0.1,0.9,0,1.5,0.6,2.1c1,0.9,2.2,1.4,3.5,1.4c2.4,0,4.7,0,7.1,0.1c0.7,0,1.6,0,2.4-0.1
						c1.1-0.2,2.1-0.7,2.9-1.7c0.4-0.5,0.5-1,0.4-1.6c-0.1-0.5-0.4-0.7-0.7-0.9c-0.5-0.1-0.6-0.5-0.5-1c0.1-0.4,0.4-0.5,0.9-0.5
						c0.5,0.1,0.9,0.1,1.4,0.4c1.7,0.6,2.6,2,2.6,3.7C61.5,96.6,61.5,96.7,61.5,97z M58.8,97.3c1.2-0.1,1.4-0.4,1.1-1.5
						c0-0.1-0.1-0.2-0.1-0.4s-0.1-0.1-0.1-0.2C59.5,96,59.3,96.6,58.8,97.3z M40.2,97.3c-0.5-0.7-0.7-1.5-0.7-2.2
						c-0.4,0.5-0.5,1.1-0.4,1.9l0.1,0.1C39.4,97.2,39.8,97.2,40.2,97.3z"/>
				</g>
				<g>
					<path class="st0x st1x customColor" d="M94.7,35.7c0,0.1-0.1,0.2-0.1,0.2c-0.5,1.5-1.6,2.4-3.1,2.7c-0.4,0.1-0.7,0-0.9-0.5c-0.9-2-0.7-4.1,0.2-6
						c0.4-0.6,0.9-1.2,1.4-1.9c0.1-0.2,0.2-0.2,0.1-0.5c-1.7-3.5-4-6.9-6.5-9.9c-0.6-0.7-1.2-1.5-1.9-2.2c-0.5-0.5-1-1-1.6-1.4
						c-1.5-1-4-0.6-5.1,0.7c-0.5,0.6-0.7,1.4-0.5,2.1c0.2,1,0.9,1.9,1.9,2.4c1.2,0.7,2.7,0,3-1.4c0.1-0.9-0.5-1.7-1.4-1.6
						c-0.5,0-0.6,0.2-0.5,0.6c0,0.5-0.2,0.9-0.6,0.9s-0.7-0.1-0.9-0.6c-0.1-0.4,0-0.7,0.1-1.1c0.6-1.1,2.1-1.6,3.2-0.9
						c1.5,0.9,2,3,1,4.4c-1.5,2.1-4.2,2.2-6,0.2c-0.7-0.9-1.2-1.9-1.4-3c-0.1-1.1,0.2-2.1,1.1-3c1.6-1.6,4.6-2.5,7.1-0.6
						c1.1,0.9,2.1,1.9,3,3c2.1,2.6,4.1,5.2,5.9,8.2c2.5,4.5,4.4,9.2,5.4,14.4c0.4,2.4,0.7,4.6,0.6,7s-1.1,4.1-3.4,5.2
						c-2.7,1.2-5.7-0.4-6-3.6c-0.1-0.7,0-1.5,0.2-2.1c0.5-1.4,1.9-2.2,3.4-2.1c1.2,0,2.6,1.1,2.9,2.5c0.2,0.9-0.2,2.1-1.1,2.5
						c-0.2,0.1-0.6,0.2-1,0.2s-0.7-0.4-0.7-0.7s0.2-0.6,0.7-0.6s0.6-0.2,0.5-0.6c-0.1-0.9-0.7-1.5-1.6-1.6c-0.9,0-1.6,0.5-1.9,1.4
						c-0.2,0.9-0.1,1.9,0.4,2.7c0.5,0.9,1.2,1.4,2.2,1.2c2.2-0.2,3.4-1.6,3.5-3.6c0.2-2.2,0-4.6-0.4-6.9c-0.4-1.7-0.9-3.5-1.2-5.2
						C94.9,36,94.9,35.9,94.7,35.7z M93.1,31.7c-1.4,1.4-2.1,3.7-1.4,5.2c0.7-0.2,1.4-0.9,1.6-1.7C93.7,34.2,93.5,32.9,93.1,31.7z"
						/>
				</g>
				<g>
					<path class="st0x st1x customColor" d="M3.4,35.8c-0.4,1.5-0.7,2.9-1.1,4.4c-0.5,2.6-0.9,5.2-0.7,7.9c0,0.7,0.2,1.5,0.6,2.1c0.7,1.2,2.4,2,3.9,1.7
						c0.5-0.1,1-0.4,1.2-0.9c0.6-0.9,0.9-1.9,0.6-3c-0.2-1.1-1.2-1.6-2.2-1.4c-0.6,0.1-1.4,1.1-1.2,1.7c0,0.2,0.2,0.4,0.5,0.4
						c0.5,0,0.7,0.2,0.7,0.7s-0.4,0.7-0.9,0.7c-0.7,0-1.2-0.4-1.6-1c-0.9-1.7,0.2-3.9,2.2-4.1c2.5-0.4,4.4,1.4,4.1,4
						c-0.1,0.9-0.4,1.6-0.7,2.2c-1,1.6-2.6,2.4-4.5,1.9c-2.3-0.3-3.4-2-3.9-4.1c-0.4-1.6-0.2-3.1-0.1-4.7c0.4-3.4,1-6.6,2.1-9.7
						c2.4-6.9,6.2-12.9,11.2-18.1c1-1,2-1.9,3.4-2.2c2.1-0.6,4.9,0.7,5.9,2.7c0.4,0.9,0.5,1.7,0.1,2.7c-0.6,1.7-1.6,3.1-3.6,3.5
						c-1.2,0.2-2.9-0.4-3.5-1.5c-0.7-1.1-0.7-2.4,0-3.5c0.9-1.2,2.2-1.6,3.5-0.7c0.7,0.5,1,1.2,0.9,2c-0.1,0.4-0.4,0.6-0.9,0.6
						c-0.5-0.1-0.6-0.4-0.6-0.9c0-0.1-0.1-0.4-0.2-0.5c-0.2-0.2-0.5-0.2-0.7-0.1c-0.6,0.4-1.1,1.2-0.9,1.9c0.4,1,1.5,1.6,2.6,1.2
						s2.2-1.7,2.2-3c0-1-0.5-1.6-1.2-2.2c-1.5-1.1-3.7-1-5.1,0.2c-2.2,2.2-4.4,4.6-6.1,7.4C8.3,26,7.2,27.8,6,29.7
						c-0.1,0.2-0.1,0.5,0.1,0.7c1.2,1.2,2,2.9,2.2,4.6c0.1,1.1-0.1,2.2-0.6,3.2c-0.1,0.4-0.5,0.5-0.9,0.4c-1.5-0.4-2.6-1.2-3.1-2.7
						v-0.1C3.5,35.8,3.4,35.8,3.4,35.8z M5.1,31.8L5.1,31.8c-0.2,0.9-0.4,1.6-0.4,2.5c0,1.1,0.4,2.1,1.5,2.6c0.1,0,0.2,0.1,0.2,0.1
						C7.1,35.3,6.5,33,5.1,31.8z"/>
				</g>
				<g>
					<path class="st0x st1x customColor" d="M43.4,13.6c0-3.5,1-6.7,2.7-9.7c0.6-1.1,1.5-2.2,2.2-3.4c0.5-0.6,1.1-0.6,1.6,0c1,1.4,1.9,2.7,2.5,4.2
						c1.4,3,2.1,6,2,9.4c-0.1,2-0.4,4-1.2,5.9c-0.6,1.2-1.4,2.2-2.7,2.9c-1.6,0.6-3.5,0.2-4.7-1c-1-1-1.6-2.4-2-3.7
						C43.6,16.6,43.4,15.1,43.4,13.6z M48.2,15.7C48.2,15.6,48.2,15.6,48.2,15.7c0.1-1.4,0.1-2.6,0.1-3.9c0-0.1-0.1-0.2-0.2-0.2
						c-0.5-0.4-1-0.6-1.5-0.9c-0.4-0.2-0.7-0.6-1.1-1c-0.1,0.9-0.2,1.7-0.4,2.6c0,0.2,0,0.6,0.1,0.9C45.7,14.3,46.9,14.9,48.2,15.7z
						 M53.1,15.1c-0.1,0-0.1,0-0.1,0.1c-0.9,0.9-1.9,1.5-3,2c-0.1,0-0.2,0.2-0.2,0.4c0,0.9,0,1.9,0,2.7c0,0.4,0,0.9,0,1.4
						c0.2-0.1,0.6-0.2,0.7-0.4c0.6-0.4,1.1-1,1.5-1.6C52.7,18.2,52.9,16.7,53.1,15.1z M49.8,15.4C49.8,15.6,49.8,15.6,49.8,15.4
						c0.7-0.4,1.4-0.7,2-1.2c1-0.9,1.5-1.9,1.1-3.2c-0.1-0.5-0.1-1-0.2-1.5C52,10.4,51,11,50,11.5c-0.1,0-0.1,0.2-0.1,0.4
						c0,1.1,0,2.2,0,3.4C49.8,15.2,49.8,15.3,49.8,15.4z M45.1,15.4c0.1,1.1,0.2,2.2,0.7,3.4c0.2,0.7,0.6,1.5,1.4,2.1
						c0.4,0.2,0.7,0.5,1.1,0.7c0-0.2,0-0.4,0-0.6c0-1,0-2,0-3c0-0.5,0-0.7-0.5-0.9c-0.2,0-0.4-0.1-0.6-0.2
						C46.4,16.3,45.7,15.9,45.1,15.4z M49.9,3C49.9,3,49.9,3.1,49.9,3c-0.1,2.2-0.1,4.5-0.1,6.7c0.6-0.2,1.5-0.9,1.7-1.5
						s0.5-1.1,0.1-1.7s-0.6-1.4-1-2C50.6,4,50.2,3.5,49.9,3z M48.3,9.8c0-2.2,0-4.5,0-6.7c-0.2,0.4-0.5,0.6-0.6,1
						c-0.5,0.9-0.9,1.7-1.4,2.6c-0.1,0.2-0.1,0.5-0.1,0.9C46.6,8.7,47.3,9.3,48.3,9.8z"/>
				</g>
				<g>
					<path class="st0x st1x customColor" d="M48.9,46.7c0.9-1.4,1.6-2.7,2.5-4.1c1.7-3,3.6-5.9,5.4-8.9c0.6-1,1.1-2,1.4-3.1c0.2-1.2,0-2.4-1-3.2
						c-1-1-2.1-1.5-3.6-1.5c-1,0-1.6,0.9-1.5,1.7c0,0.5,0.4,0.9,0.9,0.9c0.2,0,0.6,0,0.9,0c0.5-0.1,0.6-0.4,0.4-0.9
						c-0.2-0.4-0.1-0.7,0.1-1c0.4-0.2,0.7-0.2,1.1,0.1c0.5,0.6,0.5,1.6,0,2.4c-1,1.2-2.7,1.4-4,0.2c-0.7-0.7-1-1.6-0.7-2.7
						c0.2-1.1,1.1-1.9,2.2-2.1c2.9-0.7,6.1,1.5,6.7,4.4c0.2,1.4,0.1,2.6-0.6,3.7c-0.6,1.1-1.2,2.2-2,3.4c-2.5,4-4.9,8-7.4,12
						c-0.1,0.2-0.4,0.5-0.7,0.6c-0.4,0-0.7-0.1-1-0.5c-1.4-2.4-2.9-4.7-4.4-7c-1.5-2.5-3-4.9-4.5-7.4c-0.5-0.9-1-1.9-1.1-2.9
						c-0.5-2.9,1.5-5.7,4.5-6.2c1-0.1,1.9-0.2,2.7,0.1c1.5,0.5,2.2,2.1,1.6,3.6c-0.5,1.4-2.1,2.1-3.5,1.6c-1-0.4-1.6-1.2-1.5-2.2
						c0-0.4,0.2-0.6,0.4-0.9c0.4-0.5,1-0.4,1.2,0.1c0.1,0.1,0,0.5,0,0.6c-0.2,0.5-0.1,0.7,0.4,0.9c0.6,0.2,1.2,0,1.5-0.5
						c0.4-0.5,0.2-1.4-0.2-1.7c-0.6-0.5-1.2-0.5-2-0.4c-1.7,0.2-3.2,1.6-3.6,3.2c-0.1,0.9,0,1.6,0.2,2.4c0.2,0.6,0.6,1.4,1,2
						c2.6,4.2,5.2,8.5,7.9,12.7C48.8,46.4,48.8,46.5,48.9,46.7z"/>
				</g>
				<g>
					<path class="st0x st1x customColor" d="M38.4,12.6c0,3-1,5.1-2.9,7c-0.4,0.4-0.7,0.7-1.1,1.1c-1.9,1.7-2.1,4-1.2,6.2c0.4,1,1,1.7,1.6,2.5
						c0.4,0.4,0.4,0.7,0.1,1c-0.2,0.4-0.7,0.4-1.1,0.1c-1.7-1.7-2.7-3.9-2.6-6.4c0-1.4,0.5-2.6,1.5-3.7c0.5-0.6,1.1-1.1,1.6-1.7
						c0.1-0.1,0.2-0.2,0.1-0.4c0-1.6-0.4-3.2-1-4.9c-1.2-3-3.6-4.6-6.7-5.4c-0.6,0-1.2,0-1.9-0.2c-0.4,0-0.6-0.1-0.7-0.5
						s0-0.6,0.4-0.9c1.1-1,2.4-1.6,3.9-1.9c2-0.4,3.9-0.1,5.7,0.6c1.4,0.6,2.4,1.7,3.1,3.1C37.9,9.8,38.3,11.3,38.4,12.6z M36,16.6
						c0.1-0.1,0.2-0.4,0.2-0.5c1-2.5,0.9-5-0.5-7.4c-0.7-1.4-2-2.2-3.5-2.6c-1.2-0.2-2.4-0.2-3.6,0c-0.5,0.1-1,0.2-1.5,0.4v0.1
						C32.3,7.8,35.1,11.3,36,16.6z"/>
				</g>
				<g>
					<path class="st0x st1x customColor" d="M68.2,4.3c2.1,0,4,0.6,5.6,2.1C74,6.7,74.1,7,74,7.3c-0.1,0.4-0.4,0.5-0.7,0.5c-1.2,0-2.5,0.2-3.6,0.7
						c-3.1,1.2-4.9,3.6-5.6,6.9c-0.2,0.9-0.2,1.7-0.4,2.6c0,0.1,0.1,0.4,0.2,0.5c0.5,0.5,1,1,1.4,1.5c1.7,2.1,2.2,4.4,1.2,7
						c-0.5,1.2-1.1,2.4-2.1,3.4c-0.4,0.4-1,0.4-1.2-0.1c-0.1-0.4,0-0.6,0.2-0.9c0.9-0.9,1.5-1.7,1.9-2.9c0.6-1.9,0.5-3.6-0.9-5.1
						c-0.5-0.6-1-1.1-1.5-1.7c-1.4-1.2-2.4-2.7-2.7-4.6c-0.6-3,0.1-5.7,1.9-8.1c1.1-1.4,2.6-2,4.2-2.2C66.9,4.5,67.5,4.5,68.2,4.3z
						 M71.3,6.6c-0.2-0.1-0.4-0.1-0.5-0.2c-1.5-0.5-3-0.6-4.5-0.2c-1.1,0.2-2.1,0.6-2.9,1.5c-1.7,2.1-2.5,4.6-1.9,7.4
						c0.1,0.6,0.4,1.1,0.6,1.6h0.1C63.2,11.3,65.9,7.8,71.3,6.6z"/>
				</g>
				<g>
					<path class="st0x st1x customColor" d="M45.1,90c0-3.4,1.1-6,2.9-8.5c0.1-0.2,0.4-0.4,0.5-0.6c0.5-0.6,1.1-0.6,1.6,0c0.7,1,1.5,2.2,2,3.4
						c1.1,2.7,1.5,5.6,0.7,8.6c-0.2,0.9-0.6,1.7-1.2,2.4c-1.5,1.6-3.5,1.5-4.9-0.1c-0.7-0.9-1.1-2.1-1.4-3.2
						C45.1,91.2,45.1,90.5,45.1,90z M48.3,90.7c0-0.7,0-1.4,0-2.1c0,0,0-0.1-0.1-0.1c-0.5-0.4-1-0.6-1.5-0.9
						C46.3,89.1,46.8,90.1,48.3,90.7z M51.3,87.6c-0.5,0.2-0.9,0.6-1.4,0.9l-0.1,0.1c0,0.6,0,1.2,0,2C51.3,89.8,51.8,88.8,51.3,87.6
						z M51.4,91.5c-0.5,0.4-1,0.6-1.5,0.9c-0.1,0-0.1,0.1-0.1,0.1c0,0.7,0,1.5,0,2.2C51.1,94,51.2,92.7,51.4,91.5z M48.2,94.6
						c0-0.6,0-1.4,0-2c0,0,0-0.1-0.1-0.1c-0.5-0.2-1-0.5-1.5-0.9C46.9,92.7,47.1,93.8,48.2,94.6z M49.8,86.7c0.9-0.5,1-1,0.6-1.9
						c-0.1-0.2-0.2-0.5-0.4-0.9c-0.1-0.1-0.1-0.2-0.2-0.4c0,0,0,0-0.1,0C49.8,84.7,49.8,85.7,49.8,86.7z M48.3,83.9
						C48.3,83.9,48.2,83.9,48.3,83.9c-0.2,0.4-0.5,0.9-0.7,1.2c-0.2,0.6,0,1.4,0.7,1.6C48.3,85.7,48.3,84.7,48.3,83.9z"/>
				</g>
				<g>
					<path  class="st0x st1x customColor" d="M56.3,78.4c0.4,0.2,0.9,0.5,1.2,0.7c0.7,0.6,1.4,1.2,1.6,2.2c0.5,2.7-2.1,5.5-5,4.6c-0.6-0.1-0.9-0.7-0.5-1.2
						c1.4-2,1.4-4,0.1-6c-0.1-0.2-0.2-0.5-0.2-0.6c0-0.4,0.4-0.6,0.6-0.6c0.6-0.1,1.1-0.4,1.5-0.7c2.2-2,3.5-4.6,3.2-7.6
						c-0.1-2.7-1.2-5.2-2.7-7.5c-0.2-0.5-0.6-0.9-1-1.2c-0.2-0.4-0.4-0.6,0-1.1c2.2-3.5,4.5-7,6.7-10.6c0.2-0.5,0.7-0.6,1.1-0.4
						c0.4,0.2,0.5,0.6,0.2,0.9c-0.1,0.2-0.2,0.4-0.4,0.6c-2,3.1-4,6.2-6,9.5c-0.1,0.2-0.2,0.5,0,0.7c1.6,2.2,3,4.7,3.4,7.5
						c0.6,3.6-0.5,6.7-2.7,9.6C57.2,77.6,56.7,78,56.3,78.4z M55.5,84.6c1-0.1,2-1.1,2.1-2.1s-0.6-2.1-1.9-2.6
						C56.4,81.5,56.3,83.1,55.5,84.6z"/>
				</g>
				<g>
					<path  class="st0x st1x customColor" d="M41.9,78.4c-2.4-1.6-3.5-4-4-6.7c-0.4-1.9-0.1-3.6,0.4-5.5c0.6-2.2,1.6-4.2,3-6.1c0.1-0.2,0.2-0.4,0-0.6
						c-2.1-3.2-4.1-6.6-6.2-9.9c-0.1-0.2-0.2-0.5-0.2-0.7s0.4-0.4,0.6-0.5c0.2-0.1,0.6,0,0.7,0.2c0.2,0.2,0.4,0.6,0.6,0.9
						c2,3.2,4.1,6.5,6.1,9.7c0.4,0.6,0.4,0.7-0.1,1.2c-1.6,2.1-3,4.4-3.4,7.1c-0.6,3.4,0.1,6.4,2.6,8.9c0.6,0.6,1.2,1,2.1,1.1
						c0.6,0.1,0.9,0.6,0.5,1.1c-0.5,0.7-0.9,1.5-1,2.5c-0.2,1.4,0.1,2.5,0.9,3.5c0.5,0.7,0.4,1.1-0.5,1.4c-2.2,0.6-4.6-1.1-4.9-3.5
						c-0.1-1.4,0.4-2.5,1.5-3.4C41.1,78.9,41.4,78.6,41.9,78.4z M42.7,84.6c-0.7-1.5-0.9-3.1-0.4-4.7c-1.2,0.5-2,1.6-1.7,2.7
						C40.8,83.6,41.8,84.6,42.7,84.6z"/>
				</g>
				<g>
					<path class="st0x st1x customColor" d="M67.2,74.4c-0.9,0-1.7-0.5-2.5-1.2c-0.9-1.1-1.2-2.4-0.9-3.7c0.2-1,0.9-1.5,1.7-1.7c1-0.2,1.9-0.1,2.5,0.6
						c0.5,0.5,0.5,1.1,0.4,1.7c-0.1,0.4-0.4,0.6-0.9,0.5c-0.4-0.1-0.6-0.4-0.6-0.7c0-0.5-0.1-0.6-0.5-0.6c-0.7-0.1-1.2,0.4-1.2,1
						s0.2,1.2,0.5,1.9c0.5,0.7,1.2,1.1,2,1c0.9-0.1,1.5-0.7,1.6-1.6c0.2-1.1,0-2.2-0.7-3.1c-0.5-0.6-1.1-1.2-1.7-1.9
						c-0.7-0.7-1.6-1.5-2.4-2.2c-0.9-0.9-1.4-2-1.6-3.2c-0.2-1.5,0.6-2.4,2.1-2c0.7,0.2,1.4,0.6,1.7,1.4c0.5,1.2,0.6,2.5,0.2,3.7
						c-0.1,0.2,0,0.4,0.1,0.6c1,0.9,2,1.7,2.7,2.9c1,1.4,1.4,3,0.7,4.6C70.3,73.5,69,74.4,67.2,74.4z M64.5,60.1
						c-0.1,0.9,0.5,2.4,1.2,2.7c0-0.6,0.1-1.2-0.1-1.9C65.4,60.4,65,60.1,64.5,60.1z"/>
				</g>
				<g>
					<path class="st0x st1x customColor" d="M30.8,74.5c-2.5-0.1-3.7-2.4-3.5-4.4c0.2-1.9,1.2-3.2,2.6-4.5c0.4-0.4,0.7-0.7,1.2-1.1c0.1-0.1,0.2-0.2,0.1-0.5
						c-0.2-1.1-0.4-2.2,0-3.4c0.4-1.1,1.2-1.7,2.4-2c0.9-0.1,1.7,0.5,1.7,1.5c0,0.7-0.2,1.4-0.5,2c-0.5,1.1-1.2,2-2.1,2.7
						c-0.7,0.7-1.6,1.5-2.4,2.2c-1,1-1.6,2.2-1.5,3.7c0,1.2,0.9,2.1,2,2.1c1.5,0,2.6-1.7,2.2-3.1c-0.1-0.5-1-1-1.5-0.6
						c-0.1,0.1-0.2,0.2-0.2,0.4s0,0.4,0,0.5c-0.1,0.2-0.5,0.5-0.7,0.5c-0.4,0-0.5-0.2-0.6-0.5c-0.2-0.9,0.1-1.6,0.9-2.1
						c1.4-0.7,3.9-0.2,3.9,2.4c0,1.7-1,3.2-2.5,3.9C31.7,74.2,31.3,74.4,30.8,74.5z M32.6,62.9c0.9-0.6,1.5-2,1.2-2.7
						c-0.2,0-0.5,0-0.7,0.2C32.5,61.1,32.5,62,32.6,62.9z"/>
				</g>
				<g>
					<path class="st0x st1x customColor" d="M17.1,28.7c0.6-0.2,1-0.7,0.9-1.2s-0.7-0.7-1.4-0.6c-0.7,0.2-1.4,0.6-1.9,1.2c-1.1,1.2-1.5,2.6-1.6,4.2
						c-0.1,2.5,0.4,4.9,1.2,7.2c0.4,1,0.6,1.9,0.7,2.9c0.1,1.4-0.7,2.4-2.1,2.5c-1,0.1-1.9-0.6-2.1-1.6c-0.2-1,0.2-1.9,1.1-2.2
						c0.2-0.1,0.5-0.1,0.6,0c0.2,0.1,0.5,0.4,0.5,0.6c0,0.2-0.1,0.5-0.4,0.6c-0.1,0.1-0.4,0.4-0.4,0.5c0,0.2,0.2,0.4,0.5,0.5
						c0.4,0.1,0.7-0.1,0.7-0.6c0-0.6-0.1-1.2-0.2-1.7c-0.4-1.2-0.7-2.4-1.1-3.6c-0.5-1.7-0.6-3.6-0.5-5.5c0.2-2.5,1.1-4.6,3.5-6
						c0.6-0.4,1.4-0.6,2.1-0.6c1,0.1,1.9,1,2.1,2s-0.2,2-1.1,2.5c-0.5,0.2-1,0.4-1.5,0.4c-1-0.1-1.7-1.1-1.2-2.1
						c0.2-0.5,0.7-0.7,1.2-0.6c0.4,0.1,0.6,0.5,0.5,0.9C17.2,28.4,17.1,28.6,17.1,28.7z"/>
				</g>
				<g>
					<path class="st0x st1x customColor" d="M81.3,28.7c-0.1-0.1-0.1-0.2-0.2-0.5c-0.1-0.6,0.4-1.1,1.1-0.9c0.6,0.2,1,1,0.7,1.7c-0.2,0.5-0.6,0.7-1,0.9
						c-0.9,0.2-1.7,0-2.4-0.6s-0.7-1.5-0.5-2.2c0.4-1.4,1.7-2.1,3.1-1.6c2,0.6,3.2,2,4,3.7c0.7,1.6,0.7,3.5,0.6,5.2
						c-0.2,2.2-0.7,4.4-1.5,6.5c-0.1,0.4-0.2,0.9-0.4,1.4c0,0.2,0,0.5,0,0.7s0.1,0.5,0.5,0.5s0.6-0.1,0.7-0.5s-0.1-0.5-0.4-0.6
						c-0.2-0.1-0.5-0.4-0.4-0.6c0.1-0.2,0.2-0.5,0.5-0.6c0.1-0.1,0.5-0.1,0.6,0c1,0.4,1.4,1.4,1.1,2.4C87,44.7,86,45.3,85,45.1
						c-1.4-0.2-2.1-1.4-1.7-2.7c0.1-0.9,0.5-1.7,0.7-2.6c0.7-2.4,1.4-4.6,1.2-7.1c-0.1-1.2-0.4-2.5-1.1-3.6
						c-0.5-0.9-1.4-1.5-2.2-1.9c-0.7-0.2-1.2-0.1-1.4,0.5C80.1,27.9,80.5,28.4,81.3,28.7z"/>
				</g>
				<g>
					<path class="st0x st1x customColor" d="M48.9,37.7c-2.1,0-4-0.9-5.4-2.6c-0.4-0.4-0.4-0.7,0-1.1c2.7-3.5,8-3.5,10.9-0.1c0.4,0.5,0.4,0.7,0,1.2
						C52.9,36.8,51.2,37.5,48.9,37.7z M50.9,33.8c0.2,0.9,0,1.5-0.6,2.1c1.1-0.4,1.9-0.7,2.6-1.5c-0.9-0.7-1.7-1.5-3-1.4
						c-0.4,0-0.7,0.2-0.7,0.6c-0.1,0.4,0.1,0.7,0.5,0.9c0.4,0.1,0.7,0,1-0.4C50.8,34.2,50.8,34,50.9,33.8z M47.6,35.9
						c-0.9-1-0.9-2,0-3c-1,0.2-1.7,0.7-2.5,1.5C45.7,35.2,46.4,35.7,47.6,35.9z"/>
				</g>
				<g>
					<path class="st0x st1x customColor" d="M12.7,84c-0.1-0.1-0.4-0.1-0.5-0.2c-1.6-1.4-3-2.9-4.2-4.6c-0.9-1.4-1.7-2.7-2.6-4.2c-0.2-0.5-0.2-0.9,0.1-1.1
						c0.4-0.2,0.9-0.1,1.1,0.4C7.4,75.4,8.1,76.7,9,78c1.2,1.7,2.6,3.4,4.4,4.7c0.2,0.2,0.4,0.4,0.2,0.7C13.5,83.9,13.2,84,12.7,84z
						"/>
				</g>
				<g>
					<path class="st0x st1x customColor" d="M85.4,84c-0.5,0-0.7-0.2-0.9-0.5c-0.1-0.2,0-0.5,0.2-0.7c2.7-2.2,4.7-5.1,6.5-8.2c0.1-0.1,0.1-0.2,0.2-0.4
						c0.2-0.5,0.6-0.6,1-0.4s0.5,0.6,0.2,1.1c-1.1,2-2.2,3.9-3.7,5.6c-1,1.2-2,2.2-3.2,3.2C85.8,83.9,85.5,84,85.4,84z"/>
				</g>
				<g>
					<path class="st0x st1x customColor" d="M45.7,1c0,0.5-0.2,0.7-0.7,0.7c-1.1,0.1-2.2,0.1-3.4,0.2c-2.5,0.2-5,0.7-7.4,1.7c-0.5,0.2-1,0-1.1-0.4s0-0.7,0.4-0.9
						c1.2-0.5,2.6-1,3.9-1.2c2.4-0.6,4.9-0.9,7.4-1C45.4,0.3,45.7,0.6,45.7,1z"/>
				</g>
				<g>
					<path class="st0x st1x customColor" d="M53.6,0.3c3.2,0.1,6.6,0.6,9.7,1.7c0.5,0.1,1,0.4,1.5,0.6c0.5,0.1,0.6,0.5,0.5,0.9s-0.6,0.6-1,0.5
						c-0.3,0-0.5-0.2-0.8-0.2C61.4,3,59,2.5,56.8,2.2C55.5,2,54.4,2,53.3,1.8c-0.2,0-0.5-0.1-0.6-0.4c-0.4-0.5,0-1.1,0.6-1.1
						C53.4,0.3,53.4,0.3,53.6,0.3z"/>
				</g>
				<g>
					<path class="st0x st1x customColor" d="M48.9,60.5c0.5,0.9,1,1.6,1.5,2.4c0.6,1,1.2,2,1.7,2.9c0.6,1.1,0.6,2.2,0.4,3.4c-0.5,1.6-1.5,2.5-3.1,2.6
						c-0.6,0-1.4,0-2-0.1c-1.5-0.4-2.4-1.4-2.4-3c-0.1-1.5,0.2-2.7,1.1-4c0.9-1.2,1.6-2.5,2.5-3.7C48.7,60.9,48.8,60.8,48.9,60.5z
						 M48.8,63.8c-0.7,1-1.5,2-1.9,3.1c-0.1,0.4-0.2,0.7-0.4,1.1c-0.1,0.9,0.1,1.5,1,1.9c0.7,0.2,1.5,0.2,2.2,0.1
						c1.1-0.2,1.5-1,1.2-2.1C50.7,66.3,49.8,65.1,48.8,63.8z"/>
				</g>
			</g>
		</g>
	</g>
	<g>
		<g>
			<g>
				<g>
					<path class="st0x st1x customColor" d="M245.3,51.4c-1.1,0-2.4,0-3.5,0c-0.1,0-0.2-0.1-0.4-0.2c-0.6-1.5-1.2-2.9-1.7-4.4c-0.1-0.2-0.2-0.4-0.6-0.4
						c-2.5,0.1-5,0.1-7.5,0c-0.4,0-0.5,0-0.6,0.4c-0.6,1.5-1.2,2.9-1.7,4.4c-0.1,0.4-0.2,0.4-0.7,0.4c-0.7-0.1-1.5-0.1-2.4,0
						c-0.2,0-0.4,0-0.6,0c0-0.1,0.1-0.2,0.1-0.4c2.7-6.4,5.4-12.6,8.1-19c0.1-0.4,0.4-0.4,0.7-0.4c0.6,0.1,1.4,0,2,0
						c0.4,0,0.5,0.1,0.6,0.4c2.6,6.2,5.4,12.6,8.1,18.8C245,51.1,245.2,51.3,245.3,51.4L245.3,51.4z M232.3,43.2h5.7
						c-1-2.2-1.9-4.6-2.9-6.9C234.2,38.5,233.3,40.8,232.3,43.2z"/>
				</g>
				<g>
					<path class="st0x st1x customColor" d="M141.3,37.4c-0.1,0.1-0.1,0.2-0.2,0.4c-1.9,2.6-3.7,5.2-5.7,7.9c-0.4,0.5-0.6,0.5-1,0c-1.9-2.6-3.9-5.2-5.7-7.9
						c-0.1-0.1-0.1-0.2-0.4-0.5c0,4.7,0,9.4,0,14.1c-0.1,0-0.2,0-0.4,0c-0.9,0-1.7,0-2.6,0c-0.4,0-0.5-0.1-0.5-0.5c0-4.4,0-8.6,0-13
						c0-1.9,0-3.9,0-5.7c0-0.1,0-0.2,0-0.5c0.1,0,0.2,0,0.4,0c0.9,0,1.9,0,2.7,0c0.2,0,0.4,0.1,0.5,0.2c2.1,2.9,4.1,5.6,6.2,8.5
						c0.1,0.1,0.2,0.2,0.2,0.4c0.1-0.1,0.1-0.2,0.2-0.4c2-2.9,4-5.6,6-8.5c0.1-0.2,0.2-0.2,0.6-0.2c1,0,2,0,3,0c0,6.5,0,13.1,0,19.6
						c-1.1,0-2.2,0-3.5,0C141.3,46.8,141.3,42,141.3,37.4L141.3,37.4z"/>
				</g>
				<g>
					<path class="st0x st1x customColor" d="M162.8,51.4c1.7-2.5,3.4-5,5-7.5c-0.5-0.4-1.1-0.7-1.5-1.1c-1.4-1.2-2-2.9-1.9-4.9c0.1-2.9,2.1-5.6,5.9-6.1
						c1.9-0.2,3.7-0.1,5.6-0.1c0.5,0,1,0,1.6,0c0,0.1,0,0.4,0,0.5c0,6.2,0,12.6,0,18.8c0,0.4-0.1,0.5-0.4,0.5c-0.9,0-1.9,0-2.7,0
						c-0.2,0-0.4-0.1-0.4-0.4c0-2,0-4,0-6c0-0.1,0-0.2,0-0.5c-0.6,0-1.2,0-1.9,0c-0.7-0.1-1.1,0.2-1.5,0.7c-1.2,1.9-2.5,3.9-3.7,5.7
						c-0.1,0.2-0.2,0.4-0.6,0.2c-1,0-2.1,0-3.1,0C163.2,51.4,163,51.4,162.8,51.4z M174,35c-0.9,0-1.6-0.1-2.5,0
						c-0.6,0-1.2,0.1-1.7,0.4c-1.4,0.6-2,2.1-1.6,3.6c0.2,1.4,1.6,2.4,3.1,2.4c0.7,0,1.5,0,2.4,0c0.4,0,0.5-0.1,0.5-0.5
						c0-1.9,0-3.7,0-5.5C174.1,35.3,174,35.2,174,35z"/>
				</g>
				<g>
					<path class="st0x st1x customColor" d="M201.8,35c-2.1,0-4.2,0-6.4,0c0-1.1,0-2.1,0-3.2c5.5,0,10.9,0,16.4,0c0,0.1,0,0.2,0,0.4c0,0.9,0,1.7,0,2.5
						c0,0.2-0.1,0.4-0.4,0.4c-1.9,0-3.7,0-5.6,0c-0.1,0-0.2,0-0.5,0c0,0.2,0,0.4,0,0.5c0,5.1,0,10.4,0,15.5c0,0.4-0.1,0.5-0.5,0.5
						c-0.9,0-1.7,0-2.6,0c-0.5,0-0.5,0-0.5-0.5c0-5.1,0-10.2,0-15.5C201.8,35.4,201.8,35.2,201.8,35z"/>
				</g>
				<g>
					<path class="st0x st1x customColor" d="M136.4,63.5c-0.2-0.5-0.7-0.7-1.2-0.6c-0.4,0.2-0.6,0.7-0.4,1.2c0.1,0.2,0.4,0.6,0.5,0.9c1,1,2.1,1.5,3.5,1.6
						c2.5,0.1,4.9-0.6,7.1-1.7c0.9-0.4,1.6-0.9,2.5-1.2c0.6-0.2,1.2-0.4,1.9-0.2c1,0.2,1.5,1.4,1.2,2.4c-0.2,1-1.4,1.6-2.2,1.4
						c-0.5-0.1-0.9-0.4-1.1-0.9c-0.2-0.4-0.1-0.7,0.2-1c0.2-0.2,0.6-0.1,0.9,0.2c0.1,0.1,0.2,0.4,0.6,0.2c0.2-0.1,0.4-0.4,0.4-0.7
						c0-0.2-0.2-0.4-0.5-0.4c-0.6,0-1.2,0.4-1.7,0.6c-1.2,0.6-2.6,1.2-3.9,1.7c-1.6,0.6-3.4,1-5.1,0.9c-2-0.1-3.7-0.9-4.9-2.6
						c-0.5-0.6-0.7-1.4-0.6-2.2c0.2-1.1,1.5-1.9,2.6-1.7c1,0.1,1.9,1.4,1.7,2.5c-0.1,0.9-1.1,1.5-1.9,1.1c-0.4-0.1-0.6-0.6-0.6-1.1
						c0.1-0.4,0.4-0.5,0.7-0.5C136.2,63.5,136.3,63.5,136.4,63.5z"/>
				</g>
				<g>
					<path class="st0x st1x customColor" d="M233.9,63.5L233.9,63.5c0.6-0.1,1,0.1,1.1,0.5c0.1,0.5-0.2,1-0.7,1.1c-0.9,0.2-1.6-0.5-1.7-1.4c0-1.1,0.9-2.1,1.7-2.2
						c1.6-0.2,3,1.4,2.5,3c-0.4,1.2-1.4,2.1-2.5,2.7c-1.4,0.9-3,1-4.6,0.7c-2.5-0.2-4.7-1.1-6.9-2.4c-0.6-0.4-1.2-0.5-1.9-0.9
						c-0.1,0-0.2,0-0.4,0c-0.5,0-0.6,0.2-0.5,0.7c0.1,0.4,0.5,0.5,0.7,0.1c0.4-0.5,0.6-0.5,1-0.2c0.4,0.2,0.4,0.7,0,1.1
						c-0.5,0.7-1.4,0.9-2.2,0.5s-1.2-1.4-1.1-2.2c0.2-1.1,1.2-1.7,2.4-1.5c0.9,0.2,1.6,0.6,2.4,1c1.7,0.9,3.5,1.7,5.4,2
						c1.4,0.2,2.7,0.4,4-0.1c0.9-0.4,1.6-0.9,2.2-1.6c0.1-0.2,0.2-0.5,0.4-0.7c0.1-0.4-0.1-0.9-0.4-1c-0.2-0.1-0.7-0.1-1,0.2
						C234.1,63.4,233.9,63.4,233.9,63.5z"/>
				</g>
				<g>
					<path class="st0x st1x customColor" d="M191.5,65.8c0-0.1,0-0.4,0-0.5c0-1.1,0-2.1,0-3.2c0-0.2,0.1-0.4,0.4-0.4c0.9,0,0.7-0.1,0.7,0.7c0,1.6,0,3.4,0,5
						c0,0.1,0,0.2,0,0.4c-0.5,0.1-1,0.1-1.2-0.4c-0.9-1.1-1.7-2.2-2.6-3.2c-0.1-0.1-0.1-0.2-0.4-0.4c0,1.5,0,2.7,0,4.1
						c-0.4,0-0.7,0-1,0c0-0.1,0-0.2,0-0.4c0-1.7,0-3.5,0-5.1c0-0.1,0-0.4,0.1-0.5c0.2-0.1,0.7,0,1,0.1c0.7,0.9,1.5,1.9,2.2,2.7
						C190.7,65,191,65.4,191.5,65.8C191.4,65.8,191.4,65.8,191.5,65.8z"/>
				</g>
				<g>
					<path class="st0x st1x customColor" d="M176.4,64.8c0,1.9-1.4,3.2-3.2,3.2c-2,0-3.2-1.2-3.2-3.2c0-1.9,1.4-3.1,3.2-3.1C175.1,61.6,176.5,63,176.4,64.8z
						 M175.3,64.8c0-1.2-0.9-2.2-2.1-2.1c-1.1,0-2.1,1-2.1,2.1s0.9,2.1,2,2.1C174.4,67,175.3,66.1,175.3,64.8z"/>
				</g>
				<g>
					<path class="st0x st1x customColor" d="M200.7,64.6c0,0.9,0,1.6,0,2.4c0,0.1,0,0.1-0.1,0.2c-1.2,1.1-4.4,1.2-5.2-1.1c-0.5-1.2-0.2-2.9,0.7-3.7
						c1-0.9,2.9-1.1,4-0.4c0.1,0,0.1,0.1,0.2,0.1c-0.1,0.2-0.2,0.5-0.4,0.7c-0.4-0.1-0.7-0.2-1-0.4c-1-0.1-1.7,0.1-2.1,0.9
						c-0.5,0.7-0.4,2,0.1,2.6c0.6,0.7,1.9,1,2.7,0.4c0.1,0,0.1-0.1,0.1-0.2c0-0.2,0-0.5,0-0.7c-0.5,0-1,0-1.5,0c0-0.4,0-0.6,0-1
						C199,64.6,199.9,64.6,200.7,64.6z"/>
				</g>
				<g>
					<path class="st0x st1x customColor" d="M179,61.8c1-0.2,1.1-0.1,1.1,0.9s0,1.9,0,2.9c0,0.9,0.6,1.4,1.4,1.5c0.9,0,1.4-0.4,1.4-1.2c0-0.4,0.1-0.7,0.1-1.1
						c0-1,0-1.9,0-2.9c0.4,0,0.7,0,1.1,0c0,1,0,2,0,3c0,0.4,0,0.9-0.1,1.2c-0.2,1.1-1,1.9-2.1,2c-1.7,0.1-3-0.9-3-2.7
						C179,64.1,179,63,179,61.8C179,61.9,179,61.8,179,61.8z"/>
				</g>
				<g>
					<path class="st0x st1x customColor" d="M204.6,62.8c0,0.5,0,1,0,1.5c0.7,0,1.5,0,2.2,0c0,0.4,0,0.6,0,1c-0.7,0-1.5,0-2.1,0c0,0.5,0,1,0,1.5c0.9,0,1.6,0,2.5,0
						c0,0.4,0,0.6,0,1c-0.1,0-0.2,0-0.2,0c-1,0-2,0-3.1,0c-0.2,0-0.4-0.1-0.4-0.4c0-1.9,0-3.6,0-5.5c0-0.2,0.1-0.4,0.4-0.4
						c1,0,2,0,3,0c0.2,0,0.4,0.1,0.4,0.4c0,0.9,0.1,0.7-0.7,0.7C205.7,62.8,205.2,62.8,204.6,62.8z"/>
				</g>
				<g>
					<path class="st0x st1x customColor" d="M168.3,66.9c0,0.4,0,0.6,0,0.9c0,0.1-0.1,0.1-0.2,0.1c-1.1,0-2.2,0-3.4,0c-0.2,0-0.2-0.1-0.2-0.2c0-1.9,0-3.7,0-5.6
						c0-0.1,0.1-0.2,0.1-0.2c0.2,0,0.6,0,0.9,0c0,0,0.1,0.2,0.1,0.4c0,1.4,0,2.9,0,4.2c0,0.1,0,0.4,0,0.5
						C166.4,66.9,167.3,66.9,168.3,66.9z"/>
				</g>
			</g>
		</g>
	</g>
</g>
</svg>
