<?xml version="1.0" encoding="utf-8"?>
<!-- Generator: Adobe Illustrator 23.0.6, SVG Export Plug-In . SVG Version: 6.00 Build 0)  -->
<svg version="1.1" id="Layer_1" xmlns="http://www.w3.org/2000/svg" xmlns:xlink="http://www.w3.org/1999/xlink" x="0px" y="0px"
	 viewBox="0 0 218 100" style="enable-background:new 0 0 218 100;" xml:space="preserve">
<style type="text/css">
	.st0b{fill:#589BDE;}
	.st1b{fill:#8F8F8E;}
	.st2b{fill-rule:evenodd;clip-rule:evenodd;fill:#589BDE;}
	.st3b{fill-rule:evenodd;clip-rule:evenodd;fill:#8F8F8E;}
</style>
<g>
	<g>
		<path class="st0b customColor" d="M84.5,99C84.5,99,84.6,99,84.5,99L84.5,99L84.5,99z M99,84L99,84C99,84.1,99,84.1,99,84c0,0.1,0,0.1-0.1,0.2
			v0.1v0.1l0,0v0.1c0,0,0,0,0,0.1v0.1c0,0,0,0.1-0.1,0.1c0,0.1,0,0.1,0,0.1l0,0c0,0,0,0,0,0.1l-0.1,0.1c0,0,0,0.1-0.1,0.1v0.1
			c0,0,0,0,0,0.1s-0.1,0.1-0.1,0.2l0,0l0,0l0,0l0,0c0,0,0,0,0,0.1c0,0,0,0,0,0.1c0,0-0.1,0.1-0.1,0.2c0,0,0,0,0,0.1h-0.1l0,0
			c0,0,0,0,0,0.1l0,0l-0.1,0.1c0,0,0,0,0,0.1c-0.1,0-0.1,0-0.1,0.1c0,0,0,0,0.1,0l0,0v0.1l0,0l0,0V87l0,0c0,0-0.1,0-0.1,0.1
			c0,0,0,0,0,0.1L98,87.3c0,0,0,0,0,0.1c0,0-0.1,0-0.1,0.1c0,0,0,0.1-0.1,0.1c0,0,0,0,0,0.1s-0.1,0.1-0.1,0.2l0,0l0,0l0,0L97.6,88
			l0,0c0,0,0,0.1-0.1,0.1v0.1c0,0,0,0,0,0.1c0,0,0,0,0-0.1v0.1c0,0-0.1,0,0,0.1h0.1c0,0.1,0,0.1-0.1,0.1l0,0c0,0,0,0,0,0.1l0,0l0,0
			c0,0,0,0.1-0.1,0.1l-0.1,0.1v0.1l0,0h-0.1V89c0,0.1-0.1,0.1-0.1,0.1v0.1c0,0,0,0,0.1,0v0.1c0,0,0,0-0.1,0.1c0,0,0,0,0,0.1l0,0l0,0
			c0,0.1-0.1,0-0.1,0.1l0,0c0,0-0.1,0,0,0.1h-0.1h-0.1c0,0.1,0,0.1,0,0.2l0,0c0,0,0,0.1-0.1,0.1c0,0,0,0,0-0.1l0,0V90
			c0,0-0.1,0-0.1,0.1c0,0-0.1,0-0.1,0.1l0,0v0.1l0,0l0,0l0,0v0.1H96l0.1,0.1c0,0,0,0-0.1,0l-0.1,0.1c0,0,0,0.1-0.1,0.1l0,0
			c0,0,0,0-0.1,0.1l0,0l0,0c0,0,0,0-0.1,0c0,0,0,0,0.1,0c0,0,0,0.1-0.1,0.1l0,0l0,0c0,0,0,0,0.1,0l0,0c0,0,0,0.1-0.1,0.1
			c0,0,0,0.1-0.1,0.1l0,0c0,0,0,0-0.1,0c0,0.1,0,0.1-0.1,0.1c0,0,0,0,0,0.1h0.1l0,0l0,0l0,0l0,0l0,0l0,0l0,0h-0.1l0,0l0,0
			c0,0,0.1,0,0.1-0.1l0,0l0,0c0,0.1,0,0.1-0.1,0.1c0,0,0,0,0,0.1l0,0l0,0c0,0,0,0-0.1,0v0.1v0.1l0,0l0,0l0,0l0,0c0,0,0,0-0.1,0l0,0
			c0,0.1-0.1,0.1-0.2,0.2h-0.1c0,0,0,0.1-0.1,0.1h0.1L94.7,92c0,0,0,0.1-0.1,0.1l0,0l0,0l0,0l0,0l0,0c0,0,0,0.1-0.1,0.1
			c0,0,0,0,0-0.1l0,0c0,0,0,0,0,0.1c0,0,0,0-0.1,0.1l0,0l0,0c0,0-0.1,0,0,0.1c0,0-0.1,0-0.1,0.1L94,93.4c0,0,0,0.1-0.1,0.1v0.1
			l0.1-0.1c0,0,0,0-0.1,0.1h-0.1l0,0l0,0c0,0,0,0,0,0.1l0,0l0,0l0,0c-0.1,0-0.1,0.1-0.1,0.1s0,0,0.1,0.1c0,0,0,0.1-0.1,0.1
			c0,0-0.1,0-0.1,0.1c0,0,0,0-0.1,0.1v-0.1h-0.1v0.1l0,0c-0.1,0-0.1,0.1-0.1,0.1s0,0.1-0.1,0.1c0,0,0,0.1-0.1,0.1
			c0,0.1-0.1,0.1-0.1,0.2l0,0c0,0,0,0,0.1,0l0,0L92.8,95c0,0,0,0,0,0.1c0,0,0,0,0.1,0l0,0l0,0h-0.1v0.1l0,0c0,0-0.1,0-0.1,0.1v0.1
			c0,0,0.1-0.1,0.1,0h-0.1l0,0c-0.1,0-0.1,0-0.1,0.1l0,0l0,0l-0.1,0.1l0,0c0,0,0,0-0.1,0c0,0,0,0,0-0.1h-0.1v0.1c0,0-0.1,0-0.1,0.1
			l0,0c0,0-0.1,0-0.1,0.1c0,0,0,0.1-0.1,0.1h0c0,0.1-0.1,0.1-0.1,0.2c0,0-0.1,0.1-0.1,0.2l0,0c0,0,0,0-0.1,0l0,0
			c0,0-0.1,0.1-0.1,0.2l0,0l0,0c0,0,0,0,0,0.1c0,0,0,0-0.1,0l0,0l0,0l0,0L91.3,97c0,0,0,0,0.1,0v0.1c0,0,0,0-0.1-0.1l-0.1,0.1l0,0
			c0,0,0,0,0,0.1l0,0v0.1l-0.1,0.1c0,0,0,0-0.1,0l0,0c0,0,0,0,0.1,0l0,0c0,0.1-0.1,0.1-0.2,0.1c0,0,0,0,0-0.1l0,0l0,0l0,0
			c0,0-0.1,0-0.1,0.1l-0.1,0.1c0,0,0,0-0.1,0v0.1l0,0v0.1l0,0c0,0,0,0,0.1-0.1l0,0c-0.1,0.1-0.2,0.2-0.3,0.2L90.2,98l0,0
			c0,0,0,0,0-0.1H90c0,0,0,0,0,0.1h0.1l0,0c-0.1,0-0.1,0.1-0.2,0.1c0,0,0,0-0.1,0.1c0,0,0,0-0.1,0l0,0l0,0c-0.1,0-0.2,0.1-0.3,0.2
			h-0.1l0,0l0,0l0,0l0,0l0,0l0,0l0,0l0,0l0,0l0,0c0,0,0,0-0.1,0l0,0l0,0l0,0v0.1l0,0h-0.1l0,0l0,0l0,0l0,0l0,0l-0.2,0.1
			c0,0-0.1,0-0.1,0.1c0,0,0,0-0.1,0l0,0c0,0-0.1,0.1-0.1,0l0,0c-0.1,0-0.1,0-0.2,0l0,0l0,0c0,0.1-0.1,0-0.2,0.1l0,0l0,0h-0.1l0,0H88
			c0,0-0.1,0-0.2,0h-0.1l0,0c-0.1,0-0.2-0.1-0.2-0.1c-0.1,0-0.1-0.1-0.2-0.1c0,0,0,0-0.1,0l0,0c0,0,0,0-0.2-0.1c0,0,0,0,0-0.1
			c0,0-0.1,0-0.1-0.1c0,0,0,0-0.1,0l0,0c0,0-0.1,0-0.1-0.1c0,0,0,0-0.1-0.1l0,0h0.1l0,0V98l0,0v0v-0.1c0,0,0.1-0.1,0.1-0.2v0.1
			c0-0.1,0-0.2,0.1-0.2c0,0.1,0,0.1,0,0.1l0,0c0,0,0-0.1,0.1-0.1c0,0,0,0,0-0.1c0,0,0-0.1,0.1-0.1l0,0c0,0,0-0.1,0.1-0.1l0,0l0,0
			c0,0,0,0,0.1-0.1l0,0c0,0,0,0,0-0.1l0,0l0.1-0.1c0,0,0,0,0.1,0l0.1-0.1l0,0l0,0l0,0l0,0l0,0l0,0l0,0V97c0,0,0,0,0.1,0
			c0,0,0,0,0.1-0.1V97c0,0,0,0,0.1,0v0c0,0,0.1,0,0.1-0.1V97l0,0l-0.1,0.1c0,0,0,0,0,0.1H88l0,0c0,0.1,0,0.1,0.1,0.1L88,97.4
			l-0.1,0.1l0,0l0,0l0,0l0,0l0,0c0,0,0,0.1-0.1,0.1l0,0l0,0l0,0c0,0,0.1,0,0.1-0.1H88l0,0l0,0l0.1-0.1l0.2-0.1l0,0c0,0,0,0,0.1,0
			l0,0l0,0l0,0l0,0l0,0l0,0l0,0h0.1l0.1-0.1h0.1l0,0c0.1,0,0.1,0,0.1-0.1l0,0l0,0l0,0l0,0l0,0c0-0.1,0.1-0.1,0.1-0.1s0,0,0.1,0h-0.1
			c0,0,0,0,0.1,0l0,0l0.1-0.1c0,0,0,0,0-0.1c0,0,0,0,0-0.1v1.1l0,0c0,0,0.1-0.1,0.2-0.1c0,0,0-0.1,0.1-0.1h0.1l0.1-0.1v-0.1l0.1-0.1
			l0,0l0,0c0-0.1,0.1-0.1,0.1-0.1s0,0,0.1-0.1c0.1,0,0.1-0.1,0.2-0.2l0.1-0.2l0,0l0.1-0.1l0.1-0.1l0,0l0.1-0.1l0,0
			c0.1-0.1,0.1-0.2,0.2-0.2v-0.1l0,0c0,0,0-0.1,0.1-0.1l0,0c0,0,0,0,0,0.1c0,0,0,0,0,0.1l0.1-0.1c0-0.1,0.1-0.1,0.1-0.2
			c0,0,0,0,0.1-0.1c0,0,0,0,0-0.1l0.1-0.1l0,0c0,0,0,0,0.1,0c0,0,0,0,0-0.1l0,0c0,0,0,0,0-0.1l0,0l0,0l0,0c0,0,0,0,0-0.1
			c0,0,0-0.1,0.1-0.1c0,0,0,0,0.1-0.1c0.1,0,0.1-0.1,0.1-0.2l0,0v-0.1l0.1-0.1v0.1v0.1c0.1-0.1,0.2-0.3,0.3-0.5l0,0
			c0,0,0-0.1,0.1-0.1c0,0,0,0,0,0.1L92,94.5l0,0l0.1-0.1c0-0.1,0.1-0.1,0.1-0.1v-0.1c0.1,0,0.1-0.1,0.2-0.2l0,0c0,0,0,0-0.1,0l0,0
			c0,0,0-0.1,0.1-0.1c0,0,0,0,0,0.1l0.1-0.1l0,0c0-0.1,0.1-0.1,0.1-0.2c0,0,0-0.1,0.1-0.1c0,0-0.1,0.1-0.1,0.2
			c0-0.1,0.1-0.2,0.1-0.2l0,0c0,0,0,0,0.1-0.1l0.1-0.2c0,0,0-0.1,0.1-0.1c0,0,0,0,0.1-0.1c0,0,0.1-0.1,0.1-0.2l0.1-0.1l0,0l-0.1,0.1
			c0,0.1-0.1,0.1-0.1,0.2L93,93.2l-0.1,0.1c0,0,0,0.1-0.1,0.1c0,0,0-0.1,0.1-0.1v-0.1C93,93.1,93,93,93.1,93c0,0,0.1-0.1,0.1-0.2
			c0.1-0.1,0.1-0.2,0.2-0.2v-0.1l0.2-0.2c0.1-0.1,0.1-0.1,0.1-0.2l0,0v-0.5c0,0,0-0.1,0.1-0.1c0,0,0,0-0.1,0c0-0.1,0.1-0.1,0.1-0.2
			l0.1-0.1l0.1-0.1c0,0,0,0,0-0.1c0,0,0.1-0.1,0.1-0.2s0.1-0.1,0.1-0.2l0,0v-0.1l0,0c0,0,0,0,0.1-0.1c0-0.1,0.1-0.1,0.1-0.2l0.1-0.1
			c0.1-0.1,0.1-0.2,0.2-0.3l0,0c0.1-0.1,0.1-0.2,0.2-0.3c0-0.1,0.1-0.2,0.2-0.3l0,0l0,0c0,0,0-0.1,0.1-0.1l0,0
			c0-0.1,0.1-0.2,0.2-0.3l0.1-0.2c0-0.1,0.1-0.1,0.1-0.2l0.1-0.2c0,0,0-0.1,0.1-0.1l0,0c-0.1,0-0.1,0.1-0.1,0.1s-0.1,0.1-0.2,0.1
			l0,0v0.1l0,0c0,0.1,0,0.1-0.1,0.1l0,0c0,0,0,0,0-0.1H96l0,0h-0.1H96l0,0c-0.1,0-0.1,0.1-0.1,0.2c-0.1,0-0.1,0.1-0.2,0.1l0,0
			c0,0.1-0.1,0.1-0.1,0.2c0,0,0,0-0.1,0V88v0.1l-0.1,0.1l-0.1,0.1c0,0,0,0-0.1,0.1l0,0l0,0c0,0-0.1,0-0.1,0.1l0,0l0,0l0,0v0.1
			L95,88.7l0,0c0,0,0,0.1-0.1,0.1L94.7,89c0,0,0,0,0-0.1l0,0l0,0c0,0,0,0,0,0.1h0.1l-0.1,0.1l0,0c0,0,0,0.1-0.1,0.1l0,0
			c0,0.1,0,0.1-0.1,0.1c0,0,0,0-0.1,0.1c0,0,0,0.1-0.1,0.1c0,0,0,0.1-0.1,0.1L94,89.8L93.7,90l-0.1,0.1l0,0l0,0l0,0
			c0,0.1,0,0.1-0.1,0.1l0,0l0,0c0,0-0.1,0-0.1,0.1l0,0c0,0.1-0.1,0.1-0.2,0.1l0,0c0,0.1-0.1,0.1-0.1,0.2L93,90.7l-0.1,0.1l0,0
			c0,0.1,0,0.1-0.1,0.1c0,0-0.1,0.1-0.1,0.2h-0.1c0,0.1,0,0.1-0.1,0.1l-0.1,0.1c0,0,0,0-0.1,0.1l0,0l0,0c0,0.1-0.1,0.1-0.2,0.2
			c0,0.1-0.1,0.1-0.1,0.1c0,0.1-0.1,0.1-0.2,0.1l-0.1,0.1c0,0,0,0,0,0.1l0,0l0,0l0,0l-0.1,0.1l0,0h-0.1l0,0c0,0-0.1,0-0.1,0.1
			L91,92.6c0,0-0.1,0-0.1,0.1c0,0-0.1,0-0.1,0.1c-0.1,0-0.1,0.1-0.2,0.1l0,0l0,0c0,0-0.1,0-0.2,0l0,0L90.3,93l0,0c0,0-0.1,0-0.2,0
			H90h-0.1l0,0h-0.1l0,0c0.1,0,0.2,0,0.3,0h0.1c-0.1,0-0.2,0-0.2,0l0,0l0,0c-0.1,0-0.1-0.1-0.2-0.1h-0.1l-0.2-0.1
			c-0.1-0.1-0.3-0.2-0.5-0.3l0,0c0-0.1-0.1-0.1-0.2-0.2c0,0,0-0.1-0.1-0.1l0,0l0,0c0,0,0-0.1-0.1-0.1c0,0,0,0,0-0.1s0-0.1,0-0.2l0,0
			c0-0.1,0-0.1,0-0.2v-0.1c0-0.1,0-0.2,0.1-0.3l0,0c0-0.1,0-0.2,0.1-0.3v-0.1c0-0.1,0.1-0.2,0.1-0.2c0-0.1,0-0.2,0.1-0.2
			c0,0,0,0,0-0.1c0,0,0,0,0-0.1c0,0,0,0,0-0.1V90c0,0,0,0,0-0.1c0,0,0,0,0-0.1l0.1-0.1l0.1-0.1l0,0l0,0c0.1-0.1,0.1-0.2,0.2-0.2
			c0,0,0-0.1,0.1-0.1c0,0,0-0.1,0.1-0.1l0,0c0.1,0,0-0.1,0.1-0.2l0,0l0,0c0-0.1,0.1-0.1,0.1-0.2s0.1-0.2,0.1-0.3
			c0,0,0.1-0.1,0.1-0.2c0.1-0.1,0.2-0.3,0.2-0.5c0.1-0.1,0.1-0.2,0.2-0.3c0-0.1,0.1-0.1,0.1-0.1s0-0.1,0.1-0.1c0,0,0,0,0.1-0.1
			c0,0,0,0,0-0.1c0,0,0-0.1,0.1-0.1c0,0,0.1-0.1,0.1-0.2c0,0,0,0,0-0.1H91c0-0.1,0.1-0.2,0.2-0.2l0,0c0-0.1,0.1-0.1,0.1-0.2
			c0,0,0,0,0-0.1v-0.1c0-0.1,0.1-0.1,0.2-0.2c0,0,0,0,0.1-0.1c0,0.1,0,0-0.1,0.1h0.1c0,0,0,0,0-0.1c0,0,0,0,0-0.1
			c0.1,0,0.1,0,0.1,0.1c0,0,0.1,0,0.1,0.1c0,0,0,0,0.1,0c0,0,0,0,0.1,0.1l0,0h0.1c0,0,0,0,0.1,0c0,0,0,0,0.1,0l0.1,0.1l0,0l0,0l0,0
			c0.1,0,0.1,0.1,0.1,0.1l0,0c0,0,0.1,0.1,0,0.2c0,0.1,0,0.1-0.1,0.1c0,0,0,0-0.1,0.1l0,0c0,0.1-0.1,0.1-0.2,0.2
			c0,0.1-0.1,0.1-0.1,0.2c0,0,0,0.1-0.1,0l0,0c0,0,0,0.1-0.1,0.1c0,0,0,0,0,0.1s-0.1,0.1-0.1,0.1l0,0c0,0,0,0,0.1,0c0,0.1,0,0-0.1,0
			v0.1l0,0l0,0c0,0,0,0,0,0.1l0,0l0,0h-0.1c0,0,0,0,0.1,0l0.1-0.5c0,0.1,0,0,0,0s0,0.1-0.1,0.1l-0.1,0.1c0,0,0,0,0,0.1v0.1
			c0,0,0,0,0,0.1h-0.1l0,0l0,0c-0.1,0-0.1,0-0.1,0.1l0,0l0,0c0,0,0,0,0,0.1V88c0,0,0,0-0.1,0c0,0,0,0,0,0.1l0,0
			c0,0.1-0.1,0.1-0.1,0.2c0,0,0,0-0.1,0.1c0,0,0,0,0.1,0l0,0l0,0c0,0,0,0-0.1,0v0.1c0,0,0,0,0,0.1c0,0,0,0-0.1,0l0,0c0,0,0,0-0.1,0
			v0.1c0,0,0,0-0.1,0.1l0,0l0,0V89l0,0c0,0.1,0,0.1,0,0.2l0,0c0,0-0.1,0-0.1,0.1l0,0l0,0l0,0c0,0,0,0-0.1,0l-0.1,0.1
			c0,0.1,0,0.1-0.1,0.2l0,0l0,0c0,0,0,0.1-0.1,0.1v0.1l0,0c0,0,0,0.1-0.1,0.1l0,0l0,0l0,0l0,0l0,0c-0.1,0-0.1,0.1-0.1,0.1l0,0
			c0,0.1-0.1,0.1-0.1,0.2v0.1v0.1v0.1l0,0c0,0-0.1,0,0,0.1v0.1c0,0,0,0-0.1,0.1c0,0,0,0,0.1,0c0,0.1,0,0.2,0,0.3h0.1
			c0.1,0,0.2-0.1,0.3-0.1l0.1-0.1c0,0,0.1-0.1,0.2-0.1s0.1-0.1,0.2-0.2l0,0l0,0c0.1,0,0.1-0.1,0.2-0.2l0,0h0.1c0,0,0,0,0-0.1
			c0,0,0-0.1,0.1-0.1c0,0,0.1-0.1,0.2-0.1s0.1-0.1,0.1-0.1c0.1,0,0.1-0.1,0.1-0.1l0.1-0.1l0,0c0,0,0-0.1,0.1-0.1l0,0l0.1-0.1
			c0,0,0,0,0.1-0.1l0.2-0.2l0.1-0.1l0.1-0.1l0,0l0,0c0-0.1,0.1-0.1,0.2-0.2l0.1-0.1l0.1-0.1l0,0c0,0,0-0.1,0.1-0.1
			c0-0.1,0.1-0.1,0.1-0.2c0.1-0.1,0.2-0.2,0.2-0.3s0.1-0.1,0.2-0.2l0,0c0.1,0,0.1-0.1,0.2-0.2s0.2-0.2,0.2-0.3
			c0-0.1,0.1-0.1,0.2-0.2l0.1-0.1l0.1-0.2c0,0,0.1,0,0.1-0.1l0,0c0.1-0.1,0.1-0.1,0.2-0.2l0,0c0-0.1,0.1-0.1,0.1-0.1l0,0
			c0,0,0,0,0.1,0c0,0,0-0.1,0.1-0.1c0.1-0.1,0.2-0.2,0.3-0.3l0.1-0.1c0,0,0.1,0,0.1-0.1l0,0c0.1,0,0.1-0.1,0.2-0.2l0.1-0.1l0.1-0.1
			c0,0,0,0,0.1,0l0,0l0.1-0.1l0.2-0.1l0.2-0.2l0.1-0.1c0.1-0.1,0.2-0.1,0.2-0.2c0.1-0.1,0.2-0.1,0.2-0.2l0,0c0,0,0.1,0,0.1-0.1
			l0.2-0.2c0.1-0.1,0.2-0.2,0.3-0.3l0.1-0.1l0,0c0-0.1,0.1-0.1,0.1-0.1l0.1-0.1c0,0,0-0.1,0.1-0.1l0,0c0-0.1,0.1-0.1,0.2-0.2
			l0.1-0.1c0,0,0,0,0.1,0c0,0,0,0,0.1,0c0,0,0.1,0,0.1-0.1l0.1-0.1h0.1l0,0c0,0,0,0,0,0.1c0,0,0-0.1,0.1,0h0.1l0,0H99l0,0h0.1
			l0.1,0.1l0,0l0,0l0,0c0,0,0,0.1,0.1,0.1c0,0,0,0,0,0.1c0,0,0,0,0.1,0c0,0,0,0.1,0.1,0.2C99,83.8,99,83.8,99,84L99,84z M85.5,97.7
			L85.5,97.7L85.5,97.7L85.5,97.7z M85.7,97.6C85.6,97.6,85.6,97.7,85.7,97.6C85.6,97.7,85.6,97.7,85.7,97.6
			C85.6,97.7,85.6,97.7,85.7,97.6C85.6,97.7,85.6,97.7,85.7,97.6C85.6,97.7,85.7,97.7,85.7,97.6z M85.7,97.4
			C85.7,97.3,85.7,97.3,85.7,97.4C85.9,97.4,85.9,97.4,85.7,97.4z M85.9,97.7L85.9,97.7L85.9,97.7L85.9,97.7z M86,97.4L86,97.4
			L86,97.4z M86,97.6L86,97.6L86,97.6L86,97.6L86,97.6L86,97.6z M86.1,92.2L86.1,92.2L86.1,92.2L86.1,92.2L86.1,92.2z M86.1,98
			C86.1,98,86.2,98,86.1,98C86.2,98,86.2,98,86.1,98L86.1,98C86.2,98,86.1,98,86.1,98z M86.1,98.5L86.1,98.5L86.1,98.5L86.1,98.5z
			 M86.2,98.5C86.2,98.5,86.2,98.4,86.2,98.5L86.2,98.5C86.2,98.4,86.2,98.5,86.2,98.5L86.2,98.5z M86.2,97.8L86.2,97.8
			C86.3,97.8,86.3,97.8,86.2,97.8L86.2,97.8L86.2,97.8z M86.3,98.7L86.3,98.7L86.3,98.7z M86.5,98.6L86.5,98.6
			C86.5,98.7,86.5,98.7,86.5,98.6z M86.8,98.5L86.8,98.5L86.8,98.5L86.8,98.5z M86.8,100.1L86.8,100.1C86.8,100,86.8,100,86.8,100.1
			L86.8,100.1z M87,98.2C87,98.2,86.9,98.4,87,98.2C86.9,98.2,87,98.2,87,98.2z M87.1,98.2L87.1,98.2L87.1,98.2L87.1,98.2z M87.3,98
			L87.3,98L87.3,98L87.3,98z M87.5,97.9L87.5,97.9L87.5,97.9L87.5,97.9L87.5,97.9z M87.7,97.7L87.7,97.7L87.7,97.7L87.7,97.7z
			 M87.9,97.6C87.8,97.6,87.8,97.6,87.9,97.6C87.8,97.6,87.8,97.6,87.9,97.6z M87.9,91L87.9,91L87.9,91L87.9,91z M87.9,91L87.9,91
			C88,91,88,91,87.9,91z M88,90.9L88,90.9L88,90.9z M88,90.7L88,90.7L88,90.7C88.1,90.7,88,90.7,88,90.7z M88.1,90.5L88.1,90.5
			L88.1,90.5z M88.1,97.2L88.1,97.2L88.1,97.2z M88.3,97.1L88.3,97.1L88.3,97.1z M88.3,90.2C88.3,90.2,88.4,90.2,88.3,90.2
			L88.3,90.2z M88.4,99L88.4,99L88.4,99L88.4,99L88.4,99z M88.4,97L88.4,97L88.4,97L88.4,97z M88.4,97L88.4,97
			C88.5,97,88.4,97,88.4,97z M88.6,98.8L88.6,98.8C88.5,98.8,88.5,98.9,88.6,98.8L88.6,98.8L88.6,98.8L88.6,98.8
			C88.5,98.9,88.6,98.9,88.6,98.8z M88.5,96.9L88.5,96.9C88.6,96.9,88.5,96.9,88.5,96.9z M88.7,98.8L88.7,98.8
			C88.6,98.8,88.6,98.8,88.7,98.8L88.7,98.8C88.6,98.8,88.6,98.8,88.7,98.8C88.6,98.8,88.7,98.8,88.7,98.8z M88.6,96.8L88.6,96.8
			C88.7,96.8,88.6,96.8,88.6,96.8L88.6,96.8z M88.7,89.4L88.7,89.4L88.7,89.4L88.7,89.4z M88.7,89.6L88.7,89.6L88.7,89.6
			C88.8,89.4,88.8,89.4,88.7,89.6z M88.7,96.6L88.7,96.6C88.7,96.6,88.8,96.6,88.7,96.6C88.8,96.6,88.7,96.6,88.7,96.6z M88.8,89.4
			L88.8,89.4C88.7,89.4,88.8,89.4,88.8,89.4z M88.9,89.1L88.9,89.1L88.9,89.1z M88.9,89.1L88.9,89.1L88.9,89.1z M88.9,88.9
			L88.9,88.9C89.1,88.9,88.9,88.9,88.9,88.9z M88.9,96.3C88.9,96.4,88.9,96.4,88.9,96.3C88.9,96.4,88.9,96.4,88.9,96.3z M89.1,96.3
			L89.1,96.3L89.1,96.3L89.1,96.3z M89.1,89L89.1,89L89.1,89L89.1,89z M89.2,96.1C89.2,96.2,89.2,96.2,89.2,96.1L89.2,96.1
			C89.2,96.2,89.2,96.2,89.2,96.1C89.2,96.2,89.2,96.2,89.2,96.1z M89.3,98.2L89.3,98.2C89.3,98.2,89.2,98.2,89.3,98.2
			C89.2,98.4,89.2,98.4,89.3,98.2L89.3,98.2z M89.3,96L89.3,96C89.3,96.1,89.3,96.1,89.3,96L89.3,96z M89.3,93.1L89.3,93.1
			L89.3,93.1L89.3,93.1L89.3,93.1z M89.5,95.7L89.5,95.7C89.6,95.7,89.5,95.7,89.5,95.7L89.4,96c0,0,0,0,0-0.1
			C89.5,95.8,89.5,95.7,89.5,95.7z M89.6,98L89.6,98L89.6,98L89.6,98z M89.7,95.5L89.7,95.5L89.7,95.5L89.7,95.5z M89.7,95.5
			c0,0,0.1-0.1,0.1-0.2C89.9,95.4,89.9,95.4,89.7,95.5C89.9,95.5,89.7,95.5,89.7,95.5z M89.9,92.6C89.9,92.5,89.9,92.5,89.9,92.6
			L89.9,92.6L89.9,92.6z M89.9,95.3C90,95.3,90,95.2,89.9,95.3C90,95.3,90,95.3,89.9,95.3z M90,97.6L90,97.6L90,97.6L90,97.6
			L90,97.6z M90.1,95.2L90.1,95.2C90.1,95,90.1,95,90.1,95.2L90.1,95.2L90.1,95.2C90.1,95,90.1,95.2,90.1,95.2z M90.2,97.3
			L90.2,97.3C90.2,97.4,90.2,97.4,90.2,97.3L90.2,97.3L90.2,97.3z M90.2,94.9L90.2,94.9L90.2,94.9L90.2,94.9z M90.2,94.9
			C90.2,94.9,90.2,94.8,90.2,94.9C90.3,94.8,90.3,94.8,90.2,94.9z M90.3,92.2L90.3,92.2L90.3,92.2L90.3,92.2z M90.5,94.6L90.5,94.6
			L90.5,94.6C90.4,94.6,90.4,94.6,90.5,94.6L90.5,94.6z M90.4,97L90.4,97L90.4,97L90.4,97z M90.7,94.5L90.7,94.5
			C90.7,94.5,90.7,94.4,90.7,94.5C90.7,94.4,90.7,94.5,90.7,94.5z M90.9,89.7C90.8,89.7,90.8,89.7,90.9,89.7
			c-0.1,0.1-0.1,0.1-0.2,0.1l0,0C90.8,89.8,90.8,89.7,90.9,89.7z M90.7,92L90.7,92L90.7,92L90.7,92L90.7,92z M90.7,94.4L90.7,94.4
			L90.7,94.4L90.7,94.4z M90.7,94.4C90.8,94.4,90.8,94.2,90.7,94.4C90.8,94.4,90.8,94.4,90.7,94.4C90.8,94.4,90.8,94.4,90.7,94.4z
			 M90.9,96.5L90.9,96.5L90.9,96.5L90.9,96.5C90.8,96.5,90.8,96.5,90.9,96.5L90.9,96.5C90.8,96.6,90.8,96.6,90.9,96.5
			C90.9,96.6,90.9,96.5,90.9,96.5z M90.8,91.7L90.8,91.7L90.8,91.7z M90.9,96.5C90.9,96.4,91,96.4,90.9,96.5
			C90.9,96.4,90.9,96.4,90.9,96.5z M90.9,94L90.9,94C91,94,90.9,94,90.9,94z M91,94L91,94L91,94L91,94z M91,91.7L91,91.7L91,91.7
			L91,91.7z M91.1,93.8C91.1,93.8,91.1,93.9,91.1,93.8C91,93.9,91,93.9,91.1,93.8z M91.1,96.3L91.1,96.3L91.1,96.3L91.1,96.3z
			 M91.1,96.3L91.1,96.3L91.1,96.3C91.2,96.3,91.1,96.3,91.1,96.3L91.1,96.3z M91.2,91.2L91.2,91.2L91.2,91.2z M91.5,93.3
			c0,0.1,0,0.1-0.1,0.2C91.3,93.4,91.3,93.4,91.5,93.3C91.3,93.3,91.5,93.3,91.5,93.3z M91.5,89L91.5,89L91.5,89L91.5,89L91.5,89
			L91.5,89L91.5,89L91.5,89z M91.3,96.1L91.3,96.1L91.3,96.1L91.3,96.1z M91.5,93.3L91.5,93.3L91.5,93.3z M91.5,93.3L91.5,93.3
			L91.5,93.3z M91.5,95.8L91.5,95.8L91.5,95.8L91.5,95.8L91.5,95.8z M91.5,93.3L91.5,93.3L91.5,93.3L91.5,93.3z M91.5,93.3
			C91.5,93.3,91.5,93.2,91.5,93.3c0-0.1,0-0.1,0.1-0.2C91.6,93.2,91.6,93.2,91.5,93.3z M91.6,88.9L91.6,88.9L91.6,88.9L91.6,88.9z
			 M91.7,90.9L91.7,90.9C91.6,90.9,91.6,90.9,91.7,90.9C91.6,90.9,91.6,90.9,91.7,90.9C91.6,90.9,91.7,90.9,91.7,90.9z M91.6,95.7
			L91.6,95.7L91.6,95.7L91.6,95.7L91.6,95.7L91.6,95.7z M91.8,93C91.8,93,91.7,93,91.8,93C91.7,93,91.8,93,91.8,93L91.8,93z
			 M91.8,88.5L91.8,88.5C91.8,88.6,91.8,88.6,91.8,88.5z M91.8,92.9L91.8,92.9L91.8,92.9L91.8,92.9z M91.9,90.6L91.9,90.6L91.9,90.6
			L91.9,90.6L91.9,90.6z M91.9,95.2L91.9,95.2L91.9,95.2z M92,90.5L92,90.5L92,90.5L92,90.5L92,90.5z M92.1,88.2L92,88.3
			C92.1,88.3,92.1,88.3,92.1,88.2z M92.1,95L92.1,95L92.1,95L92.1,95z M92.3,95L92.3,95L92.3,95C92.1,95,92.1,95,92.3,95z
			 M92.5,87.8L92.5,87.8L92.5,87.8L92.5,87.8L92.5,87.8z M92.6,94.6L92.6,94.6L92.6,94.6L92.6,94.6L92.6,94.6z M92.6,87.7L92.6,87.7
			L92.6,87.7z M92.7,89.9L92.7,89.9L92.7,89.9C92.7,90,92.7,90,92.7,89.9z M92.7,94.2L92.7,94.2L92.7,94.2
			C92.7,94.4,92.7,94.4,92.7,94.2C92.8,94.2,92.7,94.2,92.7,94.2z M92.7,91.6L92.7,91.6L92.7,91.6L92.7,91.6L92.7,91.6z M92.8,87.5
			L92.8,87.5L92.8,87.5z M92.9,91.3C92.8,91.3,92.8,91.4,92.9,91.3c-0.1,0.1-0.2,0.1-0.2,0.2L92.9,91.3
			C92.9,91.4,92.9,91.4,92.9,91.3z M92.8,94L92.8,94C92.9,94.1,92.8,94.1,92.8,94z M92.8,94.1L92.8,94.1L92.8,94.1L92.8,94.1
			L92.8,94.1z M93.2,91L93.2,91L93.2,91C93.1,91.2,93.1,91.2,93.2,91z M93.2,90.9C93.2,91,93.2,91,93.2,90.9
			C93.2,91,93.2,91,93.2,90.9z M93.3,89.1C93.3,89.2,93.3,89.2,93.3,89.1L93.3,89.1z M93.4,93.2L93.4,93.2L93.4,93.2L93.4,93.2
			L93.4,93.2z M93.6,93.1C93.5,93.1,93.5,93.1,93.6,93.1L93.6,93.1L93.6,93.1z M93.6,93L93.6,93C93.6,93,93.7,93,93.6,93L93.6,93z
			 M93.7,88.6L93.7,88.6L93.7,88.6L93.7,88.6z M93.9,92.8C93.9,92.6,93.9,92.6,93.9,92.8C93.9,92.6,93.7,92.6,93.9,92.8L93.9,92.8z
			 M94,92.5L94,92.5L94,92.5C93.9,92.6,93.9,92.6,94,92.5L94,92.5C93.9,92.6,94,92.6,94,92.5z M94,86.4L94,86.4L94,86.4z M94.1,88.4
			L94.1,88.4C94.1,88.3,94.1,88.3,94.1,88.4L94.1,88.4C94,88.3,94,88.4,94.1,88.4C94,88.4,94,88.4,94.1,88.4
			C94,88.4,94.1,88.4,94.1,88.4z M94.1,92.4C94,92.4,94,92.4,94.1,92.4L94.1,92.4C94,92.5,94.1,92.4,94.1,92.4z M94.1,86.2
			L94.1,86.2L94.1,86.2L94.1,86.2z M94.4,88c-0.1,0-0.1,0.1-0.2,0C94.2,88.1,94.3,88.1,94.4,88L94.4,88z M94.3,92.1L94.3,92.1
			L94.3,92.1L94.3,92.1z M94.5,88L94.5,88L94.5,88L94.5,88z M94.7,91.6L94.7,91.6C94.5,91.6,94.5,91.6,94.7,91.6L94.7,91.6
			C94.5,91.6,94.7,91.6,94.7,91.6z M95.1,87.4L95.1,87.4L95.1,87.4C95,87.4,95,87.4,95.1,87.4C95,87.4,95,87.4,95.1,87.4z
			 M95.1,87.3L95.1,87.3L95.1,87.3L95.1,87.3z M95.2,87.3L95.2,87.3C95.1,87.3,95.1,87.3,95.2,87.3C95.1,87.3,95.2,87.3,95.2,87.3z
			 M95.3,90.6L95.3,90.6L95.3,90.6L95.3,90.6L95.3,90.6z M95.7,90C95.6,90,95.6,90.1,95.7,90L95.7,90L95.7,90
			C95.7,90.1,95.7,90.1,95.7,90z M95.9,89.4L95.9,89.4L95.9,89.4C95.9,89.6,95.9,89.6,95.9,89.4L95.9,89.4z M96.1,89.3L96.1,89.3
			L96.1,89.3z M96.1,89.3C96.1,89.2,96.1,89.2,96.1,89.3L96.1,89.3L96.1,89.3z M96.4,88.9L96.4,88.9L96.4,88.9L96.4,88.9L96.4,88.9z
			 M97.1,87.8L97.1,87.8L97.1,87.8L97.1,87.8z M97.2,87.6L97.2,87.6L97.2,87.6z"/>
		<path class="st0b customColor" d="M97.7,90.2L97.7,90.2L97.7,90.2z M99.5,93.6L99.5,93.6c-0.2,0-0.3-0.1-0.4-0.1c-0.1,0-0.2-0.1-0.2-0.1h-0.1
			c-0.1,0-0.1-0.1-0.2-0.1c-0.1-0.1-0.2-0.1-0.2-0.2c-0.1-0.1-0.1-0.1-0.2-0.2c0-0.1-0.1-0.2-0.1-0.3c0,0,0,0,0-0.1v-0.1v-0.1
			c0-0.1,0-0.1,0-0.2V92l0,0v-0.1c0,0,0-0.1,0-0.2v-0.2c0-0.1,0-0.2,0.1-0.3c0-0.1,0-0.2,0.1-0.3l0,0v-0.1c0,0,0,0,0-0.1v0.1l0,0
			l0,0c0,0,0,0,0,0.1c0,0,0,0,0,0.1l0,0l0,0l0,0l0,0v0.1l0,0c0-0.1,0-0.2,0-0.3c0,0,0-0.1,0-0.2l0,0c0,0,0,0,0-0.1l0,0v-0.1l0,0l0,0
			v-0.1l0,0v-0.1l0,0v-0.1l0,0l0,0l0,0c0,0,0,0,0-0.1v-0.2l0,0l0,0v0.1L98,89.8v0.1V90l-0.1,0.1l0,0v-0.2v-0.1l0,0v-0.2v-0.1l0,0
			v-0.1l0,0v-0.1l0,0l0,0c0.1,0,0.1-0.1,0.1-0.2l0,0l0.1-0.3c0-0.1,0-0.1,0.1-0.1c0-0.1,0.1-0.2,0.1-0.3l0.1-0.1c0,0,0,0,0-0.1l0,0
			c0,0,0-0.1,0.1-0.1l0.1-0.1l0.1-0.1c0,0,0,0,0-0.1l0,0c0,0,0-0.1,0.1-0.1c0,0,0-0.1,0.1-0.1c0-0.1,0.1-0.1,0.1-0.2l0,0
			c0,0,0,0,0.1-0.1l0,0c0.1,0,0.1-0.1,0.1-0.1l0.1-0.1V87l0,0c0-0.1,0.1-0.1,0.1-0.2c0,0,0-0.1,0.1-0.1l0.1-0.1l0,0l0,0l0,0l0,0l0,0
			l0,0l0,0l0,0l0,0c0.1,0,0.1,0,0.1-0.1c-0.1,0-0.1,0.1-0.2,0.1c0,0,0-0.1,0.1-0.1s0.1-0.1,0.2-0.1l0.1-0.1c0,0,0.1,0,0.1-0.1
			c0,0,0.1,0,0.2,0l0,0h0.1c0.1,0,0.1,0,0.2,0s0.2,0,0.3,0.1h0.1h0.2l0.3,0.1c0,0,0,0,0.1,0c0,0,0,0,0.1,0l0.1,0.1l0,0l0.1,0.1l0,0
			c0,0,0,0,0.1,0c0,0,0,0,0.1,0.1l0.1,0.1l0.1,0.1l0,0c0,0.1,0.1,0.2,0.1,0.3v0.1l0,0c0,0,0,0.1,0.1,0.1l0,0l0,0l0,0l0,0
			c0,0,0,0,0,0.1l0,0l0,0l0,0v0.1v0.1l0,0l0,0c0,0.1,0,0.1,0,0.2l0,0l0,0c0,0.1,0,0.1,0,0.2l0,0V88v0.1c-0.1,0,0,0.1-0.1,0.1l0,0
			c0,0,0,0,0,0.1c0,0,0,0,0,0.1v0.1v0.1v0.1c0,0,0,0,0,0.1V89c0,0,0,0.1-0.1,0.1c0,0,0,0,0,0.1v0.1c0,0,0,0.1-0.1,0.2l0,0h0.1
			l-0.1,0.1l0,0v0.2l0,0V90l0,0c0,0.1-0.1,0.1,0,0.2H102l0,0v0.1l0,0l0,0c0,0,0,0.1-0.1,0.2c0,0,0,0,0,0.1c0,0,0,0,0,0.1
			s-0.1,0.1-0.1,0.2c0,0,0,0-0.1,0.1c0,0.1,0,0.1-0.1,0.1v0.1c0,0,0,0.1-0.1,0.2c0,0,0,0.1-0.1,0.1c0,0.1,0,0.1-0.1,0.1V92
			c0,0,0,0-0.1,0.1c0,0-0.1,0.1-0.1,0.2l0,0l-0.1,0.1l0,0c0,0-0.1,0-0.1,0.1l-0.1,0.1l0,0c0,0,0,0.1-0.1,0.1c0,0,0,0-0.1,0.1
			c0,0,0,0.1-0.1,0.1l0,0l0,0c-0.1,0.1-0.1,0.1-0.2,0.2c0,0-0.1,0,0,0l0,0c0,0,0,0-0.1,0s-0.1,0.1-0.2,0.1h-0.1h0.1h-0.1
			C99.7,93.7,99.6,93.7,99.5,93.6z M97.9,90.2L97.9,90.2L97.9,90.2c0.1,0.1,0,0.1,0,0.2l0,0c0,0,0,0,0,0.1
			C97.7,90.4,97.9,90.4,97.9,90.2z M98,89.6L98,89.6L98,89.6L98,89.6z M98,90.1L98,90.1L98,90.1L98,90.1L98,90.1z M98,90L98,90
			L98,90L98,90z M98,90L98,90L98,90z M98,89.2L98,89.2L98,89.2L98,89.2z M98.1,88.9C98.1,88.9,98.1,89,98.1,88.9L98.1,88.9z
			 M98.1,89.9L98.1,89.9L98.1,89.9L98.1,89.9z M98.2,89.9C98.1,89.9,98.1,90,98.2,89.9C98.2,90,98.2,89.9,98.2,89.9z M98.2,89.2
			C98.3,89.1,98.2,89.1,98.2,89.2C98.2,89.1,98.1,89.2,98.2,89.2L98.2,89.2L98.2,89.2L98.2,89.2z M98.2,89.3L98.2,89.3L98.2,89.3
			L98.2,89.3L98.2,89.3z M98.2,89.2L98.2,89.2L98.2,89.2L98.2,89.2z M98.3,89L98.3,89C98.3,89,98.2,89,98.3,89
			C98.2,89,98.2,89,98.3,89L98.3,89L98.3,89z M98.3,89L98.3,89C98.2,89,98.3,89,98.3,89L98.3,89z M98.3,89.3L98.3,89.3L98.3,89.3z
			 M98.3,88.9L98.3,88.9L98.3,88.9L98.3,88.9z M98.3,88.9C98.3,88.8,98.3,88.8,98.3,88.9C98.3,88.8,98.3,88.8,98.3,88.9
			c0-0.1,0-0.2,0.1-0.2c0-0.1,0.1-0.2,0.1-0.2v0.1l-0.1,0.1L98.3,88.9C98.3,88.8,98.3,88.8,98.3,88.9L98.3,88.9z M98.3,88.4
			L98.3,88.4L98.3,88.4L98.3,88.4L98.3,88.4z M98.4,89.1L98.4,89.1L98.4,89.1L98.4,89.1C98.3,89.1,98.4,89.1,98.4,89.1z M98.5,88.2
			L98.5,88.2C98.7,88.1,98.7,88.1,98.5,88.2C98.7,88.2,98.5,88.2,98.5,88.2L98.5,88.2L98.5,88.2z M98.8,88C98.8,88,98.7,88,98.8,88
			L98.8,88z M98.8,87.8L98.8,87.8L98.8,87.8L98.8,87.8z M98.9,87.6C98.8,87.6,98.9,87.7,98.9,87.6L98.9,87.6
			C98.9,87.7,98.9,87.7,98.9,87.6z M98.9,87.6L98.9,87.6C98.9,87.6,99,87.6,98.9,87.6z M99,87.5L99,87.5L99,87.5L99,87.5z
			 M99.1,87.3L99.1,87.3C99,87.4,99,87.4,99.1,87.3C99.1,87.4,99.1,87.4,99.1,87.3z M99.1,86.9L99.1,86.9L99.1,86.9z M99.1,86.9
			L99.1,86.9L99.1,86.9L99.1,86.9z M99.1,87.3L99.1,87.3L99.1,87.3z M99.3,92.5c0.1-0.1,0.1-0.2,0.2-0.2l0.1-0.1l0.1-0.1l0,0
			c0-0.1,0.1-0.2,0.2-0.2l0.1-0.2c0-0.1,0.1-0.2,0.2-0.3l0,0l0,0l0,0l0,0l0,0l0,0l0,0l0,0v-0.1l0,0h0.1V91l0,0l0,0l0,0
			c0,0,0,0.1-0.1,0.1c0,0,0,0,0-0.1c0,0,0-0.1,0.1-0.1l0,0c0,0,0,0,0-0.1c0,0,0,0,0.1-0.1s0.1-0.2,0.2-0.5c0,0,0,0,0-0.1
			c0,0,0-0.1,0.1-0.1l0,0v-0.1c0-0.1,0-0.1,0.1-0.2c0,0,0-0.1,0.1-0.1v-0.1c0-0.1,0.1-0.1,0.1-0.2l0,0l0,0c0-0.1,0-0.1,0-0.2
			s0.1-0.1,0.1-0.2s0-0.2,0.1-0.3v-0.1c0,0,0,0,0-0.1l0,0v-0.1V88c0-0.1,0-0.1,0-0.2s0-0.1,0-0.2s0-0.2,0-0.2v-0.1
			c0-0.1,0-0.2,0-0.3v-0.1c0-0.1,0-0.2,0-0.2l0,0c-0.1,0-0.2,0.1-0.3,0.2l0,0c0,0,0.1,0,0.1,0.1v0.1c0,0,0,0,0,0.1l0,0
			c0,0.1,0,0.1,0,0.2c0,0-0.1,0-0.1,0.1h-0.1l0,0c-0.1,0-0.1,0-0.2-0.1c-0.1,0-0.1,0.1-0.2,0.1l-0.1,0.1v0.1l0,0c0,0,0,0.1-0.1,0.1
			l0,0c0,0,0,0.1-0.1,0.1L100,88c0,0.1-0.1,0.2-0.1,0.3v0.1l0,0c0,0.1-0.1,0.1-0.1,0.2l0,0c0,0.1-0.1,0.1,0,0.1l0,0l0,0l0,0l0,0l0,0
			c0,0,0,0.1-0.1,0.1l0,0.2v0.1v0.1l0,0c0,0,0,0,0,0.1c0,0,0,0.1-0.1,0.1c0,0.1,0,0.2-0.1,0.3l0,0c0,0.1,0,0.1-0.1,0.2
			c-0.1,0-0.1,0-0.1,0l0,0V90c0,0,0,0,0,0.1c0,0,0,0-0.1,0.1c0,0,0,0,0,0.1l0,0v-0.1c0,0,0,0,0-0.1c0,0,0-0.1,0.1-0.1v0.1
			c0,0.1,0,0.1-0.1,0.2v0.1l0,0c0,0.1,0,0.1,0,0.2v0.1l0,0c0,0.1,0,0.2-0.1,0.2c0,0.1,0,0.1-0.1,0.2v0.2v0.1l0,0l0,0
			c0,0.1,0,0.2,0,0.3c0,0.1,0,0.1,0,0.2L99.3,92.5z M99.3,86.7L99.3,86.7L99.3,86.7C99.2,86.7,99.3,86.7,99.3,86.7z M99.3,86.6
			L99.3,86.6L99.3,86.6L99.3,86.6z M99.3,86.5C99.5,86.5,99.5,86.5,99.3,86.5L99.3,86.5C99.5,86.5,99.5,86.5,99.3,86.5
			C99.5,86.5,99.3,86.5,99.3,86.5z M99.5,86.5C99.5,86.5,99.6,86.5,99.5,86.5L99.5,86.5C99.6,86.5,99.5,86.5,99.5,86.5L99.5,86.5z
			 M99.5,86.5L99.5,86.5L99.5,86.5L99.5,86.5C99.6,86.4,99.6,86.4,99.5,86.5C99.6,86.5,99.6,86.5,99.5,86.5
			C99.6,86.5,99.6,86.5,99.5,86.5z M99.6,86.2L99.6,86.2L99.6,86.2L99.6,86.2z M99.8,86L99.8,86L99.8,86L99.8,86z M100,89.6
			C99.9,89.6,99.9,89.6,100,89.6C99.9,89.7,99.9,89.7,100,89.6L100,89.6C99.9,89.7,99.9,89.6,100,89.6z M99.9,85.8L99.9,85.8
			L99.9,85.8z M100,85.8L100,85.8C99.9,85.8,99.9,85.8,100,85.8z M100,85.7L100,85.7L100,85.7L100,85.7z M100.1,89.2L100.1,89.2
			L100.1,89.2z M100.1,91.7L100.1,91.7L100.1,91.7L100.1,91.7z M100.3,91.5L100.3,91.5C100.3,91.6,100.3,91.5,100.3,91.5z
			 M100.3,88.9L100.3,88.9L100.3,88.9L100.3,88.9z M100.4,91.4L100.4,91.4L100.4,91.4z M100.4,88.6L100.4,88.6L100.4,88.6z
			 M100.5,91.3C100.5,91.3,100.5,91.2,100.5,91.3C100.5,91.2,100.5,91.2,100.5,91.3C100.4,91.3,100.4,91.3,100.5,91.3
			C100.4,91.3,100.5,91.3,100.5,91.3z M100.5,88.5L100.5,88.5L100.5,88.5z M100.5,88.3C100.5,88.3,100.5,88.4,100.5,88.3
			C100.5,88.4,100.5,88.4,100.5,88.3L100.5,88.3C100.5,88.4,100.5,88.4,100.5,88.3z M100.5,88.3l0.1-0.2V88c0,0,0-0.1,0.1-0.1l0,0
			C100.7,88,100.6,88.1,100.5,88.3L100.5,88.3z M100.8,90.6L100.8,90.6C100.7,90.6,100.7,90.7,100.8,90.6
			C100.7,90.6,100.7,90.6,100.8,90.6z M100.8,90.5L100.8,90.5L100.8,90.5L100.8,90.5C100.8,90.6,100.8,90.6,100.8,90.5
			C100.8,90.6,100.8,90.6,100.8,90.5z M100.8,90.5L100.8,90.5L100.8,90.5L100.8,90.5z M100.9,90.2L100.9,90.2L100.9,90.2
			C100.8,90.4,100.9,90.4,100.9,90.2z M101.1,90.1L101.1,90.1L101.1,90.1L101.1,90.1L101.1,90.1C100.9,90.1,100.9,90.1,101.1,90.1z
			 M101.2,89.9L101.2,89.9C101.1,89.9,101.1,89.9,101.2,89.9z M102,87.7L102,87.7L102,87.7L102,87.7L102,87.7z"/>
		<path class="st0b customColor" d="M112.4,84.3L112.4,84.3C112.4,84.4,112.4,84.4,112.4,84.3L112.4,84.3L112.4,84.3L112.4,84.3v0.2l0,0l0,0
			c0,0,0,0-0.1,0.1l0,0l0,0l0,0c0,0,0,0.1-0.1,0.1l0,0l0,0l0,0l0,0l0,0l0,0c0,0,0,0-0.1,0.1l0,0l0,0l0,0l0,0l0,0V85l0,0l0,0l0,0v0.1
			c0,0,0,0-0.1,0.1l0,0l0,0l0,0l0,0l0,0l0,0c0,0,0,0,0,0.1l-0.1,0.1l0,0l0,0c0,0,0,0,0,0.1l0,0l0,0l-0.1,0.1l0,0l0,0l0,0
			c0,0,0,0.1-0.1,0.1l0,0c0,0,0,0,0,0.1l0,0c0,0,0,0.1-0.1,0.1c0,0,0,0,0,0.1l0,0l0,0l0,0l0,0l0,0l0,0l0,0l0,0l0,0l0,0l0,0l0,0l0,0
			l0,0l0,0l0,0v0.1l0,0l0,0l0,0l-1.7,1.4l0,0l0,0c0,0,0,0-0.1,0c0,0,0,0-0.1,0l0,0v0.1l0,0l0,0l0,0l0,0l0,0l0,0l0,0l0,0l0,0l0,0l0,0
			l0,0l0,0l0,0l0,0l0,0l0,0l0,0l0,0l0,0v0.1l0,0l0,0l0,0c0,0,0,0-0.1,0.1l0,0l0,0l0,0l0,0l0,0l0,0l0,0l0,0c0,0,0,0,0,0.1l0,0l0,0
			l0,0l0,0l0,0l0,0l0,0l0,0l0,0l0,0l0,0l0,0l0,0l0,0l0,0l0,0l0,0l0,0l0,0l0,0l0,0l0,0c0,0,0,0-0.1,0.1l0,0l0,0l0,0v0.1h-0.1l0,0l0,0
			l0,0c0,0,0,0,0,0.1l0,0v0.1l0,0l0,0c0,0,0,0.1-0.1,0.1l0,0c0,0,0,0-0.1,0c0,0,0,0,0,0.1l0,0l0,0l0,0l0,0l0,0l0,0l0,0l0,0v0.1l0,0
			l0,0l0,0l0,0l0,0h-0.1l0,0l0,0l0,0V89c0,0,0,0,0,0.1c0,0,0,0,0,0.1l0,0l0,0l0,0l0,0l0,0l0,0l0,0l0,0l0,0l0,0v0.1l0,0l0,0l0,0l0,0
			l0,0l0,0l0,0l0,0l0,0l0,0l0,0c0,0,0,0,0,0.1l0,0l0,0l0,0l0,0l0,0l0,0l0,0l0,0l0,0H109l0,0l0,0l0,0l0,0l0,0l0,0l0,0l0,0l0,0l0,0
			v0.1v0.1l0,0l0,0l0,0l0,0l0,0v0.1l0,0l0,0l0,0l0,0c0,0,0,0,0,0.1l0,0l0,0l0,0l0,0V90l0,0c0,0,0,0,0,0.1l0,0c0,0,0,0,0,0.1
			c0,0,0,0,0,0.1l0,0l0,0l0,0l0,0c0,0,0,0,0,0.1l0,0l0,0l0,0l0,0l0,0l0,0l0,0l0,0l0,0l0,0l0,0l0,0l0,0v0.1l0,0l0,0l0,0
			c0,0,0,0,0,0.1l0,0c0,0,0,0,0,0.1l0,0l0,0l0,0l0,0l0,0l0,0c0,0,0,0,0-0.1l0,0l0,0l0,0l0,0l0,0l0,0l0,0l0,0l0,0l0,0l0,0
			c0,0.1,0,0.1,0,0.1V91l0,0l0,0l0,0c0,0,0,0,0,0.1l0,0c0,0,0,0-0.1,0.1c0,0,0,0,0,0.1l0,0v0.1l0,0l0,0l0,0v0.1l0,0h0.1v0.1l0,0l0,0
			l0,0l0,0l0,0l0,0l0,0l0,0l0,0l0,0l0,0l0,0l0,0l0,0l0,0l0,0l0,0l0,0l0,0l0,0l0,0l0,0v0.1l0,0c0,0,0,0.1,0,0.2l0,0l0,0l0,0l0,0l0,0
			l0,0V92l0,0l0,0c0,0.1,0,0.1,0,0.1l0,0v0.1l0,0l0,0l0,0v0.1l0,0c0,0,0,0,0,0.1v0.1l0,0l0,0l0,0l0,0l0,0l0,0l0,0l0,0l0,0l0,0l0,0
			h0.1l0,0l0,0l0,0l0,0l0,0l0,0l0,0l0,0l0,0l0,0l0,0l0,0l0,0H109l0,0c0,0,0,0-0.1,0l0,0l0,0l0,0l0,0l0,0l-0.1-0.1l0,0l0,0
			c0,0,0,0-0.1,0c0,0,0,0-0.1,0l0,0l0,0l0,0l0,0l0,0l0,0h-0.1l0,0l0,0c0,0,0,0-0.1-0.1l-0.1-0.1l0,0l0,0c0,0,0,0,0-0.1l0,0l0,0V92
			l0,0l0,0l0,0l0,0c0,0,0,0,0-0.1l0,0c0,0,0,0-0.1,0v-0.1l0,0l0,0l0,0v-0.1v-0.1c0,0,0,0,0-0.1l0,0l0,0l0,0l0,0l0,0l0,0l0,0l0,0l0,0
			l0,0l0,0v-0.1v-0.1l0,0l0,0v-0.1l0,0l0,0l0,0c0,0,0,0,0-0.1l0,0l0,0l0,0l0,0l0,0l0,0l0,0V91c0,0,0,0,0-0.1l0,0c0,0,0,0,0-0.1l0,0
			l0,0l0,0v-0.1l0,0v-0.1l0,0v-0.1v-0.1c0,0,0-0.1,0.1-0.1l0,0c0,0,0,0,0-0.1c0,0,0,0,0-0.1l0,0V90l0,0v-0.1l0,0l0,0l0,0l0,0
			c0,0,0,0,0-0.1l0,0l0,0l0,0l0,0v-0.1l0,0l0,0c0,0,0,0,0.1-0.1l0,0l0,0l0,0v-0.1l0,0l0,0v-0.1l0,0c0,0,0,0,0-0.1l0,0l0,0l0,0
			l0.1-0.1l0,0l0,0l0,0l0,0l0,0l0,0c0,0,0,0,0-0.1l0,0c0,0,0,0,0-0.1l0,0l0,0l0,0l0,0l0,0l-0.1,0.1c0,0,0,0,0-0.1c0,0,0,0,0.1-0.1
			l0,0l0,0l0,0v-0.1l0,0l0,0l0,0l0,0l0,0l0,0l0,0l0,0l0,0l0,0l0,0l0,0c0,0-0.1,0-0.1,0.1l0,0l0,0l0,0l0,0c0,0,0,0-0.1,0.1l0,0l0,0
			l0,0l0,0l0,0l0,0c0,0,0,0-0.1,0.1l0,0l0,0l0,0c0,0-0.1,0-0.1,0.1l0,0l0,0l0,0c0,0,0,0.1-0.1,0.1l0,0l0,0l0,0l0,0l0,0
			c0,0,0,0-0.1,0.1l0,0l0,0l0,0l0,0l0,0l0,0l0,0l0,0l0,0l0,0l0,0l0,0l0,0c0,0-0.1,0-0.1,0.1l0,0l0,0v0.1l0,0c0,0,0,0-0.1,0.1l0,0
			l0,0l0,0c0,0,0,0,0,0.1l0,0l0,0c0,0,0,0-0.1,0l0,0c0,0,0,0-0.1,0l0,0c0,0,0,0.1-0.1,0.1l0,0l0,0l0,0c0,0,0,0.1-0.1,0.1v0.1l0,0
			l0,0l0,0c0,0,0,0-0.1,0l0,0c0,0,0,0.1-0.1,0.1H107l0,0l0,0l0,0l0,0l0,0l0,0c0,0,0,0-0.1,0l0,0l0,0c0,0,0,0-0.1,0l0,0l0,0l0,0l0,0
			l0,0l0,0l0,0l0,0l0,0c0,0,0,0-0.1,0.1l0,0H106l0,0h-0.1l0,0l0,0c0,0,0,0-0.1,0c0,0-0.1,0-0.1,0.1l0,0h-0.1h-0.1h-0.1h-0.1h-0.1
			l0,0l0,0c0,0,0,0-0.1,0l0,0c-0.1,0-0.1,0-0.2,0c0,0,0,0-0.1,0c0,0-0.1,0-0.1-0.1l0,0c0,0,0,0-0.1,0c0,0,0,0-0.1-0.1
			c0,0,0,0-0.1-0.1l0,0l0,0l0,0l0,0V90l0,0H104l0,0l0,0l0,0c0,0,0,0-0.1,0l0,0c0,0,0-0.1-0.1-0.1l0,0c0,0,0,0,0-0.1l-0.1-0.1l0,0
			c0,0,0,0,0-0.1v-0.2v-0.2v-0.1V89l0,0c0,0,0,0,0-0.1l0,0v-0.1c0,0,0,0,0-0.1l0,0v-0.1c0,0,0-0.1,0.1-0.1l0,0c0,0,0,0,0-0.1l0,0
			l0,0l0,0l0.1-0.1l0,0v-0.1l0,0c0,0,0,0,0-0.1c0,0,0,0,0-0.1c0,0,0,0,0-0.1l0,0c0,0,0,0,0-0.1l0,0l0,0l0,0l0,0v-0.1l0,0
			c0,0,0,0,0.1-0.1l0,0l0,0l0,0l0,0l0,0l0,0V87l0,0c0,0,0,0,0-0.1l0,0l0,0v-0.1l0,0l0,0c0,0,0,0,0-0.1c0,0,0,0,0-0.1l0,0l0,0l0,0
			l0,0l0,0l0,0l0.1-0.1l0,0l0,0l0,0c0,0,0,0,0-0.1l0,0l0.1-0.1l0,0l0,0c0,0,0,0,0-0.1l0,0l0,0l0,0v-0.1l0,0l0,0l0,0l0,0
			c0,0,0-0.1,0.1-0.1v-0.1l0.1-0.1l0,0l0,0l0,0l0,0c0,0,0,0,0.1-0.1l0,0l0,0l0,0c0,0,0,0,0-0.1l0,0l0,0l0,0l0,0l0,0
			c0-0.1,0.1-0.1,0.1-0.2c0,0,0,0,0.1,0l0.1-0.1c0-0.1,0.1-0.2,0.1-0.2c0-0.1,0-0.1,0.1-0.1h0.1l0.1-0.1c0,0,0,0,0-0.1
			s0-0.1,0.1-0.2l0,0l0,0h0.1c0,0,0,0,0.1-0.1l0,0c0,0,0,0,0.1-0.1l0,0h0.1h0.1l0,0l0,0l0,0h0.1l0,0l0,0l0,0l0,0c0,0,0,0,0.1,0l0,0
			l0,0l0,0l0,0l0,0l0,0l0,0l0,0l0,0c0,0,0,0.1,0.1,0.1l0,0l0,0v0.1v0.1l0,0c0,0,0,0,0,0.1l0,0c0,0,0,0-0.1,0l0,0l0,0
			c0,0,0,0-0.1,0.1V85l-0.1,0.1l0,0c0,0,0,0-0.1,0.1c0,0,0,0-0.1,0l0,0l0,0l0,0c0,0,0,0,0,0.1l0,0c0,0,0,0-0.1,0l0,0l0,0
			c0,0,0,0,0,0.1l0,0l0,0c0,0,0,0,0,0.1l0,0l0,0l0,0l0,0v0.1l0,0l0,0l0,0c0,0,0,0,0,0.1l0,0l0,0l0,0l0,0l0,0l0,0c0,0,0,0,0,0.1l0,0
			l0,0l0,0l0,0l0,0l0,0l0,0l0,0l0,0l0,0c0,0,0,0.1-0.1,0.1c0,0,0,0,0,0.1l0,0l0,0l0,0c0,0,0,0.1-0.1,0.1l0,0c0,0,0,0,0,0.1l0,0l0,0
			l0,0c0,0,0,0,0,0.1l0,0l0,0l0,0l0,0c0,0,0,0-0.1,0c0,0,0,0,0,0.1l0,0l0,0l0,0l0,0c0,0,0,0,0,0.1v0.1l-0.1,0.1
			c-0.1,0,0,0.1-0.1,0.1c0,0,0,0,0,0.1c0,0,0,0,0,0.1l0,0c0,0,0,0,0,0.1l0,0l0,0c0,0,0,0.1-0.1,0.1l0,0v0.1l0,0l-0.1,0.1l0,0
			c0,0,0,0,0,0.1c0,0,0,0,0,0.1l0,0c0,0,0,0,0,0.1c0,0,0,0.1-0.1,0.1c0,0,0,0.1-0.1,0.1V88l0,0c0,0,0,0,0,0.1c0,0-0.1,0-0.1,0.1
			c0,0,0,0,0,0.1l0,0c0,0,0,0,0,0.1l0,0l0,0l0,0c0,0,0,0,0,0.1l0,0c0,0,0,0,0,0.1c0,0,0,0,0,0.1l0,0c0,0,0,0,0,0.1l0,0
			c0,0,0,0,0,0.1V89l0,0c0,0,0,0,0,0.1l0,0l0,0l0,0l0,0l0,0h0.1l0,0l0,0l0,0l0,0l0,0l0,0l0,0l0,0l0,0l0,0c0,0,0-0.1,0.1-0.1l0,0l0,0
			c0,0,0,0,0.1,0l0,0l0,0l0,0l0.1-0.1l0,0l0,0l0,0l0,0l0,0c0,0,0.1,0,0.1-0.1h0.1l0,0l0.1-0.1c0,0,0.1,0,0.1-0.1l0,0h0.1l0,0
			c0,0,0,0,0-0.1l0,0h0.1l0,0c0,0,0,0,0.1-0.1l0,0l0,0l0,0l0.1-0.1l0,0l0,0c0,0,0,0,0.1-0.1l0,0l0,0l0,0l0,0c0,0,0,0-0.1,0.1l0,0
			l0,0l0,0l0,0l0,0c0,0,0,0-0.1,0.1l0,0l0,0l0,0l0,0l0,0c0,0,0.1,0,0.1-0.1l0,0c0,0,0,0,0-0.1l0,0c0,0,0,0,0-0.1l0,0V88l0,0l0,0
			c0,0,0.1,0,0.1-0.1l0,0c0,0,0-0.1,0.1-0.1l0,0l0,0l0,0c0,0,0,0,0-0.1l0,0l0.1-0.1l0.1-0.1l0,0l0,0l0,0l0,0l0,0l0,0c0,0,0,0,0.1,0
			c0,0,0,0,0-0.1l0,0l0,0l0,0l0,0c0,0,0,0,0-0.1l0,0l0,0l0,0l0,0c0,0,0,0,0.1-0.1l0,0l0,0l0,0l0,0l0,0l0,0l0,0c0,0,0-0.1,0.1-0.1
			c0,0,0,0,0-0.1c0,0,0,0,0.1,0l0,0l0,0l0,0c0,0,0,0,0-0.1c0,0,0,0,0.1,0c0,0,0,0,0.1-0.1l0,0c0,0,0,0,0-0.1l0,0l0,0l0,0l0,0l0,0
			l0,0l0,0l0,0l0,0c0,0,0,0,0-0.1c0,0,0,0,0.1,0l0,0l0,0l0,0l0,0l0,0l0,0l0,0l0,0l0,0c0,0,0,0,0.1-0.1c0,0,0-0.1,0.1-0.1l0,0
			c0,0,0-0.1,0.1-0.1l0,0l0,0l0,0l0,0c0,0,0,0,0.1-0.1l0,0v-0.1l0,0l0,0l0,0l0,0c0,0,0.1,0,0.1-0.1l0.1-0.1l0,0l0,0c0,0,0,0,0.1,0
			l0,0c0,0,0.1,0,0.1-0.1l0,0l0,0l0,0l0,0l0,0l0,0l0,0l0,0l0,0c0,0,0.1,0,0.1-0.1l0,0l0.1-0.1l0,0l0,0l0,0l0,0l0,0l0,0l0,0
			c0,0,0,0,0.1,0l0,0l0,0l0,0l0,0c0,0,0,0,0-0.1l0,0l0,0l0,0l0,0l0,0l0,0c0,0,0,0,0-0.1l0,0l0,0l0,0l0,0l0,0l0,0l0,0c0,0,0,0,0-0.1
			l0,0l0,0l0,0l0,0l0.1-0.1l0,0l0,0l0,0l0,0l0,0l0,0l0,0l0,0l0,0v-0.1l0,0l0,0l0,0c0,0,0,0,0-0.1l0,0l0,0l0.1-0.1l0,0l0,0l0,0l0,0
			c0,0,0,0,0.1-0.1l0,0l0,0l0,0l0,0l0,0l0,0l0,0l0.1-0.1l0,0h0.1l0,0c0,0,0-0.1,0.1-0.1c0,0,0,0,0.1-0.1l0,0l0,0l0,0l0,0l0,0l0,0
			l0,0c0,0,0-0.1,0.1-0.1c0,0,0,0.1-0.1,0.1l0,0l0,0l0,0l0,0l0,0l0,0c0,0,0,0,0-0.1l0,0l0,0l0,0l0,0l0,0l0,0l0,0l0,0l0,0
			c0,0,0,0,0-0.1l0,0l0.1-0.1l0,0l0,0c0,0,0,0,0.1,0l0,0l0,0l0.1-0.1l0,0V84l0,0l0,0l0,0l0,0l0,0l0,0l0,0l0,0l0,0c0,0-0.1,0-0.1,0.1
			l0,0l0,0l0,0V84l0,0l0,0l0,0l0,0l0,0l0,0l0,0l0,0l0,0l0.1-0.1l0,0c0,0,0,0,0.1,0l0,0l0,0l0,0l0,0l0,0l0,0l0,0l0,0c0,0,0,0,0.1-0.1
			l0,0l0,0l0,0l0,0l0.1-0.1l0,0c0,0,0,0,0.1,0c0,0,0,0,0.1-0.1l0,0l0,0c0,0,0,0,0.1,0l0,0c0,0,0,0,0.1,0l0,0c0,0,0,0,0.1,0l0,0l0,0
			l0,0l0,0l0,0l0,0l0,0h0.1l0,0l0,0l0,0c0,0,0,0.1,0.1,0.1l0,0l0,0C112.3,84.1,112.3,84.2,112.4,84.3
			C112.3,84.2,112.4,84.2,112.4,84.3C112.4,84.2,112.4,84.2,112.4,84.3L112.4,84.3L112.4,84.3z M100.5,93.9L100.5,93.9L100.5,93.9
			L100.5,93.9L100.5,93.9z M101.2,93.6L101.2,93.6L101.2,93.6L101.2,93.6z M101.4,93.4L101.4,93.4L101.4,93.4z M101.5,93.2
			L101.5,93.2L101.5,93.2L101.5,93.2L101.5,93.2z M101.9,93L101.9,93L101.9,93L101.9,93L101.9,93z M102,92.8L102,92.8L102,92.8
			L102,92.8z M102.1,92.8L102.1,92.8L102.1,92.8L102.1,92.8z M102.2,92.7L102.2,92.7L102.2,92.7L102.2,92.7z M102.2,92.6L102.2,92.6
			C102.2,92.7,102.2,92.7,102.2,92.6z M102.7,92.1L102.7,92.1L102.7,92.1L102.7,92.1z M102.7,92.1L102.7,92.1L102.7,92.1L102.7,92.1
			z M102.8,92L102.8,92L102.8,92L102.8,92L102.8,92C102.7,92,102.7,92,102.8,92z M102.8,92L102.8,92L102.8,92z M102.8,92L102.8,92
			L102.8,92C102.8,91.9,102.8,91.9,102.8,92L102.8,92C102.9,91.9,102.9,91.9,102.8,92C102.9,91.9,102.9,91.9,102.8,92z M102.8,92
			L102.8,92L102.8,92L102.8,92z M102.9,91.9L102.9,91.9L102.9,91.9z M103,91.8L103,91.8L103,91.8L103,91.8L103,91.8L103,91.8
			C102.9,91.8,102.9,91.8,103,91.8L103,91.8z M102.9,87.2L102.9,87.2L102.9,87.2L102.9,87.2L102.9,87.2z M103.1,91.6L103.1,91.6
			L103.1,91.6C103.1,91.8,103.1,91.8,103.1,91.6L103.1,91.6L103.1,91.6z M103.3,91.4L103.3,91.4L103.3,91.4
			C103.2,91.4,103.2,91.4,103.3,91.4C103.2,91.5,103.2,91.5,103.3,91.4C103.2,91.5,103.2,91.5,103.3,91.4L103.3,91.4L103.3,91.4
			C103.1,91.5,103.2,91.5,103.3,91.4C103.2,91.5,103.2,91.4,103.3,91.4L103.3,91.4z M103.2,96.3L103.2,96.3L103.2,96.3L103.2,96.3
			L103.2,96.3z M103.3,96.3L103.3,96.3C103.2,96.3,103.2,96.3,103.3,96.3z M103.3,95.6C103.3,95.6,103.3,95.8,103.3,95.6
			C103.3,95.8,103.3,95.8,103.3,95.6L103.3,95.6C103.3,95.8,103.3,95.8,103.3,95.6z M103.3,96.4L103.3,96.4L103.3,96.4
			C103.3,96.6,103.3,96.4,103.3,96.4z M103.3,95.6L103.3,95.6L103.3,95.6L103.3,95.6z M103.3,96.3L103.3,96.3L103.3,96.3L103.3,96.3
			z M103.3,95.5L103.3,95.5L103.3,95.5L103.3,95.5z M103.3,91.3C103.5,91.3,103.5,91.3,103.3,91.3C103.5,91.3,103.5,91.3,103.3,91.3
			L103.3,91.3z M103.5,95.4L103.5,95.4C103.3,95.4,103.3,95.4,103.5,95.4z M103.5,95.3L103.5,95.3L103.5,95.3L103.5,95.3z
			 M103.5,95.3L103.5,95.3L103.5,95.3z M103.5,91.2C103.6,91.3,103.6,91.3,103.5,91.2L103.5,91.2z M103.5,95.1L103.5,95.1
			L103.5,95.1L103.5,95.1L103.5,95.1z M103.6,95C103.5,95,103.5,95,103.6,95L103.6,95z M103.6,91.2L103.6,91.2L103.6,91.2z
			 M103.6,91.2L103.6,91.2L103.6,91.2L103.6,91.2z M103.6,91.1C103.6,91.2,103.6,91.2,103.6,91.1L103.6,91.1z M103.6,94.7
			L103.6,94.7L103.6,94.7z M103.7,94.5C103.7,94.6,103.7,94.6,103.7,94.5C103.7,94.6,103.7,94.5,103.7,94.5z M103.7,91L103.7,91
			C103.8,91,103.8,91,103.7,91C103.8,91,103.8,91.1,103.7,91C103.7,91.1,103.7,91.1,103.7,91C103.7,91.1,103.7,91.1,103.7,91
			C103.7,91.1,103.7,91.1,103.7,91C103.7,91.1,103.7,91.1,103.7,91L103.7,91z M103.7,95C103.7,94.8,103.7,94.8,103.7,95L103.7,95
			L103.7,95z M103.7,94.5L103.7,94.5L103.7,94.5z M103.8,91L103.8,91L103.8,91L103.8,91z M103.8,94.2L103.8,94.2L103.8,94.2
			C103.8,94.3,103.8,94.3,103.8,94.2z M103.8,91L103.8,91L103.8,91z M103.8,94.2L103.8,94.2L103.8,94.2z M104.1,90.5L104.1,90.5
			L104.1,90.5L104.1,90.5C104.1,90.6,104.1,90.6,104.1,90.5c-0.1,0.1-0.1,0.1-0.1,0.2l0,0l0,0l0,0l0,0l0,0l0,0
			C104,90.7,104,90.7,104.1,90.5L104.1,90.5C104,90.6,104,90.6,104.1,90.5C104.1,90.6,104.1,90.5,104.1,90.5z M103.9,94L103.9,94
			L103.9,94z M103.9,94C103.9,94,103.9,93.9,103.9,94C103.9,93.9,103.9,93.9,103.9,94C103.9,93.9,103.9,93.9,103.9,94L103.9,94
			C103.9,93.9,103.9,94,103.9,94L103.9,94z M104,93.9C103.9,93.9,103.9,93.9,104,93.9L104,93.9L104,93.9z M104,93.8L104,93.8
			L104,93.8z M104,90.8L104,90.8L104,90.8L104,90.8z M104.1,93.5L104.1,93.5L104.1,93.5L104.1,93.5z M104.1,93.5L104.1,93.5
			L104.1,93.5z M104.3,93.8L104.3,93.8L104.3,93.8L104.3,93.8L104.3,93.8L104.3,93.8z M104.3,93.5L104.3,93.5
			C104.3,93.6,104.3,93.6,104.3,93.5C104.3,93.6,104.3,93.5,104.3,93.5z M104.3,90.6L104.3,90.6L104.3,90.6L104.3,90.6z M104.4,90.4
			L104.4,90.4C104.4,90.5,104.3,90.4,104.4,90.4C104.3,90.5,104.3,90.5,104.4,90.4C104.3,90.5,104.3,90.5,104.4,90.4L104.4,90.4
			C104.3,90.4,104.4,90.4,104.4,90.4L104.4,90.4z M104.3,90.5L104.3,90.5L104.3,90.5L104.3,90.5z M104.3,93.7L104.3,93.7L104.3,93.7
			L104.3,93.7z M104.3,93.2L104.3,93.2L104.3,93.2z M104.3,92.2L104.3,92.2L104.3,92.2L104.3,92.2z M104.3,93.1
			C104.3,93.1,104.3,93.2,104.3,93.1C104.3,93.2,104.3,93.1,104.3,93.1z M104.4,93.1L104.4,93.1L104.4,93.1z M104.4,90.4L104.4,90.4
			L104.4,90.4L104.4,90.4z M104.4,93L104.4,93L104.4,93z M104.5,90.2C104.5,90.2,104.5,90.3,104.5,90.2L104.5,90.2L104.5,90.2
			C104.5,90.3,104.5,90.3,104.5,90.2C104.4,90.3,104.4,90.3,104.5,90.2C104.4,90.3,104.4,90.3,104.5,90.2L104.5,90.2L104.5,90.2
			C104.6,90.2,104.6,90.2,104.5,90.2C104.6,90.2,104.6,90.2,104.5,90.2z M104.5,92.8L104.5,92.8L104.5,92.8L104.5,92.8z M104.5,93
			L104.5,93L104.5,93z M104.5,92.7L104.5,92.7C104.5,92.8,104.5,92.8,104.5,92.7z M104.6,93C104.5,93,104.5,93,104.6,93L104.6,93
			L104.6,93z M104.5,93L104.5,93L104.5,93z M104.5,93L104.5,93L104.5,93L104.5,93L104.5,93z M104.5,92.9
			C104.6,92.9,104.6,92.9,104.5,92.9L104.5,92.9z M104.5,92.7L104.5,92.7C104.6,92.7,104.6,92.7,104.5,92.7
			C104.5,92.6,104.5,92.6,104.5,92.7C104.6,92.6,104.6,92.7,104.5,92.7L104.5,92.7C104.6,92.7,104.5,92.7,104.5,92.7z M104.6,93
			L104.6,93C104.5,93,104.6,93,104.6,93L104.6,93z M104.6,90.2C104.5,90,104.6,90,104.6,90.2L104.6,90.2z M104.6,90L104.6,90
			L104.6,90z M104.7,92.4C104.7,92.6,104.6,92.6,104.7,92.4C104.6,92.6,104.6,92.6,104.7,92.4L104.7,92.4z M104.7,90L104.7,90
			L104.7,90L104.7,90L104.7,90z M104.6,90L104.6,90C104.7,90,104.7,90,104.6,90L104.6,90z M104.7,92.7
			C104.6,92.7,104.6,92.7,104.7,92.7C104.6,92.8,104.6,92.8,104.7,92.7z M104.7,90L104.7,90L104.7,90L104.7,90z M104.7,92.7
			L104.7,92.7L104.7,92.7z M104.7,92.3L104.7,92.3L104.7,92.3L104.7,92.3z M104.7,89.9L104.7,89.9L104.7,89.9L104.7,89.9z
			 M104.8,92.2L104.8,92.2L104.8,92.2z M104.8,89.9L104.8,89.9L104.8,89.9L104.8,89.9L104.8,89.9L104.8,89.9z M104.8,95.8
			L104.8,95.8L104.8,95.8z M104.8,92.1L104.8,92.1L104.8,92.1L104.8,92.1z M104.8,89.8L104.8,89.8L104.8,89.8L104.8,89.8z M104.9,92
			L104.9,92L104.9,92L104.9,92C104.9,92.1,104.8,92.1,104.9,92C104.8,92.1,104.8,92.1,104.9,92C104.9,92.1,104.9,92,104.9,92
			L104.9,92L104.9,92z M104.9,89.8C104.8,89.8,104.8,89.8,104.9,89.8C104.8,89.8,104.8,89.7,104.9,89.8L104.9,89.8L104.9,89.8z
			 M104.9,89.7L104.9,89.7L104.9,89.7z M104.9,89.7C104.9,89.7,104.9,89.8,104.9,89.7C104.9,89.8,104.9,89.8,104.9,89.7z
			 M104.9,89.8C104.9,89.9,104.9,89.9,104.9,89.8L104.9,89.8L104.9,89.8z M104.9,92C104.9,91.9,104.9,91.9,104.9,92
			C104.9,91.9,104.9,91.9,104.9,92z M104.9,89.7L104.9,89.7L104.9,89.7L104.9,89.7z M104.9,92.1L104.9,92.1L104.9,92.1L104.9,92.1z
			 M105.1,91.9L105.1,91.9C105.1,91.9,105.1,91.8,105.1,91.9L105.1,91.9z M105.1,89.7C105.1,89.6,105.1,89.6,105.1,89.7
			C105.1,89.6,105.1,89.6,105.1,89.7C105.1,89.6,105.1,89.7,105.1,89.7z M105.1,91.8L105.1,91.8L105.1,91.8z M105.1,91.8L105.1,91.8
			L105.1,91.8z M105.1,95.2L105.1,95.2L105.1,95.2L105.1,95.2z M105.1,95.1L105.1,95.1L105.1,95.1z M105.2,89.6L105.2,89.6
			L105.2,89.6C105.1,89.6,105.1,89.6,105.2,89.6z M105.2,95L105.2,95L105.2,95z M105.2,89.5L105.2,89.5L105.2,89.5L105.2,89.5z
			 M105.2,95L105.2,95L105.2,95L105.2,95z M105.2,89.7L105.2,89.7L105.2,89.7L105.2,89.7L105.2,89.7z M105.3,94.7L105.3,94.7
			C105.2,94.7,105.3,94.7,105.3,94.7z M105.3,89.5L105.3,89.5L105.3,89.5L105.3,89.5z M105.3,91.4L105.3,91.4L105.3,91.4
			C105.3,91.5,105.3,91.4,105.3,91.4z M105.3,89.6L105.3,89.6L105.3,89.6L105.3,89.6z M105.4,91.2L105.4,91.2L105.4,91.2L105.4,91.2
			L105.4,91.2L105.4,91.2l-0.2,0.2l0,0l0,0C105.4,91.3,105.4,91.3,105.4,91.2L105.4,91.2z M105.3,89.5L105.3,89.5
			C105.3,89.6,105.3,89.6,105.3,89.5L105.3,89.5z M105.3,89.4L105.3,89.4C105.3,89.4,105.3,89.2,105.3,89.4
			C105.3,89.2,105.4,89.2,105.3,89.4L105.3,89.4L105.3,89.4z M105.3,89.4L105.3,89.4L105.3,89.4L105.3,89.4z M105.4,89.2L105.4,89.2
			L105.4,89.2z M105.4,91.2L105.4,91.2L105.4,91.2z M105.4,94.4L105.4,94.4L105.4,94.4z M105.4,89.5
			C105.4,89.5,105.4,89.4,105.4,89.5C105.4,89.4,105.4,89.4,105.4,89.5z M105.4,89.2L105.4,89.2L105.4,89.2L105.4,89.2z M105.5,91.2
			L105.5,91.2C105.4,91.2,105.4,91.2,105.5,91.2L105.5,91.2z M105.4,89.2C105.4,89.2,105.4,89.1,105.4,89.2
			C105.5,89.2,105.4,89.2,105.4,89.2z M105.5,89.1L105.5,89.1L105.5,89.1L105.5,89.1z M105.6,89.2C105.5,89.2,105.5,89.2,105.6,89.2
			L105.6,89.2L105.6,89.2C105.5,89.2,105.6,89.2,105.6,89.2z M105.6,89.2L105.6,89.2L105.6,89.2z M105.6,89L105.6,89L105.6,89
			C105.6,88.9,105.7,88.9,105.6,89C105.7,88.9,105.7,88.9,105.6,89L105.6,89L105.6,89z M105.6,89.1L105.6,89.1L105.6,89.1
			C105.6,89.2,105.6,89.1,105.6,89.1L105.6,89.1z M105.6,93.8L105.6,93.8L105.6,93.8z M105.7,88.9L105.7,88.9L105.7,88.9L105.7,88.9
			z M105.7,89L105.7,89L105.7,89C105.7,89.1,105.7,89.1,105.7,89L105.7,89C105.7,89.1,105.7,89.1,105.7,89z M105.7,93.6L105.7,93.6
			L105.7,93.6z M105.9,88.8L105.9,88.8L105.9,88.8L105.9,88.8z M105.9,89L105.9,89L105.9,89L105.9,89z M105.9,89L105.9,89L105.9,89
			L105.9,89z M105.9,88.8L105.9,88.8L105.9,88.8L105.9,88.8z M106,88.8L106,88.8L106,88.8C106,88.8,106,88.7,106,88.8
			C106,88.7,106,88.7,106,88.8C106,88.7,106,88.7,106,88.8C106,88.7,106,88.7,106,88.8z M106,88.7L106,88.7
			C106.1,88.7,106.1,88.7,106,88.7L106,88.7L106,88.7z M106.1,88.8L106.1,88.8L106.1,88.8C106,88.8,106,88.8,106.1,88.8L106.1,88.8z
			 M106.1,88.7L106.1,88.7L106.1,88.7z M106.1,88.6L106.1,88.6L106.1,88.6L106.1,88.6z M106.1,88.6
			C106.1,88.4,106.1,88.4,106.1,88.6L106.1,88.6C106.2,88.4,106.2,88.4,106.1,88.6C106.2,88.4,106.2,88.4,106.1,88.6L106.1,88.6
			L106.1,88.6z M106.2,88.6C106.2,88.7,106.2,88.7,106.2,88.6L106.2,88.6C106.2,88.7,106.2,88.7,106.2,88.6
			C106.2,88.7,106.2,88.7,106.2,88.6C106.2,88.7,106.2,88.7,106.2,88.6z M106.2,88.4L106.2,88.4L106.2,88.4L106.2,88.4z M106.3,88.6
			L106.3,88.6C106.2,88.6,106.2,88.6,106.3,88.6L106.3,88.6L106.3,88.6L106.3,88.6z M106.4,88.4L106.4,88.4
			C106.4,88.4,106.3,88.4,106.4,88.4C106.3,88.4,106.3,88.4,106.4,88.4C106.3,88.6,106.3,88.4,106.4,88.4L106.4,88.4z M106.4,88.2
			L106.4,88.2L106.4,88.2L106.4,88.2z M106.5,88.3C106.4,88.3,106.4,88.3,106.5,88.3L106.5,88.3z M106.5,88.1L106.5,88.1L106.5,88.1
			L106.5,88.1L106.5,88.1z M106.5,88.3L106.5,88.3L106.5,88.3L106.5,88.3z M106.5,88.2L106.5,88.2L106.5,88.2z M106.5,92.2
			C106.5,92.3,106.5,92.3,106.5,92.2L106.5,92.2z M106.7,88.2L106.7,88.2L106.7,88.2z M106.7,88L106.7,88
			C106.8,88,106.8,88,106.7,88L106.7,88z M106.7,92L106.7,92L106.7,92C106.7,92.1,106.7,92.1,106.7,92z M106.8,88.1L106.8,88.1
			L106.8,88.1z M106.8,91.9L106.8,91.9L106.8,91.9L106.8,91.9C106.8,92,106.8,92,106.8,91.9L106.8,91.9z M106.9,91.8L106.9,91.8
			C106.8,91.8,106.9,91.8,106.9,91.8z M106.9,88L106.9,88L106.9,88L106.9,88z M106.9,87.9L106.9,87.9
			C106.9,87.9,106.9,88,106.9,87.9C106.9,88,106.9,88,106.9,87.9z M106.9,87.8L106.9,87.8L106.9,87.8z M107,87.6
			C107,87.8,107,87.8,107,87.6C106.9,87.8,107,87.6,107,87.6z M107,87.8C107,87.6,107,87.6,107,87.8C107,87.6,107,87.6,107,87.8z
			 M107,87.9L107,87.9L107,87.9L107,87.9L107,87.9z M107,87.6L107,87.6L107,87.6z M107.1,87.5L107.1,87.5
			C107.1,87.6,107.1,87.5,107.1,87.5L107.1,87.5z M107.1,87.5L107.1,87.5L107.1,87.5z M107.1,87.6L107.1,87.6L107.1,87.6z
			 M107.1,87.5L107.1,87.5L107.1,87.5z M107.2,87.5L107.2,87.5L107.2,87.5C107.1,87.5,107.2,87.5,107.2,87.5z M107.2,87.4
			L107.2,87.4C107.2,87.4,107.1,87.4,107.2,87.4z M107.2,87.4L107.2,87.4C107.3,87.4,107.3,87.4,107.2,87.4L107.2,87.4L107.2,87.4
			C107.3,87.4,107.3,87.4,107.2,87.4L107.2,87.4z M107.2,87.5L107.2,87.5L107.2,87.5z M107.3,91L107.3,91L107.3,91L107.3,91z
			 M107.3,87.3L107.3,87.3L107.3,87.3L107.3,87.3L107.3,87.3z M107.3,87.3L107.3,87.3L107.3,87.3z M107.3,87.4L107.3,87.4
			L107.3,87.4z M107.3,91L107.3,91L107.3,91z M107.3,91L107.3,91L107.3,91L107.3,91z M107.5,91L107.5,91L107.5,91z M107.5,87.3
			L107.5,87.3L107.5,87.3C107.5,87.4,107.5,87.4,107.5,87.3C107.5,87.4,107.5,87.4,107.5,87.3L107.5,87.3z M107.5,90.8L107.5,90.8
			L107.5,90.8L107.5,90.8z M107.5,90.7L107.5,90.7C107.6,90.7,107.5,90.8,107.5,90.7z M107.6,87.2C107.6,87.2,107.6,87.3,107.6,87.2
			C107.6,87.3,107.6,87.3,107.6,87.2z M107.7,87.1C107.7,87.1,107.6,87.1,107.7,87.1L107.7,87.1C107.6,87.1,107.6,87.1,107.7,87.1z
			 M107.6,87.2L107.6,87.2L107.6,87.2L107.6,87.2z M107.7,87.1L107.7,87.1L107.7,87.1L107.7,87.1z M107.8,87.1L107.8,87.1
			L107.8,87.1z M107.8,87.1L107.8,87.1L107.8,87.1z M107.8,86.8L107.8,86.8L107.8,86.8z M107.9,86.8L107.9,86.8L107.9,86.8
			C107.8,87,107.8,87,107.9,86.8C107.8,87,107.8,87,107.9,86.8L107.9,86.8L107.9,86.8L107.9,86.8L107.9,86.8z M107.9,90.2
			L107.9,90.2L107.9,90.2z M107.9,86.7L107.9,86.7C108,86.7,107.9,86.7,107.9,86.7z M108,86.8C107.9,86.8,107.9,86.8,108,86.8
			C107.9,86.8,107.9,86.8,108,86.8z M108,86.6L108,86.6L108,86.6L108,86.6L108,86.6z M108,86.8L108,86.8L108,86.8L108,86.8L108,86.8
			z M108.1,86.7L108.1,86.7L108.1,86.7z M108.1,86.5L108.1,86.5L108.1,86.5z M108.1,86.6C108.1,86.6,108.1,86.7,108.1,86.6
			C108.1,86.7,108.1,86.7,108.1,86.6z M108.3,86.4L108.3,86.4L108.3,86.4C108.3,86.4,108.1,86.4,108.3,86.4z M108.4,86.4L108.4,86.4
			L108.4,86.4L108.4,86.4C108.3,86.5,108.3,86.5,108.4,86.4L108.4,86.4L108.4,86.4L108.4,86.4L108.4,86.4
			C108.4,86.5,108.4,86.5,108.4,86.4C108.4,86.5,108.4,86.4,108.4,86.4L108.4,86.4C108.5,86.4,108.5,86.4,108.4,86.4z M108.3,86.5
			L108.3,86.5L108.3,86.5z M108.3,86.4L108.3,86.4L108.3,86.4L108.3,86.4z M108.3,89.7L108.3,89.7L108.3,89.7z M108.3,89.7
			L108.3,89.7L108.3,89.7z M108.3,86.4L108.3,86.4L108.3,86.4z M108.3,86.4L108.3,86.4L108.3,86.4z M108.4,86.4L108.4,86.4
			C108.3,86.3,108.3,86.3,108.4,86.4L108.4,86.4z M108.4,89.6C108.4,89.6,108.4,89.7,108.4,89.6C108.3,89.6,108.3,89.6,108.4,89.6z
			 M108.4,86.3L108.4,86.3L108.4,86.3L108.4,86.3z M108.5,86.2L108.5,86.2L108.5,86.2L108.5,86.2L108.5,86.2z M108.5,86.3
			L108.5,86.3C108.5,86.4,108.5,86.4,108.5,86.3z M108.5,86.2L108.5,86.2C108.6,86.2,108.6,86.2,108.5,86.2z M108.6,89.4L108.6,89.4
			L108.6,89.4L108.6,89.4z M108.6,86.2L108.6,86.2L108.6,86.2C108.6,86,108.6,86.2,108.6,86.2z M108.7,86.2L108.7,86.2
			C108.6,86.2,108.6,86.3,108.7,86.2C108.6,86.3,108.6,86.3,108.7,86.2L108.7,86.2C108.6,86.3,108.6,86.3,108.7,86.2L108.7,86.2
			L108.7,86.2z M108.6,86L108.6,86L108.6,86z M108.7,85.9L108.7,85.9L108.7,85.9L108.7,85.9L108.7,85.9z M108.8,86L108.8,86
			C108.7,86,108.7,86,108.8,86C108.7,86,108.7,86.2,108.8,86C108.7,86.2,108.7,86,108.8,86z M108.7,89
			C108.7,88.9,108.7,88.9,108.7,89L108.7,89z M108.8,85.9L108.8,85.9L108.8,85.9C108.8,85.8,108.8,85.9,108.8,85.9L108.8,85.9
			C108.8,85.8,108.8,85.9,108.8,85.9z M109.1,85.7C109.1,85.8,109.1,85.8,109.1,85.7C109,85.7,109,85.8,109.1,85.7L109.1,85.7
			c-0.1,0.1-0.1,0.1-0.1,0.2l0,0c0,0,0,0-0.1,0.1l0,0l0,0l0,0l0,0C109.1,85.8,109.1,85.8,109.1,85.7
			C109.1,85.8,109.1,85.8,109.1,85.7L109.1,85.7z M109.1,85.7L109.1,85.7C109.1,85.6,109.1,85.6,109.1,85.7L109.1,85.7z M109.2,85.5
			L109.2,85.5L109.2,85.5z M109.2,85.6C109.2,85.7,109.2,85.7,109.2,85.6L109.2,85.6L109.2,85.6z M109.2,85.5L109.2,85.5L109.2,85.5
			L109.2,85.5z M109.2,85.5L109.2,85.5L109.2,85.5L109.2,85.5z M109.3,85.4L109.3,85.4L109.3,85.4z M109.3,85.6L109.3,85.6
			L109.3,85.6L109.3,85.6z M109.3,85.6L109.3,85.6L109.3,85.6L109.3,85.6z M109.4,85.4L109.4,85.4L109.4,85.4z M109.4,85.5
			L109.4,85.5L109.4,85.5L109.4,85.5z M109.4,85.4C109.4,85.2,109.4,85.2,109.4,85.4C109.4,85.2,109.4,85.4,109.4,85.4z M109.5,85.4
			L109.5,85.4L109.5,85.4L109.5,85.4L109.5,85.4L109.5,85.4L109.5,85.4L109.5,85.4C109.5,85.5,109.5,85.4,109.5,85.4L109.5,85.4z
			 M109.5,85.2L109.5,85.2C109.5,85.2,109.5,85.1,109.5,85.2L109.5,85.2z M109.6,85.1L109.6,85.1C109.5,85.1,109.5,85.1,109.6,85.1
			L109.6,85.1C109.6,85,109.6,85,109.6,85.1L109.6,85.1C109.7,85,109.7,85,109.6,85.1l0.1-0.2l0,0l0,0l0,0l0,0l0,0c0,0,0,0-0.1,0
			V85.1C109.7,85,109.7,85,109.6,85.1C109.6,85,109.6,85.1,109.6,85.1L109.6,85.1z M109.6,85.4L109.6,85.4L109.6,85.4L109.6,85.4
			L109.6,85.4z M109.6,85.2L109.6,85.2L109.6,85.2z M109.9,84.8L109.9,84.8L109.9,84.8L109.9,84.8z M110,84.8L110,84.8L110,84.8
			L110,84.8C110,84.8,109.9,84.8,110,84.8L110,84.8z M110,84.9C110,85,110,85,110,84.9C110,85,109.9,85,110,84.9
			C110,85,110,85,110,84.9C110,85,110,85,110,84.9z M110,84.8L110,84.8L110,84.8L110,84.8L110,84.8z M110.1,84.8L110.1,84.8
			C110.1,84.8,110.1,84.9,110.1,84.8C110.1,84.9,110.1,84.9,110.1,84.8C110.1,84.9,110.1,84.9,110.1,84.8L110.1,84.8L110.1,84.8
			L110.1,84.8z M110.2,84.7L110.2,84.7L110.2,84.7z M110.3,84.6L110.3,84.6L110.3,84.6z M110.5,84.3
			C110.4,84.3,110.4,84.3,110.5,84.3C110.4,84.3,110.4,84.3,110.5,84.3C110.4,84.3,110.4,84.3,110.5,84.3
			C110.4,84.4,110.4,84.3,110.5,84.3z M110.7,84.2L110.7,84.2C110.5,84.2,110.5,84.2,110.7,84.2C110.5,84.2,110.7,84.2,110.7,84.2z
			 M110.7,86.4L110.7,86.4L110.7,86.4z M112.5,84.2L112.5,84.2L112.5,84.2L112.5,84.2L112.5,84.2z"/>
	</g>
	<g>
		<path class="st0b customColor" d="M162.8,38.3c2.1,0,4,0.6,5.5,1.7l4.3-6.6c-2.9-1.9-6.3-3-9.9-3s-7.1,1.1-9.9,3l4.3,6.6
			C158.8,39,160.7,38.3,162.8,38.3z"/>
		<path class="st0b customColor" d="M162.8,22.8c5.3,0,10.1,1.6,14.2,4.3l4.3-6.6c-5.3-3.5-11.7-5.6-18.5-5.6c-6.9,0-13.3,2.1-18.5,5.6l4.3,6.6
			C152.6,24.4,157.5,22.8,162.8,22.8z"/>
		<path class="st0b customColor" d="M162.8,7.9c8.2,0,16,2.5,22.4,6.7l4.3-6.6c-7.7-5.1-16.9-8.1-26.7-8.1c-9.9,0-19.1,3-26.7,8.1l4.3,6.6
			C146.8,10.4,154.4,7.9,162.8,7.9z"/>
	</g>
	<polygon class="st1b customColor" points="90.4,36.7 90.4,72.4 81.2,72.4 81.2,36.7 70.5,36.7 70.5,28.9 101.2,28.9 101.2,36.7 	"/>
	<polygon class="st1b customColor" points="31.6,72.4 51.9,28.9 72.9,72.4 62.4,72.4 51.7,49.1 41.5,72.4 	"/>
	<path class="st1b customColor" d="M0.9,66.8L6.1,61c0.7,1.6,1.7,2.9,3.2,3.8s3.1,1.4,4.9,1.4c2.2,0,3.9-0.6,5.1-1.6c1.3-1,1.9-2.4,1.9-4.1
		c0-2.1-2.1-4.1-6.3-6.2c-1.4-0.7-2.4-1.1-3.2-1.6c-3.8-1.9-6.4-3.9-7.9-5.8c-1.5-1.9-2.2-4.1-2.2-6.7c0-3.5,1.4-6.5,4.2-8.8
		S12.3,28,16.9,28c2.6,0,4.9,0.5,6.9,1.4s3.7,2.4,5,4.3L23.3,39c-0.7-1.3-1.5-2.2-2.6-2.9c-1.3-0.7-2.6-1-4.1-1
		c-1.8,0-3.3,0.5-4.5,1.4s-1.7,2.2-1.7,3.5c0,2.3,2.3,4.5,6.7,6.3c0.9,0.3,1.6,0.7,2.1,0.9c3.7,1.7,6.4,3.5,8.2,5.7
		c1.8,2.2,2.6,4.6,2.6,7.3c0,4.1-1.4,7.3-4.2,9.7c-2.7,2.4-6.5,3.7-11.2,3.7c-3.3,0-6.2-0.6-8.6-1.7C3.8,70.7,2.1,69,0.9,66.8
		L0.9,66.8z"/>
	<polygon class="st1b customColor" points="193.8,72.4 193.8,28.9 203.1,28.9 203.1,64.4 218,64.4 218,72.4 	"/>
	<path class="st1b customColor" d="M105.5,66.8l5.1-5.8c0.7,1.6,1.7,2.9,3.2,3.8c1.5,0.9,3.1,1.4,4.9,1.4c2.2,0,3.9-0.6,5.1-1.6
		c1.3-1,1.9-2.4,1.9-4.1c0-2.1-2.1-4.1-6.3-6.2c-1.4-0.7-2.4-1.1-3.2-1.6c-3.8-1.9-6.4-3.9-7.9-5.8c-1.5-1.9-2.2-4.1-2.2-6.7
		c0-3.5,1.4-6.5,4.2-8.8c2.9-2.3,6.5-3.4,11.1-3.4c2.6,0,4.9,0.5,6.9,1.4c1.9,0.9,3.7,2.4,5,4.3l-5.5,5.3c-0.7-1.3-1.5-2.2-2.6-2.9
		c-1-0.6-2.4-0.9-3.9-0.9c-1.8,0-3.3,0.5-4.5,1.4s-1.7,2.2-1.7,3.5c0,2.3,2.3,4.5,6.7,6.3c0.9,0.3,1.6,0.7,2.1,0.9
		c3.7,1.7,6.4,3.5,8.2,5.7s2.6,4.6,2.6,7.3c0,4.1-1.4,7.3-4.2,9.7c-2.7,2.4-6.5,3.7-11.2,3.7c-3.3,0-6.2-0.6-8.6-1.7
		C108.5,70.7,106.7,69,105.5,66.8L105.5,66.8z"/>
	<path class="st2b customColor" d="M162.8,45.7c1.9,0,3.4,1.5,3.4,3.4s-1.5,3.4-3.4,3.4s-3.4-1.5-3.4-3.4S160.8,45.7,162.8,45.7L162.8,45.7z"/>
	<path class="st3b customColor" d="M184.5,49.4c0-0.3-0.1-0.6-0.1-0.9c0-0.1,0-0.1,0-0.2c0-0.3-0.1-0.7-0.1-0.9v-0.1c-1-4.7-3.4-8.9-7-11.9
		l-0.2,0.3c2.3,3,3.7,6.7,3.7,10.7c0,9.8-8,17.8-17.8,17.8s-17.8-8-17.8-17.8c0-4,1.4-7.8,3.5-10.7l-0.2-0.3
		c-2.2,1.9-3.9,4.2-5.1,6.9l0,0c-0.8,1.6-1.4,3.2-1.7,4.9v0.1c-0.1,0.3-0.1,0.6-0.1,0.9c0,0.1,0,0.1,0,0.2c0,0.3-0.1,0.6-0.1,0.9
		c0,0.1,0,0.1,0,0.2c-0.1,0.7-0.1,1.4-0.1,2.1c0,11.4,8.8,20.8,20,21.7c0.6,0,1.1,0.1,1.8,0.1l0,0l0,0c12,0,21.8-9.7,21.8-21.8
		c0-0.7,0-1.4-0.1-2.1C184.5,49.5,184.5,49.5,184.5,49.4z"/>
	<g>
		<path class="st1b customColor" d="M8,90.4c0.1,0,0.2,0,0.3,0.1l0.8,0.9c-0.5,0.6-1,1-1.6,1.3c-0.7,0.3-1.4,0.5-2.3,0.5c-0.8,0-1.5-0.1-2.2-0.5
			c-0.7-0.2-1.3-0.7-1.7-1.1s-0.8-1-1-1.7C0.1,89.1,0,88.3,0,87.5s0.1-1.6,0.3-2.3C0.6,84.5,1,84,1.5,83.5s1-0.9,1.7-1.1
			s1.4-0.5,2.2-0.5s1.5,0.1,2.2,0.3c0.6,0.2,1.1,0.6,1.6,1l-0.7,0.9c0,0.1-0.1,0.1-0.1,0.1c-0.1,0-0.1,0.1-0.2,0.1s-0.1,0-0.2-0.1
			c-0.1,0-0.1-0.1-0.2-0.1C7.7,84,7.6,84,7.5,83.9c-0.1-0.1-0.2-0.1-0.5-0.2c-0.1-0.1-0.3-0.1-0.6-0.1s-0.5-0.1-0.8-0.1
			c-0.5,0-0.9,0.1-1.4,0.2c-0.5,0.2-0.8,0.5-1,0.8c-0.3,0.3-0.6,0.7-0.7,1.3c-0.1,0.5-0.2,1-0.2,1.6s0.1,1.1,0.2,1.6
			c0.2,0.5,0.5,0.9,0.7,1.3c0.3,0.3,0.7,0.6,1,0.8c0.5,0.2,0.8,0.2,1.3,0.2c0.2,0,0.6,0,0.8,0c0.2,0,0.5-0.1,0.6-0.1
			C7,91,7.1,91,7.3,90.9c0.1-0.1,0.3-0.2,0.5-0.3L8,90.4C7.9,90.4,7.9,90.4,8,90.4z"/>
		<path class="st1b customColor" d="M13.9,85.1c0.6,0,1.1,0.1,1.6,0.2c0.5,0.2,0.9,0.5,1.3,0.8c0.3,0.3,0.6,0.8,0.8,1.3c0.2,0.5,0.2,1,0.2,1.7
			c0,0.6-0.1,1.1-0.2,1.7c-0.2,0.5-0.5,0.9-0.8,1.3c-0.3,0.3-0.7,0.6-1.3,0.8c-0.5,0.2-1,0.2-1.6,0.2s-1.1-0.1-1.6-0.2
			c-0.5-0.2-0.9-0.5-1.3-0.8c-0.3-0.3-0.6-0.8-0.8-1.3s-0.2-1-0.2-1.7c0-0.6,0.1-1.1,0.2-1.7c0.2-0.5,0.5-0.9,0.8-1.3
			c0.3-0.3,0.7-0.6,1.3-0.8S13.4,85.1,13.9,85.1z M13.9,91.6c0.7,0,1.1-0.2,1.5-0.7c0.3-0.5,0.5-1,0.5-1.9c0-0.8-0.1-1.5-0.5-1.9
			c-0.3-0.5-0.8-0.7-1.5-0.7s-1.1,0.2-1.5,0.7c-0.3,0.5-0.5,1-0.5,1.9c0,0.8,0.1,1.5,0.5,1.9C12.8,91.4,13.4,91.6,13.9,91.6z"/>
		<path class="st1b customColor" d="M21.5,86.1c0.1-0.1,0.3-0.3,0.5-0.5c0.2-0.1,0.3-0.2,0.6-0.3c0.2-0.1,0.5-0.1,0.6-0.2c0.2,0,0.5-0.1,0.7-0.1
			c0.5,0,0.8,0.1,1.1,0.2c0.3,0.1,0.6,0.3,0.8,0.6c0.2,0.2,0.3,0.6,0.5,0.9c0.1,0.3,0.1,0.8,0.1,1.1v4.9h-1.6v-4.9
			c0-0.5-0.1-0.8-0.3-1.1c-0.2-0.2-0.6-0.3-1-0.3c-0.3,0-0.6,0.1-0.9,0.2c-0.2,0.1-0.6,0.3-0.8,0.6v5.6H20v-7.5h1.1
			c0.2,0,0.5,0.1,0.5,0.3L21.5,86.1z"/>
		<path class="st1b customColor" d="M30.6,86.1c0.1-0.1,0.3-0.3,0.5-0.5c0.2-0.1,0.3-0.2,0.6-0.3c0.2-0.1,0.5-0.1,0.6-0.2c0.2,0,0.5-0.1,0.7-0.1
			c0.5,0,0.8,0.1,1.1,0.2s0.6,0.3,0.8,0.6c0.2,0.2,0.3,0.6,0.5,0.9s0.1,0.8,0.1,1.1v4.9h-1.8v-4.9c0-0.5-0.1-0.8-0.3-1.1
			c-0.2-0.2-0.6-0.3-1-0.3c-0.3,0-0.6,0.1-0.9,0.2c-0.2,0.1-0.6,0.3-0.8,0.6v5.6h-1.8v-7.5H30c0.2,0,0.5,0.1,0.5,0.3L30.6,86.1z"/>
		<path class="st1b customColor" d="M39.3,89.3c0,0.3,0.1,0.7,0.2,1c0.1,0.3,0.2,0.6,0.5,0.7c0.2,0.2,0.3,0.3,0.7,0.5c0.2,0.1,0.6,0.1,0.8,0.1
			c0.3,0,0.6,0,0.8-0.1s0.5-0.1,0.6-0.2s0.3-0.1,0.5-0.2c0.1-0.1,0.2-0.1,0.3-0.1s0.2,0.1,0.3,0.2l0.6,0.7c-0.2,0.2-0.5,0.5-0.7,0.6
			s-0.6,0.3-0.8,0.3c-0.2,0.1-0.6,0.1-0.8,0.2c-0.3,0-0.6,0.1-0.8,0.1c-0.6,0-1-0.1-1.5-0.2c-0.5-0.2-0.9-0.5-1.3-0.8
			c-0.3-0.3-0.6-0.8-0.8-1.3c-0.2-0.6-0.3-1.1-0.3-1.8c0-0.6,0.1-1,0.2-1.5c0.2-0.5,0.5-0.9,0.7-1.3c0.3-0.3,0.7-0.6,1.1-0.8
			s1-0.3,1.6-0.3c0.5,0,0.9,0.1,1.4,0.2s0.8,0.3,1,0.7c0.3,0.3,0.6,0.7,0.7,1.1c0.1,0.5,0.2,0.9,0.2,1.5c0,0.2,0,0.5-0.1,0.6
			s-0.2,0.1-0.3,0.1C44.1,89.3,39.3,89.3,39.3,89.3z M42.9,88.2c0-0.2,0-0.5-0.1-0.7s-0.1-0.5-0.3-0.6c-0.1-0.1-0.3-0.3-0.6-0.3
			c-0.2-0.1-0.5-0.1-0.7-0.1c-0.6,0-0.9,0.1-1.3,0.5c-0.3,0.3-0.5,0.8-0.6,1.3h3.6V88.2z"/>
		<path class="st1b customColor" d="M52.1,86.8C52.1,86.9,52,86.9,52.1,86.8C52,86.9,51.9,87,51.8,87s-0.2,0-0.2-0.1c-0.1-0.1-0.2-0.1-0.3-0.2
			s-0.2-0.1-0.5-0.2c-0.2-0.1-0.3-0.1-0.7-0.1c-0.3,0-0.6,0.1-0.9,0.2c-0.2,0.1-0.5,0.3-0.6,0.5s-0.3,0.5-0.3,0.8
			c-0.1,0.3-0.1,0.7-0.1,1c0,0.5,0,0.8,0.1,1.1c0.1,0.3,0.2,0.6,0.3,0.8c0.1,0.2,0.3,0.3,0.6,0.5c0.2,0.1,0.5,0.1,0.8,0.1
			s0.6,0,0.7-0.1c0.2-0.1,0.3-0.1,0.5-0.2c0.1-0.1,0.2-0.1,0.3-0.2s0.2-0.1,0.3-0.1s0.2,0.1,0.3,0.2l0.6,0.7
			c-0.2,0.2-0.5,0.5-0.7,0.6s-0.5,0.3-0.8,0.3c-0.2,0.1-0.6,0.1-0.8,0.2c-0.2,0-0.6,0.1-0.8,0.1c-0.5,0-0.9-0.1-1.4-0.2
			c-0.5-0.2-0.8-0.5-1.1-0.8s-0.6-0.8-0.8-1.3s-0.2-1-0.2-1.7c0-0.6,0.1-1.1,0.2-1.6c0.1-0.5,0.5-0.9,0.7-1.3
			c0.3-0.3,0.7-0.7,1.1-0.8c0.5-0.2,1-0.3,1.6-0.3s1.1,0.1,1.5,0.2c0.5,0.2,0.8,0.5,1.1,0.8L52.1,86.8z"/>
		<path class="st1b customColor" d="M56.9,93.1c-0.7,0-1.1-0.2-1.6-0.6c-0.3-0.3-0.6-0.9-0.6-1.6v-4.3H54c-0.1,0-0.2,0-0.2-0.1
			c-0.1-0.1-0.1-0.1-0.1-0.3v-0.7l1.3-0.2l0.3-2.2c0-0.1,0.1-0.2,0.1-0.2c0.1,0,0.1-0.1,0.2-0.1h0.9v2.5h2.1v1.4h-1.8v4.2
			c0,0.2,0.1,0.5,0.2,0.6c0.1,0.1,0.2,0.2,0.5,0.2c0.1,0,0.2,0,0.3,0s0.1,0,0.2-0.1c0.1,0,0.1-0.1,0.1-0.1h0.1h0.1l0.1,0.1l0.6,0.9
			c-0.2,0.2-0.6,0.3-0.9,0.5C57.7,93,57.3,93.1,56.9,93.1z"/>
		<path class="st1b customColor" d="M62.8,82.9c0,0.1,0,0.3-0.1,0.5c-0.1,0.1-0.1,0.2-0.2,0.3c-0.1,0.1-0.2,0.2-0.3,0.2C62.1,84,61.9,84,61.7,84
			s-0.3,0-0.5-0.1c-0.1-0.1-0.2-0.1-0.3-0.2s-0.2-0.2-0.2-0.3c-0.1-0.1-0.1-0.3-0.1-0.5c0-0.1,0-0.3,0.1-0.5
			c0.1-0.1,0.1-0.2,0.2-0.3c0.1-0.1,0.2-0.2,0.3-0.2c0.1-0.1,0.3-0.1,0.5-0.1s0.3,0,0.5,0.1c0.1,0.1,0.2,0.1,0.3,0.2
			s0.2,0.2,0.2,0.3C62.6,82.6,62.8,82.7,62.8,82.9z M62.4,85.2V93h-1.8v-7.8H62.4z"/>
		<path class="st1b customColor" d="M66.6,86.1c0.1-0.1,0.3-0.3,0.5-0.5c0.2-0.1,0.3-0.2,0.6-0.3c0.2-0.1,0.5-0.1,0.6-0.2c0.2,0,0.5-0.1,0.7-0.1
			c0.5,0,0.8,0.1,1.1,0.2c0.3,0.1,0.6,0.3,0.8,0.6c0.2,0.2,0.3,0.6,0.5,0.9c0.1,0.3,0.1,0.8,0.1,1.1v4.9h-1.8v-4.9
			c0-0.5-0.1-0.8-0.3-1.1c-0.2-0.2-0.6-0.3-1-0.3c-0.3,0-0.6,0.1-0.9,0.2c-0.2,0.1-0.6,0.3-0.8,0.6v5.6h-1.8v-7.5H66
			c0.2,0,0.5,0.1,0.5,0.3L66.6,86.1z"/>
		<path class="st1b customColor" d="M80.8,85.4v0.7c0,0.2-0.1,0.3-0.5,0.5l-0.7,0.1c0.1,0.2,0.1,0.6,0.1,0.9s-0.1,0.7-0.2,1s-0.3,0.6-0.7,0.8
			c-0.2,0.2-0.6,0.3-0.9,0.5c-0.3,0.1-0.8,0.2-1.1,0.2c-0.1,0-0.3,0-0.5,0c-0.1,0-0.2,0-0.5-0.1c-0.2,0.1-0.3,0.3-0.3,0.5
			c0,0.1,0.1,0.2,0.2,0.3c0.1,0.1,0.3,0.1,0.6,0.1c0.2,0,0.5,0,0.8,0s0.6,0,0.9,0s0.6,0.1,0.9,0.1c0.3,0.1,0.6,0.1,0.8,0.3
			c0.2,0.1,0.5,0.3,0.6,0.6c0.1,0.2,0.2,0.6,0.2,0.9s-0.1,0.7-0.2,1s-0.5,0.6-0.7,0.9c-0.3,0.2-0.7,0.5-1.1,0.6
			c-0.5,0.1-1,0.2-1.6,0.2s-1.1,0-1.5-0.1c-0.5-0.1-0.8-0.2-1-0.5c-0.3-0.2-0.5-0.5-0.7-0.7c-0.1-0.2-0.2-0.5-0.2-0.8
			s0.1-0.7,0.3-0.9c0.2-0.2,0.6-0.5,0.9-0.6c-0.2-0.1-0.3-0.2-0.5-0.5c-0.1-0.2-0.2-0.5-0.2-0.7c0-0.1,0-0.2,0.1-0.3
			c0-0.1,0.1-0.2,0.2-0.3c0.1-0.1,0.2-0.2,0.3-0.3c0.1-0.1,0.2-0.2,0.5-0.3c-0.3-0.2-0.7-0.5-0.9-0.8C74.1,88.4,74,88,74,87.5
			c0-0.3,0.1-0.7,0.2-1s0.3-0.6,0.7-0.8c0.2-0.2,0.6-0.3,1-0.5c0.3-0.1,0.8-0.2,1.3-0.2c0.3,0,0.7,0,0.9,0.1
			c0.3,0.1,0.6,0.1,0.8,0.3H80.8z M78.9,93.3c0-0.1,0-0.2-0.1-0.3c-0.1-0.1-0.2-0.1-0.3-0.2c-0.1,0-0.3-0.1-0.6-0.1s-0.5,0-0.7,0
			s-0.5,0-0.7,0s-0.5,0-0.7-0.1c-0.2,0.1-0.3,0.2-0.5,0.5c-0.1,0.1-0.2,0.3-0.2,0.6c0,0.1,0,0.2,0.1,0.3c0.1,0.1,0.2,0.2,0.3,0.3
			c0.1,0.1,0.3,0.1,0.6,0.2c0.2,0,0.6,0.1,0.9,0.1s0.7,0,0.9-0.1c0.2,0,0.5-0.1,0.6-0.2s0.2-0.2,0.3-0.3
			C78.9,93.6,78.9,93.4,78.9,93.3z M76.8,88.9c0.2,0,0.5,0,0.6-0.1c0.2-0.1,0.3-0.1,0.5-0.2c0.1-0.1,0.2-0.2,0.2-0.5
			c0.1-0.1,0.1-0.3,0.1-0.6c0-0.3-0.1-0.7-0.3-0.9c-0.2-0.2-0.6-0.3-1-0.3c-0.5,0-0.8,0.1-1,0.3c-0.2,0.2-0.3,0.6-0.3,0.9
			c0,0.2,0,0.3,0.1,0.5c0.1,0.1,0.1,0.3,0.2,0.5c0.1,0.1,0.2,0.2,0.5,0.2C76.4,88.9,76.6,88.9,76.8,88.9z"/>
		<path class="st1b customColor" d="M122.5,82.9c0,0.1,0,0.3-0.1,0.5c-0.1,0.1-0.1,0.2-0.2,0.3c-0.1,0.1-0.2,0.2-0.3,0.2
			c-0.1,0.1-0.3,0.1-0.5,0.1c-0.1,0-0.3,0-0.5-0.1c-0.1-0.1-0.2-0.1-0.3-0.2c-0.1-0.1-0.2-0.2-0.2-0.3c-0.1-0.1-0.1-0.3-0.1-0.5
			c0-0.1,0-0.3,0.1-0.5c0.1-0.1,0.1-0.2,0.2-0.3c0.1-0.1,0.2-0.2,0.3-0.2c0.1-0.1,0.3-0.1,0.5-0.1c0.1,0,0.3,0,0.5,0.1
			c0.1,0.1,0.2,0.1,0.3,0.2c0.1,0.1,0.2,0.2,0.2,0.3C122.5,82.6,122.5,82.7,122.5,82.9z M122.3,85.2V93h-1.8v-7.8H122.3z"/>
		<path class="st1b customColor" d="M129.5,86.7c0,0.1-0.1,0.1-0.1,0.1s-0.1,0-0.2,0c-0.1,0-0.2,0-0.3-0.1c-0.1,0-0.2-0.1-0.3-0.1
			c-0.1-0.1-0.3-0.1-0.5-0.1s-0.3-0.1-0.6-0.1c-0.3,0-0.7,0.1-0.9,0.2c-0.2,0.1-0.3,0.3-0.3,0.6c0,0.1,0,0.3,0.1,0.5
			c0.1,0.1,0.2,0.2,0.5,0.3c0.2,0.1,0.3,0.1,0.6,0.2c0.2,0.1,0.5,0.1,0.7,0.2s0.5,0.2,0.7,0.2c0.2,0.1,0.5,0.2,0.6,0.3
			c0.2,0.1,0.3,0.3,0.5,0.6c0.1,0.2,0.1,0.5,0.1,0.8s-0.1,0.7-0.2,1c-0.1,0.3-0.3,0.6-0.6,0.8c-0.2,0.2-0.6,0.5-1,0.6
			c-0.3,0.1-0.8,0.2-1.4,0.2c-0.2,0-0.6,0-0.8-0.1c-0.2,0-0.5-0.1-0.7-0.2s-0.5-0.2-0.7-0.3c-0.2-0.1-0.3-0.2-0.6-0.3l0.5-0.7
			c0-0.1,0.1-0.1,0.2-0.2c0.1,0,0.2-0.1,0.3-0.1c0.1,0,0.2,0,0.3,0.1c0.1,0.1,0.2,0.1,0.3,0.2c0.1,0.1,0.3,0.1,0.5,0.2
			s0.5,0.1,0.7,0.1s0.5,0,0.6-0.1c0.1,0,0.3-0.1,0.3-0.2c0.1-0.1,0.2-0.2,0.2-0.3c0-0.1,0.1-0.2,0.1-0.3c0-0.2,0-0.3-0.1-0.5
			c-0.1-0.1-0.2-0.2-0.5-0.3c-0.2-0.1-0.3-0.1-0.6-0.2c-0.2-0.1-0.5-0.1-0.7-0.2s-0.5-0.2-0.7-0.2c-0.2-0.1-0.5-0.2-0.6-0.5
			c-0.2-0.1-0.3-0.3-0.5-0.6c-0.1-0.2-0.1-0.6-0.1-0.9s0.1-0.6,0.2-0.9s0.3-0.6,0.6-0.8c0.2-0.2,0.6-0.3,0.9-0.6
			c0.3-0.1,0.8-0.2,1.3-0.2c0.6,0,1,0.1,1.5,0.2c0.5,0.2,0.8,0.5,1.1,0.7L129.5,86.7z"/>
		<path class="st1b customColor" d="M146.9,85.2l-2.5,7.8h-1.5c-0.2,0-0.3-0.1-0.3-0.3l-1.4-4.5c0-0.1-0.1-0.3-0.1-0.5c0-0.1-0.1-0.3-0.1-0.5
			c0,0.1-0.1,0.3-0.1,0.5c0,0.1-0.1,0.3-0.1,0.5l-1.4,4.5c-0.1,0.2-0.2,0.3-0.5,0.3h-1.5l-2.5-7.8h1.5c0.1,0,0.2,0,0.3,0.1
			s0.1,0.1,0.2,0.2l1.1,4.1c0,0.2,0.1,0.5,0.1,0.7s0.1,0.5,0.1,0.7c0-0.2,0.1-0.5,0.2-0.7s0.1-0.5,0.2-0.7l1.3-4.1
			c0-0.1,0.1-0.2,0.2-0.2c0.1-0.1,0.2-0.1,0.3-0.1h0.8c0.1,0,0.2,0,0.3,0.1s0.1,0.1,0.2,0.2l1.3,4.1c0.1,0.2,0.1,0.5,0.2,0.7
			c0.1,0.2,0.1,0.5,0.1,0.7c0.1-0.5,0.1-0.9,0.2-1.4l1.1-4.1c0-0.1,0.1-0.2,0.2-0.2c0.1-0.1,0.2-0.1,0.3-0.1
			C145.1,85.2,146.9,85.2,146.9,85.2z"/>
		<path class="st1b customColor" d="M150.4,86c0.3-0.2,0.7-0.5,1-0.7s0.8-0.2,1.3-0.2s0.8,0.1,1.1,0.2s0.6,0.3,0.8,0.6c0.2,0.2,0.3,0.6,0.5,0.9
			c0.1,0.3,0.1,0.8,0.1,1.1v4.9h-1.8V88c0-0.5-0.1-0.8-0.3-1.1c-0.2-0.2-0.6-0.3-1-0.3c-0.3,0-0.6,0.1-0.9,0.2
			c-0.2,0.1-0.6,0.3-0.8,0.6V93h-1.8V81.7h1.8L150.4,86L150.4,86z"/>
		<path class="st1b customColor" d="M157.4,86.2c0.9-0.8,1.9-1.3,3.2-1.3c0.5,0,0.9,0.1,1.3,0.2c0.3,0.1,0.7,0.3,0.9,0.6c0.2,0.2,0.5,0.6,0.6,0.9
			s0.2,0.8,0.2,1.3v4.9h-0.8c-0.2,0-0.3,0-0.5-0.1c-0.1,0-0.2-0.1-0.2-0.3l-0.1-0.6c-0.2,0.2-0.3,0.3-0.6,0.5
			c-0.2,0.1-0.3,0.2-0.6,0.3c-0.2,0.1-0.5,0.1-0.7,0.2c-0.2,0-0.5,0.1-0.8,0.1s-0.7,0-0.9-0.1s-0.6-0.2-0.7-0.3
			c-0.2-0.2-0.3-0.3-0.5-0.7c-0.1-0.2-0.1-0.6-0.1-0.9c0-0.2,0-0.3,0.1-0.6s0.2-0.3,0.3-0.6s0.3-0.3,0.6-0.5
			c0.2-0.1,0.6-0.3,0.9-0.5c0.3-0.1,0.8-0.2,1.3-0.2c0.5-0.1,1-0.1,1.6-0.1v-0.5c0-0.6-0.1-0.9-0.3-1.1s-0.6-0.3-0.9-0.3
			s-0.6,0-0.8,0.1s-0.3,0.1-0.6,0.2c-0.1,0.1-0.3,0.1-0.5,0.2c-0.1,0.1-0.2,0.1-0.5,0.1c-0.1,0-0.2,0-0.3-0.1s-0.1-0.1-0.2-0.2
			L157.4,86.2z M161.6,89.7c-0.6,0-1,0.1-1.4,0.1c-0.3,0.1-0.7,0.1-0.9,0.2s-0.3,0.2-0.5,0.3c-0.1,0.1-0.1,0.3-0.1,0.5
			c0,0.3,0.1,0.6,0.3,0.7s0.5,0.2,0.8,0.2s0.7-0.1,1-0.2c0.2-0.1,0.6-0.3,0.8-0.7L161.6,89.7L161.6,89.7z"/>
		<path class="st1b customColor" d="M168.3,93.1c-0.7,0-1.1-0.2-1.6-0.6c-0.3-0.3-0.6-0.9-0.6-1.6v-4.3h-0.8c-0.1,0-0.2,0-0.2-0.1
			c-0.1-0.1-0.1-0.1-0.1-0.3v-0.7l1.3-0.2l0.3-2.2c0-0.1,0.1-0.2,0.1-0.2c0.1,0,0.1-0.1,0.2-0.1h0.9v2.5h2.1v1.4h-2.1v4.2
			c0,0.2,0.1,0.5,0.2,0.6c0.1,0.1,0.2,0.2,0.5,0.2c0.1,0,0.2,0,0.3,0s0.1,0,0.2-0.1c0.1,0,0.1-0.1,0.1-0.1h0.1h0.1l0.1,0.1l0.6,0.9
			c-0.2,0.2-0.6,0.3-0.9,0.5C169.1,93,168.6,93.1,168.3,93.1z"/>
		<path class="st1b customColor" d="M186.9,85.2l-2.5,7.8h-1.5c-0.2,0-0.3-0.1-0.3-0.3l-1.4-4.5c0-0.1-0.1-0.3-0.1-0.5c0-0.1-0.1-0.3-0.1-0.5
			c0,0.1-0.1,0.3-0.1,0.5c0,0.1-0.1,0.3-0.1,0.5l-1.4,4.5c-0.1,0.2-0.2,0.3-0.5,0.3h-1.5l-2.5-7.8h1.5c0.1,0,0.2,0,0.3,0.1
			s0.1,0.1,0.2,0.2l1.1,4.1c0,0.2,0.1,0.5,0.1,0.7s0.1,0.5,0.1,0.7c0-0.2,0.1-0.5,0.2-0.7c0.1-0.2,0.1-0.5,0.2-0.7l1.3-4.1
			c0-0.1,0.1-0.2,0.2-0.2c0.1-0.1,0.2-0.1,0.3-0.1h0.8c0.1,0,0.2,0,0.3,0.1s0.1,0.1,0.2,0.2l1.3,4.1c0.1,0.2,0.1,0.5,0.2,0.7
			c0.1,0.2,0.1,0.5,0.1,0.7c0.1-0.5,0.1-0.9,0.2-1.4l1.1-4.1c0-0.1,0.1-0.2,0.2-0.2c0.1-0.1,0.2-0.1,0.3-0.1
			C185.1,85.2,186.9,85.2,186.9,85.2z"/>
		<path class="st1b customColor" d="M189.8,89.3c0,0.3,0.1,0.7,0.2,1c0.1,0.3,0.2,0.6,0.5,0.7c0.2,0.2,0.3,0.3,0.7,0.5c0.2,0.1,0.6,0.1,0.8,0.1
			s0.6,0,0.8-0.1s0.5-0.1,0.6-0.2s0.3-0.1,0.5-0.2c0.1-0.1,0.2-0.1,0.3-0.1s0.2,0.1,0.3,0.2l0.6,0.7c-0.2,0.2-0.5,0.5-0.7,0.6
			s-0.6,0.3-0.8,0.3c-0.2,0.1-0.6,0.1-0.8,0.2c-0.3,0-0.6,0.1-0.8,0.1c-0.6,0-1-0.1-1.5-0.2c-0.5-0.2-0.9-0.5-1.3-0.8
			c-0.3-0.3-0.6-0.8-0.8-1.3c-0.2-0.6-0.3-1.1-0.3-1.8c0-0.6,0.1-1,0.2-1.5c0.2-0.5,0.5-0.9,0.7-1.3c0.3-0.3,0.7-0.6,1.1-0.8
			s1-0.3,1.6-0.3c0.5,0,0.9,0.1,1.4,0.2s0.8,0.3,1,0.7c0.3,0.3,0.6,0.7,0.7,1.1c0.1,0.5,0.2,0.9,0.2,1.5c0,0.2,0,0.5-0.1,0.6
			s-0.2,0.1-0.3,0.1C194.6,89.3,189.8,89.3,189.8,89.3z M193.3,88.2c0-0.2,0-0.5-0.1-0.7s-0.1-0.5-0.3-0.6c-0.1-0.1-0.3-0.3-0.6-0.3
			c-0.2-0.1-0.5-0.1-0.7-0.1c-0.6,0-0.9,0.1-1.3,0.5c-0.3,0.3-0.5,0.8-0.6,1.3h3.6V88.2z"/>
		<path class="st1b customColor" d="M207.8,81.7v11.2h-1.1c-0.2,0-0.5-0.1-0.5-0.3l-0.1-0.8c-0.3,0.3-0.7,0.7-1,0.9c-0.5,0.2-0.9,0.3-1.4,0.3
			s-0.8-0.1-1.1-0.2s-0.7-0.5-0.9-0.8s-0.5-0.8-0.6-1.3s-0.2-1-0.2-1.7c0-0.6,0.1-1.1,0.2-1.6c0.1-0.5,0.3-0.9,0.7-1.3
			c0.3-0.3,0.7-0.7,1-0.8c0.5-0.2,0.9-0.3,1.4-0.3s0.8,0.1,1.1,0.2s0.6,0.3,0.8,0.6v-4.1L207.8,81.7L207.8,81.7z M206,87.2
			c-0.2-0.2-0.5-0.5-0.7-0.6s-0.6-0.1-0.8-0.1s-0.6,0-0.8,0.1s-0.5,0.2-0.6,0.5c-0.1,0.2-0.2,0.5-0.3,0.8s-0.1,0.7-0.1,1.1
			c0,0.5,0,0.8,0.1,1.1c0.1,0.3,0.2,0.6,0.3,0.8s0.3,0.3,0.5,0.5c0.2,0.1,0.5,0.1,0.7,0.1c0.3,0,0.7-0.1,1-0.2
			c0.2-0.1,0.6-0.3,0.8-0.7L206,87.2L206,87.2z"/>
		<path class="st1b customColor" d="M213.7,85.1c0.6,0,1.1,0.1,1.6,0.2c0.5,0.2,0.9,0.5,1.3,0.8c0.3,0.3,0.6,0.8,0.8,1.3s0.2,1,0.2,1.7
			c0,0.6-0.1,1.1-0.2,1.7c-0.2,0.5-0.5,0.9-0.8,1.3c-0.3,0.3-0.7,0.6-1.3,0.8c-0.5,0.2-1,0.2-1.6,0.2s-1.1-0.1-1.6-0.2
			c-0.5-0.2-0.9-0.5-1.3-0.8c-0.3-0.3-0.6-0.8-0.8-1.3s-0.2-1-0.2-1.7c0-0.6,0.1-1.1,0.2-1.7c0.2-0.5,0.5-0.9,0.8-1.3
			c0.3-0.3,0.7-0.6,1.3-0.8S213.1,85.1,213.7,85.1z M213.7,91.6c0.7,0,1.1-0.2,1.5-0.7c0.3-0.5,0.5-1,0.5-1.9c0-0.8-0.1-1.5-0.5-1.9
			c-0.3-0.5-0.8-0.7-1.5-0.7s-1.1,0.2-1.5,0.7c-0.3,0.5-0.5,1-0.5,1.9c0,0.8,0.1,1.5,0.5,1.9C212.5,91.4,213.1,91.6,213.7,91.6z"/>
	</g>
</g>
</svg>
