<?xml version="1.0" encoding="utf-8"?>
<!-- Generator: Adobe Illustrator 23.0.6, SVG Export Plug-In . SVG Version: 6.00 Build 0)  -->
<svg version="1.1" id="Layer_1" xmlns="http://www.w3.org/2000/svg" xmlns:xlink="http://www.w3.org/1999/xlink" x="0px" y="0px"
	 viewBox="0 0 344 100" style="enable-background:new 0 0 344 100;" xml:space="preserve">
<style type="text/css">
	.st0c{fill:#939598;}
	.st1c{fill:#C8002D;}
</style>
<g>
	<path class="st0c customColor" d="M166.2,55.9c0,5.6-3.4,8.4-10.1,8.4c-3,0-5.7-0.4-8.4-1l0.9-4.2c2.4,1,4.9,1.4,7.6,1.4c4,0,5.9-1.1,5.9-3.5
		c0-1.1-0.5-2-1.4-2.7c-0.9-0.6-2.4-1.5-4.4-2.2c-2.6-1.1-4.5-2.1-5.6-3.1c-1.7-1.5-2.5-3.2-2.5-5.4s0.7-4,2.4-5.6
		c1.5-1.5,3.9-2.4,7.1-2.4c3.1,0,5.6,0.2,7.5,0.9l-0.9,4.1c-2-0.9-4.2-1.2-6.7-1.2c-3.5,0-5.2,1-5.2,3.1c0,1.1,0.4,1.9,1.1,2.6
		c0.7,0.6,2.2,1.5,4.6,2.4c2.5,1,4.2,2,5.4,3C165.3,52,166.2,53.8,166.2,55.9"/>
	<path class="st0c customColor" d="M192.5,50.3L192.5,50.3c0-3-0.7-5.6-2.1-8c-1.4-2.4-3.5-3.5-6.1-3.5s-4.6,1.1-6,3.2c-1.4,2.2-2.1,4.7-2.1,7.6
		c0,3,0.7,5.6,2.1,8c1.4,2.4,3.5,3.5,6.1,3.5s4.6-1.1,6-3.2C191.7,55.6,192.5,53.1,192.5,50.3 M197.2,49.3c0,4.9-1.4,8.7-4,11.5
		c-2.6,2.7-5.7,4.1-9.4,4.1c-3.4,0-6.2-1.2-8.7-3.6c-2.4-2.4-3.6-5.9-3.6-10.2c0-4.9,1.4-8.7,4-11.5s5.7-4.1,9.4-4.1
		c3.4,0,6.2,1.2,8.6,3.6C196,41.4,197.2,44.8,197.2,49.3"/>
	<path class="st0c customColor" d="M219.8,36.6l-1.2,4.5c-1.4-0.6-2.7-0.9-4-0.9c-3.4,0-5.6,1.7-6.6,5.1c0,8.7,0,14.8,0.1,18.3h-4.9
		c0.2-6,0.5-10.7,0.5-14.1c0-4.5-0.4-8.9-1.2-13l4.7-0.7c0.4,2.1,0.5,3.5,0.5,4.2h0.2c2-3,4.2-4.5,6.9-4.5
		C216.3,35.6,217.9,35.9,219.8,36.6"/>
	<path class="st0c customColor" d="M243.2,50.3L243.2,50.3c0-3-0.7-5.6-2.1-8c-1.4-2.4-3.5-3.5-6.1-3.5s-4.6,1.1-6,3.2c-1.4,2.2-2.1,4.7-2.1,7.6
		c0,3,0.7,5.6,2.1,8c1.4,2.4,3.5,3.5,6.1,3.5s4.6-1.1,6-3.2C242.5,55.6,243.2,53.1,243.2,50.3 M247.9,49.3c0,4.9-1.4,8.7-4,11.5
		c-2.6,2.7-5.7,4.1-9.4,4.1c-3.4,0-6.2-1.2-8.6-3.6c-2.4-2.4-3.6-5.9-3.6-10.2c0-4.9,1.4-8.7,4-11.5c2.6-2.7,5.7-4.1,9.4-4.1
		c3.4,0,6.2,1.2,8.6,3.6C246.7,41.4,247.9,44.8,247.9,49.3"/>
	<path class="st0c customColor" d="M271.4,55.9c0,5.6-3.4,8.4-10.1,8.4c-3,0-5.7-0.4-8.4-1l0.9-4.2c2.4,1,4.9,1.4,7.6,1.4c4,0,5.9-1.1,5.9-3.5
		c0-1.1-0.4-2-1.4-2.7c-0.9-0.6-2.4-1.5-4.4-2.2c-2.6-1.1-4.4-2.1-5.6-3.1c-1.7-1.5-2.5-3.2-2.5-5.4s0.7-4,2.4-5.6
		c1.5-1.5,3.9-2.4,7.1-2.4c3.1,0,5.6,0.2,7.5,0.9l-0.9,4.1c-2-0.9-4.2-1.2-6.7-1.2c-3.5,0-5.2,1-5.2,3.1c0,1.1,0.4,1.9,1.1,2.6
		c0.7,0.6,2.2,1.5,4.6,2.4c2.5,1,4.2,2,5.4,3C270.5,52,271.4,53.8,271.4,55.9"/>
	<path class="st0c customColor" d="M284.5,59.5c0,1.1-0.4,2.1-1.1,3s-1.7,1.2-3,1.2c-1.1,0-1.9-0.4-2.5-1.1c-0.6-0.7-0.9-1.6-0.9-2.6
		c0-1.1,0.4-2.1,1.1-2.9c0.7-0.9,1.7-1.2,3-1.2c1.1,0,1.9,0.4,2.5,1C284.3,57.6,284.5,58.4,284.5,59.5"/>
	<path class="st1c customColor" d="M314.7,63.6h-6.4c0-0.6-1.7-3.2-5.2-7.6c-3.6-4.6-5.9-6.9-6.7-6.9h-0.2c0,4.1,0.1,8.9,0.2,14.5h-4.7
		c0.2-7,0.4-14.1,0.4-21.3c0-7.4-0.2-13.7-0.7-19l5.2-0.2c-0.2,4.1-0.2,12.1-0.2,23.9h0.2c0.6,0,2.5-1.6,5.6-4.9
		c3.1-3.2,4.7-5.1,4.7-5.9h6c0,0.6-1.4,2.2-4.2,4.7c-2.6,2.4-5.1,4.4-7.2,5.9V47c2.2,1.7,5.1,4.9,8.6,9.2
		C313.1,60.6,314.7,63,314.7,63.6"/>
	<path class="st1c customColor" d="M335.4,45.2L335.4,45.2c0-2.1-0.6-3.7-1.9-4.9s-2.9-1.6-4.7-1.6c-1.9,0-3.4,0.5-4.6,1.6s-1.9,2.6-1.9,4.6
		c0,2.1,0.6,3.6,1.9,4.7c1.2,1.1,2.9,1.6,4.9,1.6c1.7,0,3.4-0.5,4.5-1.6C334.8,48.5,335.4,47,335.4,45.2 M339.1,68.5L339.1,68.5
		c0-1.7-0.6-3-1.9-3.7c-1.2-0.7-3.6-1.1-7-1.1c-2.4,0-4.5-0.1-6.4-0.4c-2.2,1.1-3.4,2.7-3.4,5c0,4.6,2.9,7,8.7,7
		c3,0,5.4-0.6,7.2-1.9C338.2,72.1,339.1,70.5,339.1,68.5 M344,32.9l-0.4,4c-3.4,0-5.2,0.6-5.6,1.7v0.2c1.1,1.5,1.7,3.2,1.7,5.1
		c0,3-0.9,5.5-2.7,7.4c-1.9,2-4.7,2.9-8.6,2.9c-1.7,0-3.1-0.2-4.1-0.6c-0.9,0.6-1.4,1.5-1.4,2.5c0,1.2,0.5,2,1.6,2.4
		c1.4,0.5,4.1,0.7,8.4,0.7c6.9,0,10.3,2.4,10.3,7.2c0,3.4-1.4,6.2-4,8.5c-2.6,2.2-6.1,3.4-10.3,3.4c-4.4,0-7.5-0.9-9.4-2.5
		s-2.7-3.6-2.7-6c0-2.1,0.5-3.9,1.4-5.1c0.9-1.2,2-2.1,3.4-2.4v-0.2c-1.4-0.7-2.1-2.1-2.1-4.1c0-1.9,0.9-3.5,2.7-4.9v-0.2
		c-1-0.5-1.9-1.4-2.7-2.5c-0.9-1.1-1.2-2.6-1.2-4.4c0-3,1-5.5,2.9-7.4s4.6-2.9,8.2-2.9c3,0,5.2,0.6,7,1.7h0.2
		c0.6-3.2,2.1-4.9,4.6-4.9C342.2,32.4,343.4,32.6,344,32.9"/>
	<path class="st0c customColor" d="M40.5,21.8c0,0-55.6,25.4-36.5,56.5c16.7,27.3,68.9,21.1,68.9,21.1s7.2-1,7.2-8.2s-9-7.7-9-7.7
		s-43.5,6.9-57.5-9.7C-0.3,57,15.7,35.8,40.5,21.8"/>
	<path class="st0c customColor" d="M122.2,59.5c1.4,2.1-0.6,3.7-0.6,3.7S48.1,94,21.3,73.5c-26-20,10.9-43.8,33.6-57.3
		c-11.6,8.5-57.7,34.5-31,53.6c20.9,11.6,61.6,4.2,94.4-11.7C118.1,58.1,120.8,57.4,122.2,59.5"/>
	<path class="st1c customColor" d="M138.6,24.6c0,0-41.1,39.3-94.6,33C27,54,33.5,38.4,40.1,32c-17,12.3-25.9,32.4-1.6,35.3
		C56.2,69.3,102.5,61.4,138.6,24.6"/>
	<path class="st1c customColor" d="M46.6,28.8c0,0,44.9-28.4,63.8-19.1c7.7,5.9-3.5,16.6-6.1,19.2c0,0,25.6-19,16.3-26.8
		C111.3-5.6,70.7,8.6,46.6,28.8"/>
	<path class="st1c customColor" d="M98.7,32.6c0,0-35,21.9-46.4,14.8c-5.6-3.4,8-14.3,11.3-17.7c0,0-7.6,9.7-2.7,12.5
		C68.1,46.3,85.9,40.2,98.7,32.6"/>
	<path class="st1c customColor" d="M68.2,26.2c0,0,21.3-15.8,30.9-11c4,3.1-5,9.7-7.7,12.5c1.9-3.7,3.2-9-2-9.2C85.3,18.5,78.5,20.8,68.2,26.2"/>
	<path class="st1c customColor" d="M87.4,30.9c0,0-15.2,10.5-20.8,7.2c-2.9-1.7,4.2-7.6,7.1-9.5C71.6,33.4,67.9,39,87.4,30.9"/>
	<path class="st1c customColor" d="M76.3,27.1c0,0,7.5-5,11.7-2.9c1.7,1.1-1.2,3.4-3.1,4.2C86.4,26.9,88,22,76.3,27.1"/>
</g>
</svg>
