<?xml version="1.0" encoding="utf-8"?>
<!-- Generator: Adobe Illustrator 23.0.6, SVG Export Plug-In . SVG Version: 6.00 Build 0)  -->
<svg version="1.1" id="Layer_1" xmlns="http://www.w3.org/2000/svg" xmlns:xlink="http://www.w3.org/1999/xlink" x="0px" y="0px"
	 viewBox="0 0 478.2 127" style="enable-background:new 0 0 478.2 127;" xml:space="preserve">
<style type="text/css">
	.st0{fill:#fff;}
	.st1{fill:#00AEEF;}
</style>
<g>
	<g>
		<path class="st0 customColor" d="M79.7,99.4c-7.9,0-14.5-1.8-20-5.4c-5.5-3.6-8.9-8.9-10.3-15.8H60c2.1,8.2,8.8,12.3,19.9,12.3
			c5.1,0,9.3-0.9,12.4-2.6c3.1-1.8,4.6-4.4,4.6-7.9c0-5.8-3.9-8.9-11.7-9.3l-13.9-1c-6.1-0.4-11-2-14.7-4.9c-3.6-2.9-5.5-7-5.5-12.4
			c0-6.1,2.4-10.8,7.1-14c4.8-3.3,10.9-4.9,18.4-4.9c7.4,0,13.7,1.6,18.9,4.8c5.3,3.1,8.8,8,10.4,14.7H95.5
			c-2.6-7.1-8.8-10.7-18.4-10.7c-4.6,0-8.4,0.8-11.3,2.4c-2.9,1.6-4.3,4-4.3,7.3c0,5.4,3.9,8.4,11.5,9l13.8,0.9c6.5,0.4,11.5,2,15,5
			c3.5,3,5.3,7.1,5.3,12.5c0,6.4-2.5,11.3-7.7,14.8s-11.8,5.3-19.9,5.3C79.6,99.4,79.7,99.4,79.7,99.4z"/>
		<path class="st0 customColor" d="M157.9,99.3c-4.6,0-9.1-1.1-13.5-3.4s-7.8-5.3-10.1-8.9v38.6h-10V66.3c0-9.4,3.1-17.3,9.4-23.6
			c6.3-6.3,14.2-9.4,23.7-9.4c9.5,0,17.4,3.1,23.7,9.4c6.3,6.3,9.4,14.2,9.4,23.6c0,9.5-3.1,17.4-9.3,23.7
			c-6.1,6.3-13.9,9.4-23.2,9.4V99.3z M140.9,82.9c4.4,4.4,9.8,6.6,16.3,6.6c6.6,0,12.2-2.3,16.6-6.6c4.4-4.4,6.5-9.9,6.5-16.5
			c0-6.7-2.1-12.2-6.5-16.5s-9.9-6.6-16.6-6.6c-6.5,0-11.9,2.3-16.3,6.6s-6.5,9.9-6.5,16.5C134.4,73,136.5,78.5,140.9,82.9z"/>
		<path class="st0 customColor" d="M237.2,99.6c-9.3,0-17-3.1-23.2-9.4c-6.1-6.3-9.3-14.2-9.3-23.7c0-9.4,3.1-17.3,9.4-23.6
			c6.3-6.3,14.3-9.4,23.9-9.4c9.5,0,17.4,3.1,23.7,9.3c6.3,6.1,9.4,13.9,9.4,23.3v32.1h-9.5v-12c-2.5,4-6,7.3-10.5,9.7
			c-4.5,2.4-9.1,3.6-13.9,3.6V99.6z M260.6,66.7c0-6.7-2.1-12.2-6.4-16.5s-9.6-6.7-16.3-6.7c-6.6,0-12.2,2.1-16.6,6.5
			s-6.5,9.9-6.5,16.6c0,6.6,2.1,12.2,6.5,16.6s9.9,6.6,16.6,6.6c6.6,0,12.2-2.3,16.4-6.6c4.3-4.4,6.4-9.9,6.4-16.6L260.6,66.7z"/>
		<path class="st0 customColor" d="M351.9,76.2c-1.8,7.2-5.4,12.9-11,17.3c-5.6,4.4-12.4,6.5-20.3,6.5c-9.4,0-17.2-3.1-23.3-9.4
			c-6.1-6.3-9.1-14.2-9.1-23.7c0-9.4,3.1-17.3,9.3-23.6c6.1-6.3,13.9-9.4,23.3-9.4c7.9,0,14.7,2.1,20.3,6.5
			c5.6,4.4,9.4,10.1,11.1,17.4h-10.8c-1.6-4.4-4.3-7.9-7.9-10.5c-3.6-2.6-7.9-3.9-12.8-3.9c-6.5,0-11.9,2.1-16,6.5
			c-4.1,4.4-6.3,9.9-6.3,16.5c0,6.8,2.1,12.3,6.3,16.7c4.1,4.4,9.5,6.5,16,6.5c4.9,0,9.1-1.3,12.8-3.8c3.6-2.5,6.3-6,7.9-10.4H352
			L351.9,76.2z"/>
		<path class="st0 customColor" d="M427.8,79.8c-2.4,6.5-6.3,11.4-11.8,14.8c-5.5,3.4-11.9,5-19,5c-9.6,0-17.5-3.1-23.7-9.3
			c-6.1-6.1-9.1-14-9.1-23.7s3.1-17.5,9.4-23.7s14.3-9.3,23.9-9.3c9.1,0,16.7,2.8,22.6,8.4c5.9,5.6,8.9,12.8,8.9,21.4
			c0,2.3-0.3,4.4-0.6,6.3h-49.3c-2.6,0-4,1.1-4,3.4c0,4.1,2.1,8,6.4,11.8c4.3,3.8,9.6,5.6,16,5.6c4.4,0,8.5-0.9,12.3-2.8
			c3.8-1.9,6.5-4.6,8.4-8.3h10.1L427.8,79.8z M381.6,47.8c-4.1,3.4-6.5,8-7.1,13.8h41.2c1.9,0,2.9-0.9,2.9-2.6c0-4-2-7.8-6-11.2
			c-4-3.4-9-5.1-15.2-5.1C391,42.7,385.7,44.4,381.6,47.8z"/>
	</g>
	<g>
		<path class="st1 customColor" d="M0,63.4c0-14.9,3.5-28.1,10.5-39.5S27.6,4.5,40.7,0v10.3C30.6,14.5,22.9,21.4,17.8,31
			c-5.1,9.5-7.6,20.3-7.6,32.5c0,12.2,2.6,22.9,7.8,32.3c5.1,9.4,12.8,16.3,22.9,20.7v10.3c-13.2-4.4-23.2-12.3-30.2-23.7
			C3.6,91.6,0.1,78.5,0.1,63.5L0,63.4z"/>
		<path class="st1 customColor" d="M478.1,63.8c0,14.9-3.5,28.1-10.5,39.5c-7,11.4-17,19.3-30.2,23.7v-10.3c10.1-4.3,17.8-11.2,22.9-20.6
			s7.8-20.2,7.8-32.3s-2.5-23.1-7.6-32.6c-5.1-9.5-12.8-16.4-22.9-20.7V0.3c13.2,4.5,23.2,12.4,30.2,23.8
			c7,11.4,10.5,24.6,10.5,39.5L478.1,63.8z"/>
	</g>
</g>
</svg>
