<?xml version="1.0" encoding="utf-8"?>
<!-- Generator: Adobe Illustrator 23.0.6, SVG Export Plug-In . SVG Version: 6.00 Build 0)  -->
<svg version="1.1" id="Layer_1" xmlns="http://www.w3.org/2000/svg" xmlns:xlink="http://www.w3.org/1999/xlink" x="0px" y="0px"
	 viewBox="0 0 300 81" style="enable-background:new 0 0 300 81;" xml:space="preserve">
<style type="text/css">
	.st0d{clip-path:url(#SVGID_2_);}
	.st1d{fill:none;}
	.st2d{fill:url(#SVGID_3_);}
	.st3d{fill:url(#SVGID_4_);}
	.st4d{fill:url(#SVGID_5_);}
	.st5d{fill:url(#SVGID_6_);}
	.st6d{fill:#4E4883;}
</style>
<g>
	<g>
		<g>
			<g>
				<g>
					<defs>
						<path id="SVGID_1_" d="M29.4,79.6C12.6,75.2,0,60,0,41.6c0-7.7,2.1-15.1,6.1-21l0,0c2-2.9,5-5.9,9.3-7.4
							c7-2.6,12.5-1.3,14.9-0.6c2.4,0.6,6.5,2.8,6.7,5.5c-5.2,0.5-10.5,0.9-15.7,1.5c2.2,0.6,4.5,1.3,6.7,1.9c0-1,0.9-2,2-2
							c1,0,2,0.9,2,2c0,0.4-0.1,0.7-0.3,1c0.5,0.2,1.2,0.3,1.7,0.5c0.5-1.2,1-2.4,1.6-3.6c13.9,1.6,18.7,9.1,11.9,17.8
							c0.2-1.9-0.5-3.1-1.6-4.1c-4.9-4.5-15-1.5-16.5,6c-1.5,6.7,3.7,15.6,14.9,14.6c4.3-0.4,7.1-2.1,10.2-6.1
							c6.9-9.1,1.9-22.5,1.9-22.5l-0.3-0.7c-0.7-1.6-1.5-3-2.5-4.4c3.4-2.9,9.7-7.5,10.9-11.8c3,8.1-4.4,11.6-7,14.9
							c-0.8,1.2,0.5,0.7,0.5,0.7c3.9-2.2,10.7-5.8,12.7-9.6c2,9.1-8.4,12-10.9,14.9c0,0,0,0.4,1.2,0.1c4.2-1.5,11.9-4.1,14.6-7.6
							c0.3,9.3-10.2,10.2-13.2,12.5c0,0-0.1,0.3,0.7,0.3c4.4-0.7,12.4-2.8,15.5-5.9c-1.4,9.2-10.6,8.6-13.9,10.4
							c-0.3,0.4,1.6,0.2,0.6,0.3c5.4-0.1,9.9,0.1,15.2-2.7c0,0,0.2,3.5-5.1,5.5c-1.5,0.6-4,1.7-8.4,2.1c-0.2,0-0.5,0-0.7,0
							c-0.3,0-0.7,0.2-0.1,0.4c0.2,0,0.4,0.1,0.8,0.1c4.8,0.7,9.3,1.6,13.4,1.2c0,0,0.1,1.4-1,2.2c-2.9,2-7.5,1-11.9,1.4
							c-0.2,0-0.9,0-0.9,0.2c0,0.1,0.7,0.3,1.2,0.4c3.8,1.3,7.2,2.4,11.1,3.7c-0.2,0.6-0.3,1.2-1.2,1.7c-2.3,1.4-6.9,0-10.8-0.4
							c-0.1,0-0.6-0.1-0.6-0.1c-0.5-0.1-0.1,0.2,0.2,0.4c0.1,0.1,0,0,0.2,0.1c3,1.7,6.4,3.1,9.4,4.7c-0.5,1.2-1.5,2.5-2,3.4
							c0,0-6.2-2.2-9.3-3.5c2.6,2.1,4.9,4,7.5,6c-0.8,0.9-1.4,1.8-2.4,2.8c0,0-4.9-2.7-7.3-4.1c1.7,2,3.6,4.1,5.3,6.1
							c-1,0.8-1.8,1.7-2.8,2.4c0,0-3.8-2.8-5.4-4.2c1,1.7,2.4,3.9,3.6,5.5c-1,0.7-2,1.4-3.1,2c0,0-2.7-2.7-4-4
							c0.7,1.5,2.3,4.7,2.3,4.7c-1.6,0.7-2.6,1.2-4.1,1.7c-0.6-0.9-1.8-2.6-2.3-3.6c0.2,1,0.9,2.9,1.2,4c-1.3,0.4-4,1-4,1L47,77.7
							c0.1,0.6,0.4,2.9,0.4,2.9C40.1,81.3,35.8,81,29.4,79.6z M20.9,4.6c0.8,1,1.3,2.4,1.5,3.8C23.2,8.2,24,8,24.8,7.9
							C23.9,6.6,22.6,5.5,20.9,4.6z M30.6,7.3c-0.4-1.8-1.3-3.7-2.9-5.3c0.7,1.6,0.6,3.5,0.2,5.4c0.6,0,1.4-0.1,2-0.1
							C30.1,7.3,30.3,7.3,30.6,7.3z M34.1,0.4C35,2.5,34.5,5,33.6,7.6C34.8,7.8,35.9,8,37,8.3C37.1,5.7,36.5,3,34.1,0.4z M41.5,0.1
							C42.2,2.8,40.8,6,39.3,9c1.3,0.4,2.4,1,3.6,1.7C43.8,7.5,44.2,3.8,41.5,0.1z M50.7,1.8c0,3.5-3.4,6.8-6,9.8
							c1.3,0.8,2.4,1.7,3.5,2.6C50.2,11.3,52.8,7.3,50.7,1.8z M57.5,4.5c-0.4,3.9-5.2,8-8.3,11c1,1,2.1,2.3,2.9,3.6
							C54.5,15.8,60,11.1,57.5,4.5z"/>
					</defs>
					<clipPath id="SVGID_2_">
						<use xlink:href="#SVGID_1_"  style="overflow:visible;"/>
					</clipPath>
					<g class="st0d">
						<path class="st1d customColor" d="M39.1,53.5c0.4,0,0.8,0,1.3,0C39.9,53.6,39.5,53.5,39.1,53.5c0.4,0,0.7,0,1.2,0c7,0,12.7-5.4,13.1-12.4
							c0-0.2,0-0.5,0-0.7c0,0.2,0,0.5,0,0.7c0-0.2,0-0.5,0-0.7c0-6.9-5.4-12.7-12.3-13.1c-0.2,0-0.5,0-0.8,0c0.3,0,0.5,0,0.8,0
							c-0.2,0-0.5,0-0.8,0c-7,0-12.8,5.5-13.1,12.5c0,0.2,0,0.4,0,0.5c0-0.2,0-0.4,0-0.5c0,0.2,0,0.4,0,0.5
							C27.1,47.3,32.4,52.9,39.1,53.5z"/>
						
							<linearGradient id="SVGID_3_" gradientUnits="userSpaceOnUse" x1="53.3" y1="69.2083" x2="7.259369e-02" y2="69.2083" gradientTransform="matrix(1 0 0 -1 0 121.8583)">
							<stop  offset="0" style="stop-color:#C34C36"/>
							<stop  offset="1" style="stop-color:#DEB343"/>
						</linearGradient>
						<path class="st2d customColor" d="M53.3,41.2c-0.4,6.9-6.1,12.4-13.1,12.4c-0.4,0-0.7,0-1.2,0C18.7,53.1,2.4,41.4,2.3,27
							C0.8,31.2,0,35.8,0,40.5C0,58,11.1,72.7,26.6,78.3C41.3,78.3,53,61.7,53.3,41.2z"/>
						
							<linearGradient id="SVGID_4_" gradientUnits="userSpaceOnUse" x1="59.3544" y1="109.4172" x2="8.1171" y2="79.8354" gradientTransform="matrix(1 0 0 -1 0 121.8583)">
							<stop  offset="1.082549e-07" style="stop-color:#BC5392"/>
							<stop  offset="0.1936" style="stop-color:#BD578E"/>
							<stop  offset="0.4041" style="stop-color:#C26583"/>
							<stop  offset="0.6228" style="stop-color:#C97A71"/>
							<stop  offset="0.8455" style="stop-color:#D39858"/>
							<stop  offset="1" style="stop-color:#DBB243"/>
						</linearGradient>
						<path class="st3d customColor" d="M39.1,53.5c-6.7-0.5-11.9-6.2-11.9-13c0-0.2,0-0.4,0-0.5c0.2-20.6,12-37.3,26.6-37.3
							C49.6,1.2,45,0.4,40.3,0.4C22.8,0.3,8,11.4,2.4,27C2.4,41.3,18.7,53,39.1,53.5z"/>
						
							<linearGradient id="SVGID_5_" gradientUnits="userSpaceOnUse" x1="72.299" y1="83.0318" x2="21.0072" y2="53.4184" gradientTransform="matrix(1 0 0 -1 0 121.8583)">
							<stop  offset="0" style="stop-color:#436198"/>
							<stop  offset="0.2351" style="stop-color:#685B7C"/>
							<stop  offset="0.5845" style="stop-color:#995356"/>
							<stop  offset="0.8507" style="stop-color:#B84E3F"/>
							<stop  offset="1" style="stop-color:#C34C36"/>
						</linearGradient>
						<path class="st4d customColor" d="M41,27.4c6.8,0.4,12.3,6.1,12.3,13.1c0,0.2,0,0.5,0,0.7c-0.3,20.5-12,37.1-26.6,37.1
							c4.2,1.5,8.8,2.3,13.5,2.3c17.5,0,32.4-11.1,37.8-26.7C78,39.4,61.5,27.7,41,27.4z"/>
						
							<linearGradient id="SVGID_6_" gradientUnits="userSpaceOnUse" x1="80.4" y1="93.4583" x2="27.1659" y2="93.4583" gradientTransform="matrix(1 0 0 -1 0 121.8583)">
							<stop  offset="1.082549e-07" style="stop-color:#436198"/>
							<stop  offset="0.1483" style="stop-color:#496098"/>
							<stop  offset="0.354" style="stop-color:#5B5F97"/>
							<stop  offset="0.5933" style="stop-color:#795C97"/>
							<stop  offset="0.856" style="stop-color:#A15896"/>
							<stop  offset="1" style="stop-color:#BB5595"/>
						</linearGradient>
						<path class="st5d customColor" d="M53.7,2.7C39.2,2.7,27.3,19.3,27.1,40c0.3-6.9,6.1-12.5,13.1-12.5c0.3,0,0.5,0,0.8,0
							c20.5,0.3,37.1,12,37.1,26.6c1.5-4.2,2.3-8.8,2.3-13.5C80.4,23,69.3,8.2,53.7,2.7z"/>
					</g>
				</g>
			</g>
		</g>
	</g>
	<g>
		<path class="st6d customColor" d="M288.2,12.8h-1.9v13.1h13.1V24h-11.2V12.8z M270.1,16.6c0-2-1.8-3.8-3.8-3.8h-5.5c-2.1,0-3.8,1.7-3.8,3.8v5.5
			c0,2.1,1.7,3.8,3.8,3.8h5.5c2.1,0,3.8-1.7,3.8-3.8V16.6z M268.2,22.2c0,1-0.8,1.9-1.9,1.9h-5.5c-1,0-1.9-0.8-1.9-1.9v-5.5
			c0-1,0.8-1.9,1.9-1.9h5.5c1,0,1.9,0.8,1.9,1.9V22.2z M244.1,12.8h-1.9v13.1h1.9v-5.5h9.3v5.5h1.9V12.8h-1.9v5.5h-9.3V12.8z
			 M231.4,12.8c-2.1,0.1-3.8,1.7-3.8,3.8v5.5c0,2.1,1.8,3.8,3.8,3.8h5.5c2.1,0,3.8-1.8,3.8-3.8h-1.9c0,1-0.8,1.9-1.9,1.9h-5.5
			c-1,0-1.9-0.8-1.9-1.9v-5.5c0-1,0.8-1.9,1.9-1.9h5.5c1,0,1.9,0.8,1.9,1.9h1.9c-0.1-2.1-1.8-3.8-3.8-3.8
			C237,12.8,231.4,12.8,231.4,12.8z M193.7,12.8h-1.9v13.1h13.1V24h-11.2L193.7,12.8L193.7,12.8z M190.1,16.6
			c-0.1-2.1-1.8-3.8-3.8-3.8h-5.5c-2.1,0-3.8,1.8-3.8,3.8v9.3h1.9v-3.8h9.3v3.8h1.9L190.1,16.6L190.1,16.6z M186.3,14.7
			c1,0,1.9,0.8,1.9,1.9v3.8h-9.3v-3.8c0-1,0.8-1.9,1.9-1.9C180.8,14.7,186.3,14.7,186.3,14.7z M166.2,12.8c-2.1,0.1-3.8,1.7-3.8,3.8
			v5.5c0,2.1,1.8,3.8,3.8,3.8h5.5c2.1,0,3.8-1.8,3.8-3.8h-1.9c0,1-0.8,1.9-1.9,1.9h-5.5c-1,0-1.9-0.8-1.9-1.9v-5.5
			c0-1,0.8-1.9,1.9-1.9h5.5c1,0,1.9,0.8,1.9,1.9h1.9c-0.1-2.1-1.8-3.8-3.8-3.8H166.2z M158.8,25.9h1.9V12.8h-1.9V25.9z M157,12.8
			h-1.9v9.8l-9.3-9.8h-1.9v13.1h1.9v-10l9.3,10.1h1.9V12.8z M130.9,12.8H129v13.1h1.9v-5.5h9.3v5.5h1.9V12.8h-1.9v5.5h-9.3V12.8z
			 M118.2,12.8c-2.1,0.1-3.8,1.7-3.8,3.8v5.5c0,2.1,1.8,3.8,3.8,3.8h5.5c2.1,0,3.8-1.8,3.8-3.8h-1.9c0,1-0.8,1.9-1.9,1.9h-5.5
			c-1,0-1.9-0.8-1.9-1.9v-5.5c0-1,0.8-1.9,1.9-1.9h5.5c1,0,1.9,0.8,1.9,1.9h1.9c-0.1-2.1-1.8-3.8-3.8-3.8
			C123.8,12.8,118.2,12.8,118.2,12.8z M102,14.7h11.2v-1.9h-13.1v13.1h13.1V24H102v-3.8h9.3v-1.9H102V14.7z M284.6,16.6
			c0-2-1.8-3.8-3.8-3.8h-5.5c-2.1,0-3.8,1.7-3.8,3.8v5.5c0,2.1,1.7,3.8,3.8,3.8h5.5c2.1,0,3.8-1.7,3.8-3.8V16.6z M282.7,22.2
			c0,1-0.8,1.9-1.9,1.9h-5.5c-1,0-1.9-0.8-1.9-1.9v-5.5c0-1,0.8-1.9,1.9-1.9h5.5c1,0,1.9,0.8,1.9,1.9V22.2z M226.2,22.2
			c0-2.1-1.8-3.8-3.8-3.8h-5.5c-1,0-1.9-0.8-1.9-1.9s0.8-1.9,1.9-1.9h5.5c1,0,1.9,0.8,1.9,1.9h1.9c-0.1-2.1-1.8-3.8-3.8-3.8h-5.5
			c-2.1,0-3.8,1.8-3.8,3.8c0,2.1,1.8,3.8,3.8,3.8h5.5c1,0,1.9,0.8,1.9,1.9c0,1-0.8,1.9-1.9,1.9h-5.5c-1,0-1.9-0.8-1.9-1.9h-1.9
			c0.1,2.1,1.7,3.8,3.8,3.8h5.5C224.6,25.9,226.2,24.1,226.2,22.2z M99.2,14.7v-1.9h-13v1.9h5.5v11.2h1.9V14.7H99.2z"/>
		<path class="st6d customColor" d="M114.1,36.6h10.6v-1.8h-12.3v12.3h1.8v-5.2h8.8v-1.8h-8.8L114.1,36.6L114.1,36.6z M110.8,38.4
			c0-1.9-1.7-3.6-3.6-3.6H102c-1.9,0-3.6,1.6-3.6,3.6v5.2c0,2,1.6,3.6,3.6,3.6h5.2c1.9,0,3.6-1.6,3.6-3.6
			C110.8,43.6,110.8,38.4,110.8,38.4z M109,43.6c0,0.9-0.8,1.8-1.8,1.8H102c-0.9,0-1.8-0.8-1.8-1.8v-5.2c0-0.9,0.8-1.8,1.8-1.8h5.2
			c0.9,0,1.8,0.8,1.8,1.8V43.6z"/>
		<rect x="138.5" y="31.7" class="st6d  customColor" width="2.6" height="18.6"/>
		<polygon class="st6d  customColor" points="172.6,31.7 169.8,31.7 169.8,45.7 156.5,31.7 152.5,31.7 169.8,50.3 172.6,50.3 		"/>
		<polygon class="st6d  customColor" points="166.4,50.3 148.8,31.7 146.2,31.7 146.2,50.3 148.8,50.3 148.8,36 162.1,50.3 		"/>
		<path class="st6d  customColor" d="M193.9,37c0-2.9-2.5-5.3-5.3-5.3h-8c-2.9,0-5.3,2.4-5.3,5.3v8c0,2.9,2.4,5.3,5.3,5.3h8c2.9,0,5.3-2.4,5.3-5.3
			V37z M191.3,45c0,1.5-1.2,2.6-2.6,2.6h-8c-1.5,0-2.6-1.2-2.6-2.6v-8c0-1.5,1.2-2.6,2.6-2.6h8c1.5,0,2.6,1.2,2.6,2.6V45z"/>
		<polygon class="st6d  customColor" points="202.3,50.3 207.4,50.3 214.2,37 214.2,31.7 211.5,31.7 211.5,36.3 205.8,47.6 204,47.6 198.2,36.3 
			198.2,31.7 195.6,31.7 195.6,37 		"/>
		<path class="st6d  customColor" d="M234.8,37c-0.1-2.9-2.5-5.3-5.3-5.3h-8.1c-2.9,0-5.3,2.5-5.3,5.3v13.3h2.6V45H232v5.3h2.6V37H234.8z
			 M229.4,34.3c1.5,0,2.6,1.2,2.6,2.6v5.3h-13.3v-5.3c0-1.5,1.2-2.6,2.6-2.6H229.4z"/>
		<polygon class="st6d  customColor" points="253.9,34.3 253.9,31.7 235.3,31.7 235.3,34.3 243.2,34.3 243.2,50.3 245.9,50.3 245.9,34.3 		"/>
		<rect x="255.3" y="31.7" class="st6d  customColor" width="2.6" height="18.6"/>
		<path class="st6d  customColor" d="M279,37c0-2.9-2.5-5.3-5.3-5.3h-8c-2.9,0-5.3,2.4-5.3,5.3v8c0,2.9,2.4,5.3,5.3,5.3h8c2.9,0,5.3-2.4,5.3-5.3
			V37z M276.3,45c0,1.5-1.2,2.6-2.6,2.6h-8c-1.5,0-2.6-1.2-2.6-2.6v-8c0-1.5,1.2-2.6,2.6-2.6h8c1.5,0,2.6,1.2,2.6,2.6V45z"/>
		<polygon class="st6d customColor"  points="300,31.7 297.4,31.7 297.4,45.7 284,31.7 281.4,31.7 281.4,50.3 284,50.3 284,36 297.4,50.3 
			300,50.3 		"/>
		<path class="st6d  customColor" d="M147.1,58.8c-0.1-2.1-1.8-3.8-3.8-3.8h-5.5c-2.1,0-3.8,1.8-3.8,3.8v9.3h1.9v-3.8h9.3v3.8h1.9L147.1,58.8
			L147.1,58.8z M143.4,56.9c1,0,1.9,0.8,1.9,1.9v3.8H136v-3.8c0-1,0.8-1.9,1.9-1.9H143.4z M123.2,55c-2.1,0.1-3.8,1.7-3.8,3.8v5.5
			c0,2.1,1.8,3.8,3.8,3.8h5.5c2.1,0,3.8-1.8,3.8-3.8h-1.9c0,1-0.8,1.9-1.9,1.9h-5.5c-1,0-1.9-0.8-1.9-1.9v-5.5c0-1,0.8-1.9,1.9-1.9
			h5.5c1,0,1.9,0.8,1.9,1.9h1.9c-0.1-2.1-1.8-3.8-3.8-3.8C128.8,55,123.2,55,123.2,55z M116,64.4c0,1-0.8,1.9-1.9,1.9h-5.5
			c-1,0-1.9-0.8-1.9-1.9V55h-1.9v9.3c0,2.1,1.8,3.8,3.8,3.8h5.5c2.1,0,3.8-1.8,3.8-3.8V55H116V64.4L116,64.4z M102.9,58.8
			c-0.1-2.1-1.8-3.8-3.8-3.8h-5.5c-2.1,0-3.8,1.8-3.8,3.8v9.3h1.9v-3.8h9.3v3.8h1.9V58.8z M99.3,56.9c1,0,1.9,0.8,1.9,1.9v3.8h-9.3
			v-3.8c0-1,0.8-1.9,1.9-1.9H99.3z"/>
	</g>
</g>
</svg>
